<?xml version="1.0" encoding="UTF-8"?>
<svg version="1.1" xmlns="http://www.w3.org/2000/svg" width="512" height="500">
<path d="M0 0 C3.61995237 2.75971644 6.83808469 5.72979992 10 9 C11.22203125 10.26070312 11.22203125 10.26070312 12.46875 11.546875 C16.7076524 16.08855615 20.21938008 20.43876015 23 26 C25.35308219 23.72045163 27.61731369 21.45541403 29.7265625 18.9453125 C41.83313504 4.5469608 58.50699383 -3.40730807 77 -6 C99.90637156 -7.30749871 120.80733607 -1.24504308 138.125 14.125 C153.77481028 28.61100332 159.15231618 46.40702718 162 67 C162.98871094 66.84015625 163.97742188 66.6803125 164.99609375 66.515625 C184.17064212 63.80047429 203.85530327 67.38278961 219.5625 79.0625 C236.60608319 92.60996356 248.2018942 110.17109909 251 132 C252.92776168 153.15475897 248.04786772 170.99823297 235 188 C236.51335091 191.65519727 238.66715337 193.71979949 241.5625 196.375 C256.34586312 210.90200422 264.25832609 230.61198385 264.46875 251.28613281 C264.4584375 252.44983398 264.448125 253.61353516 264.4375 254.8125 C264.42847656 256.03936523 264.41945313 257.26623047 264.41015625 258.53027344 C264.04398903 277.75913828 257.93572672 297.11151303 244 311 C232.82913772 320.92289129 220.46512748 327.92194569 206.1875 332.3125 C205.44298584 332.54291992 204.69847168 332.77333984 203.93139648 333.01074219 C187.75180225 337.63687997 171.08406211 338.70153656 154.375 339.6875 C152.28900934 339.81750922 150.20307119 339.94836387 148.1171875 340.08007812 C143.07867493 340.39643202 138.03959836 340.70146379 133 341 C133.21217667 341.66149551 133.42435333 342.32299103 133.64295959 343.00453186 C143.92054254 375.11963403 154.45100062 417.52055235 140 450 C136.1169667 456.52520748 131.34255962 461.58656815 124 464 C115.98055428 464.77230944 107.55854344 465.31937164 101 460 C91.20713115 451.25786816 87.11769426 438.07775511 82.625 426.125 C73.24013699 401.62279523 73.24013699 401.62279523 54.453125 384.015625 C45.50346405 380.31035136 35.8382131 378.9260367 26.3125 377.5625 C12.23650957 375.47340395 1.08160114 371.37454248 -7.7734375 359.65234375 C-13.01070043 351.47742827 -15.98115682 342.16630567 -19 333 C-20.30710938 333.70576172 -20.30710938 333.70576172 -21.640625 334.42578125 C-38.10066508 343.12512322 -55.59969296 346.0794093 -73.8828125 341.1015625 C-88.67216002 335.87525172 -103.76002525 326.4799495 -111 312 C-111 311.34 -111 310.68 -111 310 C-111.70125 310.33773438 -112.4025 310.67546875 -113.125 311.0234375 C-114.07375 311.46945312 -115.0225 311.91546875 -116 312.375 C-116.928125 312.81585938 -117.85625 313.25671875 -118.8125 313.7109375 C-125.30840215 316.33795675 -131.38467409 317.36844818 -138.375 317.3125 C-139.11959473 317.30686035 -139.86418945 317.3012207 -140.63134766 317.29541016 C-153.24729298 317.01810646 -164.83789337 311.69225501 -174 303 C-174.99 301.515 -174.99 301.515 -176 300 C-177.91165422 299.30132828 -177.91165422 299.30132828 -180.1484375 299.0078125 C-180.98294434 298.8631958 -181.81745117 298.7185791 -182.67724609 298.56958008 C-183.56750488 298.42286865 -184.45776367 298.27615723 -185.375 298.125 C-205.82659408 294.34806699 -223.49982258 284.41066889 -235.58862305 267.11962891 C-247.37646952 249.4118402 -251.02416468 228.47902797 -247.3515625 207.51171875 C-242.65442666 188.50236987 -231.28624574 171.50634195 -214.69921875 160.88671875 C-211.82578613 159.201827 -208.93763037 157.56976468 -206 156 C-206.33773437 155.12859375 -206.67546875 154.2571875 -207.0234375 153.359375 C-214.88167005 132.37380599 -215.23542076 111.45783268 -205.96606445 90.78540039 C-202.81905088 84.20116572 -198.75986617 78.52758652 -194 73 C-193.31292969 72.20078125 -192.62585938 71.4015625 -191.91796875 70.578125 C-179.04448048 56.7253918 -161.25163028 48.94688614 -142.4765625 47.78125 C-133.53216733 47.55994538 -125.63901388 48.76370673 -117 51 C-116.93683594 50.319375 -116.87367188 49.63875 -116.80859375 48.9375 C-114.56874295 31.20731261 -105.34210682 15.645591 -91.78125 4.09375 C-65.23034495 -15.89400998 -28.01844401 -18.74812353 0 0 Z " fill="#F67373" transform="translate(248,24)"/>
<path d="M0 0 C3.5625 0.375 3.5625 0.375 5.1796875 2.09765625 C9.97250281 9.99090858 9.84448422 19.17394238 9.875 28.125 C9.88309692 29.59803589 9.88309692 29.59803589 9.89135742 31.10083008 C9.74090048 46.55341168 3.99145024 59.5892688 -6.65234375 70.68359375 C-11.92483716 75.75099828 -21.6236791 84.375 -29.4375 84.375 C-28.87160156 85.33921875 -28.30570313 86.3034375 -27.72265625 87.296875 C-26.98151311 88.57276699 -26.24064193 89.84881699 -25.5 91.125 C-24.94022461 92.07632813 -24.94022461 92.07632813 -24.36914062 93.046875 C-19.38082536 101.67531222 -18.82626238 111.76686541 -21.37890625 121.37890625 C-24.23524973 130.7487916 -28.70289398 138.69780435 -34 146.875 C-42.24029967 159.69324393 -44.5794949 172.82629258 -41.7890625 187.87109375 C-39.88203884 194.13819289 -36.90115175 199.13225072 -32.92578125 204.31640625 C-31.4375 206.375 -31.4375 206.375 -30.4375 209.375 C-29.7775 209.375 -29.1175 209.375 -28.4375 209.375 C-28.30714355 208.78581787 -28.17678711 208.19663574 -28.04248047 207.58959961 C-23.44646055 190.76534751 -7.73789005 174.09664472 6.5625 165.0625 C17.71280099 158.79579179 29.76253409 157.2618699 42.3125 160.61328125 C57.3104013 165.69069575 57.3104013 165.69069575 62.5625 170.375 C63.6875 173.375 63.6875 173.375 63.5625 176.375 C61.9375 178.75 61.9375 178.75 59.5625 180.375 C55.16276954 180.91836294 52.46455142 179.56555019 48.625 177.5 C39.37184886 172.55702636 30.749928 170.40680456 20.3671875 173.25 C3.07332367 179.97293428 -8.80192508 194.92076316 -16.38232422 211.43310547 C-16.97299914 212.7945902 -17.56126775 214.15712176 -18.14697266 215.52075195 C-21.10989199 222.39550496 -23.5014215 226.21224589 -30.4375 229.375 C-42.22672127 236.27023899 -53.70605574 244.19178709 -60.4375 256.375 C-60.79271729 257.00092041 -61.14793457 257.62684082 -61.51391602 258.27172852 C-65.27320034 265.60015163 -64.66415164 272.25326722 -64.19335938 280.28710938 C-63.93286599 287.79226787 -63.93286599 287.79226787 -66.734375 291.02734375 C-69.6796141 292.49570717 -72.17024141 293.07106897 -75.4375 293.375 C-79.91669954 280.55062514 -80.10303103 267.8291111 -74.4375 255.375 C-66.48454834 239.24245816 -54.03224087 227.97764043 -38.4375 219.375 C-38.80101562 218.84132813 -39.16453125 218.30765625 -39.5390625 217.7578125 C-41.19121385 215.30923947 -42.81694533 212.84459242 -44.4375 210.375 C-44.95183594 209.60542969 -45.46617187 208.83585938 -45.99609375 208.04296875 C-54.92565019 194.05719593 -58.95002371 177.82119763 -55.375 161.4375 C-52.72852191 152.0635262 -48.30929045 143.57802318 -42.3125 135.9375 C-35.82758657 127.35823709 -32.48352701 116.80928115 -33.01953125 106.03125 C-33.92333617 100.287443 -36.11060106 96.70189894 -40.1875 92.625 C-51.5701964 84.74467172 -64.43158811 82.13184966 -78.0390625 81.0625 C-81.84348222 80.29287026 -83.14111443 79.4502096 -85.4375 76.375 C-85.875 73.8125 -85.875 73.8125 -85.4375 71.375 C-83.76286048 69.10032678 -82.86106962 68.44559494 -80.046875 67.9765625 C-68.23251614 68.07340151 -57.11470436 70.3992434 -46.12109375 74.703125 C-37.65060205 76.82383035 -28.54312002 70.47915737 -21.4375 66.375 C-11.35125023 59.71715683 -5.99689843 49.33902053 -3.09375 37.8515625 C-1.3874144 28.81204651 -2.52495969 21.1457162 -4.76171875 12.3046875 C-5.57418392 8.78243965 -5.83575452 5.95929071 -5.4375 2.375 C-3.4375 0.375 -3.4375 0.375 0 0 Z " fill="#CD3B3B" transform="translate(200.4375,44.625)"/>
<path d="M0 0 C1.4589426 0.47730838 2.91713496 0.95691042 4.375 1.4375 C5.18710937 1.70433594 5.99921875 1.97117187 6.8359375 2.24609375 C9 3 9 3 11 4 C10.51651854 9.23600139 7.77165111 12.92474091 4.9375 17.1875 C4.44016357 17.94417969 3.94282715 18.70085937 3.43041992 19.48046875 C-0.40906985 25.25670324 -4.48437963 30.73177623 -9 36 C-9.598125 36.7425 -10.19625 37.485 -10.8125 38.25 C-17.44656327 46.21087593 -25.74259157 52.61500312 -34.6875 57.8125 C-38.39250051 60.25919845 -38.83139333 60.87387693 -40 65 C-42.36379612 83.16109896 -36.6006991 97.88524478 -26.953125 112.92578125 C-22.72808599 119.57599265 -22.01181065 124.54699147 -23.4296875 132.37109375 C-25.48616042 139.69569173 -29.77502771 144.97648798 -36.1875 149 C-41.4147831 150.37109065 -46.63363958 150.80024673 -52 150 C-54.37096 148.22557151 -54.90985018 147.50226328 -55.4375 144.5625 C-55 142 -55 142 -53.625 139.8125 C-50.28127033 137.50373428 -47.30588157 137.21540315 -43.34765625 136.5625 C-40.27174139 135.82550875 -38.83026596 134.54645699 -37 132 C-35.29419964 128.58839929 -35.195294 125.64615062 -36 122 C-37.90097167 118.43515816 -40.0038377 115.10979317 -42.25 111.7578125 C-44 109 -44 109 -44 107 C-44.77601563 107.6290625 -45.55203125 108.258125 -46.3515625 108.90625 C-67.35520856 125.66769929 -87.95826934 132.79788318 -115 131 C-124.83114952 129.6924401 -137.89887068 125.69510775 -145.8984375 119.5390625 C-147 118 -147 118 -146.875 114.4375 C-146 111 -146 111 -143 109 C-138.80911483 109.10477213 -135.59081773 110.6027584 -131.875 112.375 C-117.47150041 119.02721868 -98.34212217 121.11404072 -83 116 C-72.87360609 112.08092757 -64.09011998 107.31963236 -56 100 C-54.9275 99.278125 -53.855 98.55625 -52.75 97.8125 C-50.15472259 93.64151845 -51.44511032 90.55545172 -52.359375 85.8671875 C-54.29039818 74.21040123 -54.46013767 62.30873032 -48 52 C-45.86471149 49.71219088 -44.56347474 48.55639538 -42 47 C-23.02375006 35.09618677 -10.86288688 19.38913448 0 0 Z " fill="#CC3B3B" transform="translate(449,94)"/>
<path d="M0 0 C3.59310053 0.81947907 6.74223435 2.28772225 9.9375 4.125 C7.17031825 6.95049401 4.35422159 9.67870752 1.4140625 12.32421875 C-9.05735522 21.77331104 -18.32154221 30.71466374 -20.76171875 45.109375 C-20.88514648 45.82915527 -21.00857422 46.54893555 -21.13574219 47.29052734 C-21.37571719 48.74613977 -21.59692222 50.20498999 -21.79785156 51.66650391 C-22.12109375 53.7109375 -22.12109375 53.7109375 -23.0625 57.125 C-25.86116848 59.0027866 -28.15155521 59.37212193 -31.4765625 59.3984375 C-32.31525879 59.41583984 -33.15395508 59.43324219 -34.01806641 59.45117188 C-34.89897949 59.46728516 -35.77989258 59.48339844 -36.6875 59.5 C-48.56430396 59.94938112 -56.05053907 62.15163813 -64.80078125 70.5859375 C-75.60582198 82.71594868 -77.10486048 98.74513576 -76.29589844 114.34570312 C-75.67489002 121.74064021 -74.33498643 129.04752252 -73.03515625 136.34765625 C-72.70655388 138.27269435 -72.38221427 140.1984658 -72.0625 142.125 C-71.89991699 143.06972168 -71.73733398 144.01444336 -71.56982422 144.98779297 C-71.44236816 145.87740723 -71.31491211 146.76702148 -71.18359375 147.68359375 C-71.06298584 148.46919678 -70.94237793 149.2547998 -70.81811523 150.06420898 C-71.0625 152.125 -71.0625 152.125 -72.89477539 153.87915039 C-75.55808655 155.40982691 -77.03613381 155.5905948 -80.0625 155.125 C-83.8027242 152.08434052 -84.19462155 148.21657007 -85.0625 143.6875 C-85.31241699 142.44649536 -85.31241699 142.44649536 -85.56738281 141.18041992 C-87.39257762 131.88082555 -88.75718771 122.50940428 -90.0625 113.125 C-96.33525699 112.74209031 -100.24826211 113.60774838 -105.75 116.5625 C-106.77395874 117.09242554 -106.77395874 117.09242554 -107.81860352 117.63305664 C-114.71160159 121.29358667 -122.52038521 125.58288521 -128.0625 131.125 C-131.5 131.375 -131.5 131.375 -135.0625 131.125 C-137.0625 128.125 -137.0625 128.125 -137.0390625 124.74609375 C-134.97006495 117.07425082 -125.74404638 112.64908118 -119.14453125 108.77734375 C-117.85082693 108.05186158 -116.55272714 107.33415248 -115.25 106.625 C-114.65300293 106.29894775 -114.05600586 105.97289551 -113.44091797 105.63696289 C-106.94760186 102.27406536 -100.86097407 100.83412559 -93.5625 101 C-92.00015625 101.02707031 -92.00015625 101.02707031 -90.40625 101.0546875 C-89.6328125 101.07789062 -88.859375 101.10109375 -88.0625 101.125 C-88.11470703 100.25101563 -88.11470703 100.25101563 -88.16796875 99.359375 C-88.62674242 85.46508673 -83.82500904 72.93029122 -75.0625 62.22265625 C-66.15952342 52.88496401 -52.43949949 46.58514218 -39.5078125 46.01171875 C-37.35906665 46.00167788 -35.21018735 46.05681945 -33.0625 46.125 C-33.07152344 45.48175781 -33.08054687 44.83851562 -33.08984375 44.17578125 C-32.65415043 30.89660659 -25.12204258 21.23601725 -16.0625 12.125 C-15.19625 11.238125 -14.33 10.35125 -13.4375 9.4375 C-12.65375 8.674375 -11.87 7.91125 -11.0625 7.125 C-10.54300781 6.50238281 -10.02351563 5.87976563 -9.48828125 5.23828125 C-4.51677385 -0.44822947 -4.51677385 -0.44822947 0 0 Z " fill="#CC3B3B" transform="translate(361.0625,22.875)"/>
<path d="M0 0 C1.75 0.125 1.75 0.125 4 1 C8.09507839 5.86982295 8.09507839 5.86982295 7.79296875 9.4609375 C5.08789428 18.122506 -4.83479853 24.66883857 -12.37109375 28.88671875 C-20.60638342 33.19745689 -28.45183805 36.45991984 -37.66601562 37.91162109 C-50.78011912 40.04097295 -62.24214307 45.72453609 -71 56 C-78.58133573 68.2848583 -79.65244706 79.76900413 -76.38671875 93.8046875 C-75.7958068 97.15915735 -76.15966636 99.70869324 -77 103 C-79.79870027 104.39935013 -81.90498792 104.25265405 -85 104 C-87.72074415 102.20404081 -88.06153915 100.77916814 -88.94921875 97.59375 C-89.21120419 96.23212838 -89.45648796 94.86721734 -89.6875 93.5 C-89.8127002 92.78094482 -89.93790039 92.06188965 -90.06689453 91.32104492 C-92.50092918 76.50654968 -90.58874384 62.62057773 -82 50 C-71.39940202 36.17048425 -57.2496337 27.91841052 -40.09887695 25.17602539 C-24.62137332 22.55646952 -11.77549491 15.30727776 -2 3 C-1.34 2.01 -0.68 1.02 0 0 Z " fill="#CD3B3B" transform="translate(491,225)"/>
<path d="M0 0 C10.48696042 4.30490977 17.29159723 15.24224506 21.79296875 25.06640625 C26.45289229 36.39198093 23.87552348 46.95757629 20.19140625 58.08984375 C16.40816425 69.801182 16.68143797 83.46756836 22.2890625 94.546875 C25.77802716 100.10682937 30.15371555 105.14679022 36.1484375 108.03515625 C38 109 38 109 39 111 C39.26140874 114.07155269 39.43904748 116.199384 37.9375 118.9375 C35.51908649 120.26372676 33.71242406 120.28930472 31.0234375 119.76171875 C21.12355886 116.03493046 13.35684016 105.91386022 9.06640625 96.625 C3.06125941 81.84310009 3.59812697 65.91471764 9.125 51 C11.9341323 42.96482156 12.65095693 34.80526612 9.125 26.875 C5.8036934 21.04596335 0.11480632 13.05740316 -6 10 C-5.58578031 5.16743695 -3.53586014 3.17320782 0 0 Z " fill="#CD3B3B" transform="translate(58,93)"/>
<path d="M0 0 C2.375 0.5625 2.375 0.5625 4.1875 1.625 C6.29210214 5.05882455 5.81431661 8.68507861 4.91796875 12.515625 C4.73878906 13.17046875 4.55960938 13.8253125 4.375 14.5 C2.9991003 19.60765643 2.52347816 24.22081493 4.375 29.3125 C9.7245206 35.33071068 17.29597948 36.33227618 24.80322266 37.99682617 C35.32803522 40.37965108 44.75133323 43.97684822 53.375 50.5625 C54.20644531 51.17222656 55.03789063 51.78195312 55.89453125 52.41015625 C58.55834808 54.72159416 60.20110676 56.950905 62.0625 59.9375 C62.64386719 60.85273438 63.22523437 61.76796875 63.82421875 62.7109375 C66.73887294 68.0703772 67.66777315 72.59847981 67.6875 78.6875 C67.70425781 79.88632812 67.72101563 81.08515625 67.73828125 82.3203125 C67.35066122 85.77971703 66.89650927 87.19713924 64.375 89.5625 C60.8125 90 60.8125 90 57.375 89.5625 C55.31053279 86.46579919 55.07875135 84.68752823 54.79467773 81.06591797 C54.16728481 73.19597338 52.96452889 67.46522272 47.375 61.5625 C41.01035295 56.28407724 34.27925826 53.95011542 26.375 51.875 C24.31207299 51.31015094 22.24956546 50.74376747 20.1875 50.17578125 C19.20354248 49.90668945 18.21958496 49.63759766 17.20581055 49.36035156 C-1.51152924 44.08495127 -1.51152924 44.08495127 -6.625 35.5625 C-10.48230843 26.06116452 -10.83597282 16.34438112 -7.625 6.5625 C-5.76428243 3.14665715 -3.96195814 0.84899103 0 0 Z " fill="#CC3B3B" transform="translate(35.625,210.4375)"/>
<path d="M0 0 C2 2 2 2 2.375 5.4375 C2 9 2 9 0.4296875 10.6484375 C-2.77205077 12.42946876 -5.62095249 12.70675964 -9.25 13.1875 C-20.99530767 15.06913516 -34.30029062 20.57727873 -42 30 C-49.81019246 41.55160203 -51.31477652 50.3629797 -51.47851562 64.0546875 C-51.50494141 65.14265625 -51.53136719 66.230625 -51.55859375 67.3515625 C-51.57204834 68.33979004 -51.58550293 69.32801758 -51.59936523 70.34619141 C-52.06235293 73.4130264 -52.8270781 74.80822203 -55 77 C-58.18261281 77.46413104 -60.08206067 77.60140853 -62.8125 75.8125 C-67.3490312 68.88832081 -65.73276207 55.95054333 -64.28125 48.125 C-59.6426559 31.06694429 -51.02441002 18.55266995 -36 9 C-25.12675726 2.9928285 -12.63167571 -1.7430807 0 0 Z " fill="#CD3B3B" transform="translate(362,251)"/>
<path d="M0 0 C2 2 2 2 2.3125 4.9375 C2 8 2 8 0.86328125 9.57421875 C-1.6523426 11.49917201 -4.07056812 12.05904066 -7.125 12.875 C-12.96749151 14.5796022 -17.8953395 16.70770846 -23 20 C-23.9075 20.556875 -24.815 21.11375 -25.75 21.6875 C-32.9944131 29.1331468 -33.51208419 37.16948802 -33.84375 47.0078125 C-34.19072269 55.87296481 -36.28569103 63.02240371 -42 70 C-47.38661103 74.67149198 -52.68518972 76.94996323 -59.85546875 76.453125 C-62 76 -62 76 -64.6875 74.375 C-66 72 -66 72 -65.9375 68.875 C-65 66 -65 66 -62 64 C-60.700625 63.87625 -59.40125 63.7525 -58.0625 63.625 C-55.23585711 63.3092029 -54.10476504 63.07078719 -51.6875 61.4375 C-47.31525414 55.12203376 -46.63292934 49.06203818 -46.5625 41.625 C-46.17084781 29.99852495 -43.28638975 21.49157654 -35 13 C-26.35187661 5.86141854 -11.71952916 -3.90650972 0 0 Z " fill="#CC3B3B" transform="translate(396,91)"/>
<path d="M0 0 C23.58528151 3.37736728 48.54982332 15.42962467 63.734375 34.13671875 C66.42054157 38.09805989 67.79856907 41.09450428 67 46 C66.34 46.99 65.68 47.98 65 49 C61.65625 49.50390625 61.65625 49.50390625 58 49 C55.59375 46.83984375 55.59375 46.83984375 53.5 43.9375 C52.73171875 42.92945313 51.9634375 41.92140625 51.171875 40.8828125 C50.45515625 39.93148437 49.7384375 38.98015625 49 38 C37.06203147 23.66328078 15.3068102 14.63931 -3.02734375 12.67578125 C-3.90519531 12.61777344 -4.78304687 12.55976563 -5.6875 12.5 C-8.88650449 12.26579668 -9.8618199 12.09212007 -12.625 10.25 C-14.2920608 7.52208233 -14.56387248 6.14157526 -14 3 C-10.46178359 -1.69884154 -5.33663373 -0.46744237 0 0 Z " fill="#CC3B3B" transform="translate(207,284)"/>
<path d="M0 0 C1.03116943 -0.0159874 2.06233887 -0.03197479 3.12475586 -0.04844666 C4.23729736 -0.05380936 5.34983887 -0.05917206 6.49609375 -0.06469727 C7.63892822 -0.07372574 8.7817627 -0.08275421 9.95922852 -0.09205627 C12.37676365 -0.10657065 14.79433818 -0.11544844 17.21191406 -0.11914062 C20.91928751 -0.13105753 24.62500821 -0.18025209 28.33203125 -0.23071289 C30.67837727 -0.24017429 33.02473354 -0.24741067 35.37109375 -0.25219727 C36.48363525 -0.27172958 37.59617676 -0.2912619 38.74243164 -0.31138611 C46.36064635 -0.26648424 46.36064635 -0.26648424 49.03125 2.40380859 C49.47791016 3.8405896 49.47791016 3.8405896 49.93359375 5.30639648 C50.52140625 7.19358398 50.52140625 7.19358398 51.12109375 9.11889648 C51.38921875 10.17077148 51.65734375 11.22264648 51.93359375 12.30639648 C44.42327233 12.3990536 36.91301011 12.4701394 29.40224743 12.51364517 C25.91468819 12.53452548 22.42751981 12.56284966 18.94018555 12.6081543 C14.93143958 12.6599071 10.92310453 12.67933784 6.9140625 12.69702148 C5.03426949 12.7279892 5.03426949 12.7279892 3.11650085 12.75958252 C1.95552383 12.75988464 0.79454681 12.76018677 -0.40161133 12.76049805 C-1.93716423 12.77382172 -1.93716423 12.77382172 -3.5037384 12.78741455 C-6.06640625 12.30639648 -6.06640625 12.30639648 -7.92826843 10.47332764 C-9.54506153 7.39507185 -9.06059484 5.57301612 -8.06640625 2.30639648 C-4.79598092 0.12611293 -3.79604235 0.04447829 0 0 Z " fill="#CD3B3B" transform="translate(332.06640625,362.693603515625)"/>
<path d="M0 0 C3.1328125 1.92578125 3.1328125 1.92578125 6.125 4.3125 C7.11757813 5.09238281 8.11015625 5.87226563 9.1328125 6.67578125 C10.07898438 7.44277344 11.02515625 8.20976562 12 9 C12.94617188 9.75667969 13.89234375 10.51335937 14.8671875 11.29296875 C15.57101562 11.85628906 16.27484375 12.41960937 17 13 C16.71715982 14.77226453 16.42339502 16.542788 16.125 18.3125 C15.96257812 19.29863281 15.80015625 20.28476563 15.6328125 21.30078125 C15 24 15 24 13 27 C12.09378906 26.20335937 11.18757813 25.40671875 10.25390625 24.5859375 C9.02429919 23.51463517 7.79376884 22.444392 6.5625 21.375 C5.61093018 20.54512573 5.61093018 20.54512573 4.64013672 19.69848633 C1.11760535 16.66953817 -2.35018463 14.03799218 -6.375 11.6875 C-8.4765625 10.3671875 -8.4765625 10.3671875 -10 9 C-10.76559738 5.23581286 -10.73363914 3.3809678 -8.9375 0 C-5.78498583 -1.62710409 -3.39264612 -0.75039836 0 0 Z " fill="#CD3B3B" transform="translate(481,165)"/>
</svg>
