<?xml version="1.0" encoding="UTF-8"?>
<svg version="1.1" xmlns="http://www.w3.org/2000/svg" width="512" height="500">
<path d="M0 0 C0.99852409 -0.01090674 1.99704817 -0.02181347 3.02583057 -0.03305072 C4.12581054 -0.02976915 5.22579051 -0.02648758 6.3591032 -0.02310658 C7.52532906 -0.03131438 8.69155491 -0.03952218 9.89312094 -0.0479787 C13.1356921 -0.06760055 16.37796558 -0.07368136 19.62058604 -0.07397926 C23.11561678 -0.07747484 26.61055343 -0.098084 30.10553265 -0.11630726 C37.7501365 -0.15276143 45.39468299 -0.16668825 53.03936124 -0.17614436 C57.81161824 -0.1821611 62.583857 -0.19291964 67.35610294 -0.20464993 C80.56602021 -0.23641111 93.77592122 -0.2631134 106.98587799 -0.26940155 C107.83150007 -0.26980869 108.67712216 -0.27021582 109.54836915 -0.2706353 C111.26269511 -0.271443 112.97702108 -0.27224872 114.69134704 -0.27305248 C115.54235523 -0.27345805 116.39336341 -0.27386363 117.27015972 -0.2742815 C118.12220518 -0.27468348 118.97425064 -0.27508546 119.85211565 -0.27549962 C133.66054907 -0.28299043 147.46859245 -0.32746991 161.27688483 -0.38813891 C175.44964332 -0.4499099 189.62220738 -0.48176039 203.79510325 -0.48322898 C211.75438137 -0.48473116 219.71317869 -0.49901181 227.6723299 -0.54604626 C234.44945211 -0.58592758 241.22592842 -0.59838767 248.00314001 -0.57506063 C251.46151217 -0.56397044 254.91859909 -0.5658286 258.37682247 -0.60252857 C262.12635465 -0.63551143 265.87254928 -0.61940007 269.62204266 -0.59073353 C270.71533046 -0.6119899 271.80861827 -0.63324627 272.935036 -0.65514678 C280.0405366 -0.52961852 280.0405366 -0.52961852 283.11923063 1.95681894 C284.76964876 4.01996097 285.98983193 6.03572601 287.18104839 8.39148998 C287.67993963 9.31770782 287.67993963 9.31770782 288.18890947 10.26263714 C290.89595709 16.20440871 290.59919388 22.4247204 290.56199932 28.8363905 C290.56667929 30.07842556 290.57135926 31.32046063 290.57618105 32.60013312 C290.58604884 36.03111863 290.58253549 39.46160871 290.5732224 42.8925637 C290.56641958 46.59873525 290.57691899 50.3048643 290.58516216 54.01102734 C290.5984866 61.26342923 290.5956281 68.51573788 290.58692424 75.76814339 C290.58014563 81.66038352 290.57923173 87.55259753 290.58249569 93.44484043 C290.58295539 94.2838248 290.58341509 95.12280917 290.58388872 95.9872173 C290.58484789 97.69159885 290.58582053 99.39598038 290.58680649 101.10036191 C290.59535592 117.07213181 290.5855319 133.04385001 290.56940539 149.01561143 C290.55599035 162.72678624 290.55834092 176.43788489 290.57216167 190.14905834 C290.58820427 206.07191891 290.5945449 221.99473425 290.58532488 237.91760176 C290.58436922 239.61414062 290.58342611 241.31067949 290.58249569 243.00721836 C290.58203286 243.84196173 290.58157004 244.67670511 290.58109318 245.53674373 C290.57850024 251.42599261 290.58288058 257.31521284 290.58993435 263.20445728 C290.59833435 270.37518754 290.59610043 277.54581925 290.58009212 284.71653817 C290.57219097 288.37667724 290.56914913 292.03665177 290.57903957 295.69678974 C290.58958331 299.65845609 290.57702113 303.61985111 290.56199932 307.58150768 C290.56869149 308.74626953 290.57538365 309.91103139 290.58227861 311.11108905 C290.57445537 312.16759746 290.56663213 313.22410588 290.55857182 314.3126297 C290.55784123 315.68507921 290.55784123 315.68507921 290.55709589 317.08525497 C290.10325888 319.86855975 289.4156087 320.71940708 287.18104839 322.39148998 C286.19104839 322.72148998 285.20104839 323.05148998 284.18104839 323.39148998 C284.04610593 325.99737888 283.9470254 328.59631109 283.86854839 331.20398998 C283.82665386 331.94197826 283.78475933 332.67996655 283.74159527 333.44031811 C283.63241233 335.87888844 283.63241233 335.87888844 284.18104839 339.39148998 C286.51424182 341.42609774 286.51424182 341.42609774 289.18104839 342.39148998 C290.89889383 344.10933542 290.31830639 346.37596639 290.32821941 348.72143078 C290.33895237 350.4561665 290.33895237 350.4561665 290.34990215 352.22594738 C290.35259106 353.50639431 290.35527996 354.78684124 290.35805035 356.10608959 C290.36431262 357.45945442 290.37095921 358.81281751 290.37796307 360.1661787 C290.39540529 363.85468382 290.40593553 367.54317592 290.4141686 371.2317121 C290.41931641 373.53790402 290.42539252 375.84409189 290.43167973 378.15028095 C290.45074858 385.37017707 290.46497097 392.5900629 290.4732917 399.80997938 C290.48304391 408.13451444 290.50930322 416.45878215 290.54979259 424.78322309 C290.58002417 431.22071582 290.59476758 437.6581323 290.59807271 444.0956946 C290.60041699 447.93809067 290.60929428 451.78020173 290.63453388 455.6225214 C290.65794051 459.24478749 290.66199793 462.86658358 290.6517725 466.48890591 C290.65104663 468.4384036 290.67005349 470.38787807 290.68983746 472.33727551 C290.6289321 482.70364022 288.51759766 490.86682407 281.18104839 498.39148998 C277.60410665 500.77611781 275.08242898 500.66927735 270.95555401 500.63872814 C269.84408298 500.64234977 269.84408298 500.64234977 268.71015799 500.64604455 C266.22038542 500.65169283 263.73086814 500.64301006 261.24110699 500.6344099 C259.45905773 500.63548249 257.67700882 500.63742082 255.89496136 500.64016247 C251.05015072 500.64501702 246.20543195 500.63734804 241.36063242 500.62720942 C236.29886984 500.61844121 231.23711024 500.62018611 226.17534161 500.62057018 C217.67625162 500.61963313 209.1771973 500.61094278 200.67811871 500.59730053 C190.83795791 500.58156449 180.99783617 500.57630275 171.1576637 500.57703608 C161.7064547 500.57764542 152.25525848 500.5725493 142.80405331 500.56424427 C138.77454942 500.56070472 134.74505006 500.55888007 130.7155447 500.55835056 C125.97632755 500.5573495 121.23714346 500.55127242 116.4979372 500.54118443 C114.75356975 500.53825208 113.0091985 500.53703553 111.26482868 500.53761196 C108.89404192 500.53809912 106.52334921 500.53248207 104.15257549 500.52520275 C103.10362183 500.52752565 103.10362183 500.52752565 102.03347719 500.52989548 C97.29522717 500.50566876 97.29522717 500.50566876 96.18104839 499.39148998 C93.48869063 499.15470282 90.81606684 498.96950973 88.11854839 498.82898998 C87.35993511 498.78580639 86.60132183 498.7426228 85.81972027 498.69813061 C83.94039402 498.59175365 82.06074596 498.49109064 80.18104839 498.39148998 C80.18104839 499.05148998 80.18104839 499.71148998 80.18104839 500.39148998 C69.59331852 500.50742555 59.00574006 500.59622661 48.41750431 500.65055084 C43.50072946 500.67662613 38.58438942 500.71198641 33.6678648 500.76868725 C28.92161197 500.8230808 24.17577692 500.85292608 19.42923641 500.8658762 C17.61992219 500.87510291 15.8106304 500.89312092 14.00149441 500.92014027 C11.46367827 500.95652928 8.92758024 500.96143138 6.38954449 500.95911694 C5.64435558 500.97709332 4.89916668 500.99506969 4.13139629 501.01359081 C-0.16362955 500.97130962 -3.2638445 500.26912289 -6.38839066 497.19999188 C-14.55796948 486.872086 -14.67880627 476.78150292 -14.58085346 464.26209545 C-14.58777501 462.3298738 -14.59730978 460.39766005 -14.60921693 458.46546268 C-14.63418189 453.17958873 -14.6219221 447.89436769 -14.60329962 442.6084919 C-14.58969638 436.89876429 -14.61069205 431.18914714 -14.62717915 425.47944164 C-14.65383462 414.30351181 -14.648107 403.12782399 -14.6307033 391.95188475 C-14.61714343 382.86758504 -14.61531944 373.78335307 -14.6218462 364.69904613 C-14.6227656 363.40526763 -14.623685 362.11148912 -14.62463225 360.77850521 C-14.62655064 358.15007637 -14.62849592 355.52164755 -14.6304678 352.89321876 C-14.6470826 328.95853105 -14.62986338 305.02397395 -14.59841222 281.08930728 C-14.56994008 259.25571945 -14.57248792 237.42234161 -14.60117817 215.58875561 C-14.63332987 191.03911154 -14.64592207 166.48959436 -14.62750459 141.93993092 C-14.62559333 139.32126524 -14.6237071 136.70259954 -14.6218462 134.08393383 C-14.62092055 132.79555862 -14.61999489 131.50718342 -14.61904119 130.17976654 C-14.61386441 121.10820212 -14.62259687 112.03671228 -14.63672352 102.96515942 C-14.65356509 91.90730666 -14.64896913 80.8497094 -14.61703905 69.79188585 C-14.60128891 64.15183071 -14.5950637 58.51220129 -14.61493397 52.87214947 C-14.6328615 47.70532199 -14.62290873 42.53931336 -14.59106866 37.37255979 C-14.58438703 35.50731501 -14.58772992 33.64200053 -14.60232338 31.77680087 C-14.68606954 20.18022322 -13.86090858 11.13321616 -6.42389351 1.60396355 C-4.22088891 -0.06032401 -2.7463223 0.01015856 0 0 Z " fill="#26E5FB" transform="translate(118.81895160675049,-0.39148998260498047)"/>
<path d="M0 0 C0.99852409 -0.01090674 1.99704817 -0.02181347 3.02583057 -0.03305072 C4.12581054 -0.02976915 5.22579051 -0.02648758 6.3591032 -0.02310658 C7.52532906 -0.03131438 8.69155491 -0.03952218 9.89312094 -0.0479787 C13.1356921 -0.06760055 16.37796558 -0.07368136 19.62058604 -0.07397926 C23.11561678 -0.07747484 26.61055343 -0.098084 30.10553265 -0.11630726 C37.7501365 -0.15276143 45.39468299 -0.16668825 53.03936124 -0.17614436 C57.81161824 -0.1821611 62.583857 -0.19291964 67.35610294 -0.20464993 C80.56602021 -0.23641111 93.77592122 -0.2631134 106.98587799 -0.26940155 C107.83150007 -0.26980869 108.67712216 -0.27021582 109.54836915 -0.2706353 C111.26269511 -0.271443 112.97702108 -0.27224872 114.69134704 -0.27305248 C115.54235523 -0.27345805 116.39336341 -0.27386363 117.27015972 -0.2742815 C118.12220518 -0.27468348 118.97425064 -0.27508546 119.85211565 -0.27549962 C133.66054907 -0.28299043 147.46859245 -0.32746991 161.27688483 -0.38813891 C175.44964332 -0.4499099 189.62220738 -0.48176039 203.79510325 -0.48322898 C211.75438137 -0.48473116 219.71317869 -0.49901181 227.6723299 -0.54604626 C234.44945211 -0.58592758 241.22592842 -0.59838767 248.00314001 -0.57506063 C251.46151217 -0.56397044 254.91859909 -0.5658286 258.37682247 -0.60252857 C262.12635465 -0.63551143 265.87254928 -0.61940007 269.62204266 -0.59073353 C270.71533046 -0.6119899 271.80861827 -0.63324627 272.935036 -0.65514678 C280.0405366 -0.52961852 280.0405366 -0.52961852 283.11923063 1.95681894 C284.76964876 4.01996097 285.98983193 6.03572601 287.18104839 8.39148998 C287.67993963 9.31770782 287.67993963 9.31770782 288.18890947 10.26263714 C290.89595709 16.20440871 290.59919388 22.4247204 290.56199932 28.8363905 C290.56667929 30.07842556 290.57135926 31.32046063 290.57618105 32.60013312 C290.58604884 36.03111863 290.58253549 39.46160871 290.5732224 42.8925637 C290.56641958 46.59873525 290.57691899 50.3048643 290.58516216 54.01102734 C290.5984866 61.26342923 290.5956281 68.51573788 290.58692424 75.76814339 C290.58014563 81.66038352 290.57923173 87.55259753 290.58249569 93.44484043 C290.58295539 94.2838248 290.58341509 95.12280917 290.58388872 95.9872173 C290.58484789 97.69159885 290.58582053 99.39598038 290.58680649 101.10036191 C290.59535592 117.07213181 290.5855319 133.04385001 290.56940539 149.01561143 C290.55599035 162.72678624 290.55834092 176.43788489 290.57216167 190.14905834 C290.58820427 206.07191891 290.5945449 221.99473425 290.58532488 237.91760176 C290.58436922 239.61414062 290.58342611 241.31067949 290.58249569 243.00721836 C290.58203286 243.84196173 290.58157004 244.67670511 290.58109318 245.53674373 C290.57850024 251.42599261 290.58288058 257.31521284 290.58993435 263.20445728 C290.59833435 270.37518754 290.59610043 277.54581925 290.58009212 284.71653817 C290.57219097 288.37667724 290.56914913 292.03665177 290.57903957 295.69678974 C290.58958331 299.65845609 290.57702113 303.61985111 290.56199932 307.58150768 C290.56869149 308.74626953 290.57538365 309.91103139 290.58227861 311.11108905 C290.57445537 312.16759746 290.56663213 313.22410588 290.55857182 314.3126297 C290.55784123 315.68507921 290.55784123 315.68507921 290.55709589 317.08525497 C290.10693792 319.84599684 289.36427546 320.70179272 287.18104839 322.39148998 C284.56546118 323.52491111 283.39573912 323.44908993 280.61854839 322.70398998 C277.7524048 321.16068189 276.78247729 320.22843281 275.18104839 317.39148998 C274.89835636 314.59867458 274.78878155 312.03264566 274.82028484 309.24177074 C274.81771679 308.41547161 274.81514874 307.58917248 274.81250286 306.73783398 C274.8075318 303.95649932 274.82411592 301.17570492 274.84047222 298.39441967 C274.84139106 296.37144647 274.84099103 294.3484723 274.83937645 292.32549953 C274.83869837 286.90150207 274.85610265 281.47770263 274.87720776 276.05375195 C274.8942757 270.96661781 274.89509619 265.87953217 274.89723492 260.79236889 C274.91298526 245.9087163 274.95486862 231.02510065 274.99354839 216.14148998 C275.05542339 182.89398998 275.11729839 149.64648998 275.18104839 115.39148998 C184.76104839 115.39148998 94.34104839 115.39148998 1.18104839 115.39148998 C1.18104839 219.67148998 1.18104839 323.95148998 1.18104839 431.39148998 C91.60104839 431.39148998 182.02104839 431.39148998 275.18104839 431.39148998 C275.18104839 402.68148998 275.18104839 373.97148998 275.18104839 344.39148998 C280.08104839 339.49148998 280.08104839 339.49148998 284.18104839 339.39148998 C286.46423219 340.53308188 288.37117522 341.58161681 290.18104839 343.39148998 C290.286143 345.16570418 290.32070768 346.94412257 290.32821941 348.72143078 C290.33895237 350.4561665 290.33895237 350.4561665 290.34990215 352.22594738 C290.35259106 353.50639431 290.35527996 354.78684124 290.35805035 356.10608959 C290.36431262 357.45945442 290.37095921 358.81281751 290.37796307 360.1661787 C290.39540529 363.85468382 290.40593553 367.54317592 290.4141686 371.2317121 C290.41931641 373.53790402 290.42539252 375.84409189 290.43167973 378.15028095 C290.45074858 385.37017707 290.46497097 392.5900629 290.4732917 399.80997938 C290.48304391 408.13451444 290.50930322 416.45878215 290.54979259 424.78322309 C290.58002417 431.22071582 290.59476758 437.6581323 290.59807271 444.0956946 C290.60041699 447.93809067 290.60929428 451.78020173 290.63453388 455.6225214 C290.65794051 459.24478749 290.66199793 462.86658358 290.6517725 466.48890591 C290.65104663 468.4384036 290.67005349 470.38787807 290.68983746 472.33727551 C290.6289321 482.70364022 288.51759766 490.86682407 281.18104839 498.39148998 C277.60410665 500.77611781 275.08242898 500.66927735 270.95555401 500.63872814 C269.84408298 500.64234977 269.84408298 500.64234977 268.71015799 500.64604455 C266.22038542 500.65169283 263.73086814 500.64301006 261.24110699 500.6344099 C259.45905773 500.63548249 257.67700882 500.63742082 255.89496136 500.64016247 C251.05015072 500.64501702 246.20543195 500.63734804 241.36063242 500.62720942 C236.29886984 500.61844121 231.23711024 500.62018611 226.17534161 500.62057018 C217.67625162 500.61963313 209.1771973 500.61094278 200.67811871 500.59730053 C190.83795791 500.58156449 180.99783617 500.57630275 171.1576637 500.57703608 C161.7064547 500.57764542 152.25525848 500.5725493 142.80405331 500.56424427 C138.77454942 500.56070472 134.74505006 500.55888007 130.7155447 500.55835056 C125.97632755 500.5573495 121.23714346 500.55127242 116.4979372 500.54118443 C114.75356975 500.53825208 113.0091985 500.53703553 111.26482868 500.53761196 C108.89404192 500.53809912 106.52334921 500.53248207 104.15257549 500.52520275 C103.10362183 500.52752565 103.10362183 500.52752565 102.03347719 500.52989548 C97.29522717 500.50566876 97.29522717 500.50566876 96.18104839 499.39148998 C93.48869063 499.15470282 90.81606684 498.96950973 88.11854839 498.82898998 C87.35993511 498.78580639 86.60132183 498.7426228 85.81972027 498.69813061 C83.94039402 498.59175365 82.06074596 498.49109064 80.18104839 498.39148998 C80.18104839 499.05148998 80.18104839 499.71148998 80.18104839 500.39148998 C69.59331852 500.50742555 59.00574006 500.59622661 48.41750431 500.65055084 C43.50072946 500.67662613 38.58438942 500.71198641 33.6678648 500.76868725 C28.92161197 500.8230808 24.17577692 500.85292608 19.42923641 500.8658762 C17.61992219 500.87510291 15.8106304 500.89312092 14.00149441 500.92014027 C11.46367827 500.95652928 8.92758024 500.96143138 6.38954449 500.95911694 C5.64435558 500.97709332 4.89916668 500.99506969 4.13139629 501.01359081 C-0.16362955 500.97130962 -3.2638445 500.26912289 -6.38839066 497.19999188 C-14.55796948 486.872086 -14.67880627 476.78150292 -14.58085346 464.26209545 C-14.58777501 462.3298738 -14.59730978 460.39766005 -14.60921693 458.46546268 C-14.63418189 453.17958873 -14.6219221 447.89436769 -14.60329962 442.6084919 C-14.58969638 436.89876429 -14.61069205 431.18914714 -14.62717915 425.47944164 C-14.65383462 414.30351181 -14.648107 403.12782399 -14.6307033 391.95188475 C-14.61714343 382.86758504 -14.61531944 373.78335307 -14.6218462 364.69904613 C-14.6227656 363.40526763 -14.623685 362.11148912 -14.62463225 360.77850521 C-14.62655064 358.15007637 -14.62849592 355.52164755 -14.6304678 352.89321876 C-14.6470826 328.95853105 -14.62986338 305.02397395 -14.59841222 281.08930728 C-14.56994008 259.25571945 -14.57248792 237.42234161 -14.60117817 215.58875561 C-14.63332987 191.03911154 -14.64592207 166.48959436 -14.62750459 141.93993092 C-14.62559333 139.32126524 -14.6237071 136.70259954 -14.6218462 134.08393383 C-14.62092055 132.79555862 -14.61999489 131.50718342 -14.61904119 130.17976654 C-14.61386441 121.10820212 -14.62259687 112.03671228 -14.63672352 102.96515942 C-14.65356509 91.90730666 -14.64896913 80.8497094 -14.61703905 69.79188585 C-14.60128891 64.15183071 -14.5950637 58.51220129 -14.61493397 52.87214947 C-14.6328615 47.70532199 -14.62290873 42.53931336 -14.59106866 37.37255979 C-14.58438703 35.50731501 -14.58772992 33.64200053 -14.60232338 31.77680087 C-14.68606954 20.18022322 -13.86090858 11.13321616 -6.42389351 1.60396355 C-4.22088891 -0.06032401 -2.7463223 0.01015856 0 0 Z " fill="#000000" transform="translate(118.81895160675049,-0.39148998260498047)"/>
<path d="M0 0 C90.42 0 180.84 0 274 0 C274.3125 100.75 274.3125 100.75 274.38793945 132.59667969 C274.42449103 141.99308088 274.42449103 141.99308088 274.4650116 151.38946533 C274.48299449 155.584301 274.4925643 159.77906663 274.49711609 163.97393799 C274.50318903 169.31943835 274.52346085 174.66470523 274.55416143 180.01011896 C274.56300295 181.97521033 274.56679123 183.94033223 274.56503928 185.90544271 C274.56339282 188.55399853 274.57998461 191.20182473 274.60127258 193.85028076 C274.59642444 194.62437916 274.59157629 195.39847755 274.58658123 196.19603348 C274.62821705 199.32994012 274.81488139 201.64471599 276.27492046 204.44685745 C278.13537386 206.36596489 278.13537386 206.36596489 282 207 C282 212.94 282 218.88 282 225 C280.35 225.66 278.7 226.32 277 227 C256.01058468 247.98941532 274.3411673 286.31844485 274 316 C183.58 316 93.16 316 0 316 C0 211.72 0 107.44 0 0 Z M16.44619083 24.4466114 C14.23276074 28.35463448 14.44820013 31.94782955 14.49206543 36.36888123 C14.48582547 37.3284059 14.4795855 38.28793058 14.47315645 39.27653176 C14.45716793 42.50027634 14.46985393 45.72327094 14.48242188 48.94702148 C14.47700334 51.2547449 14.4698822 53.56246485 14.46118164 55.87017822 C14.44291255 62.14495627 14.45003103 68.41947188 14.46269798 74.69425464 C14.47280824 81.25427136 14.46343769 87.81426525 14.45715332 94.37428284 C14.44860336 106.09915945 14.46185448 117.82392544 14.48219067 129.54878289 C14.50005779 140.17914698 14.49696146 150.80933634 14.47851562 161.43969727 C14.45710753 173.78299478 14.44914286 186.12618085 14.46096468 198.4694944 C14.46720647 205.00389525 14.46801642 211.53817574 14.45481873 218.07256889 C14.44327756 224.21626663 14.45125468 230.35963392 14.47439575 236.5032959 C14.47969229 238.76038628 14.47815301 241.0175044 14.46934509 243.27458382 C14.45844358 246.35147844 14.47208875 249.42730866 14.49206543 252.50413513 C14.48314254 253.4012153 14.47421966 254.29829546 14.46502638 255.22255987 C14.513322 259.04735093 14.79171072 261.56017165 16.44619083 265.05380917 C20.2877305 267.98134556 23.6556372 267.69337373 28.36888123 267.63491821 C29.3284059 267.64271817 30.28793058 267.65051812 31.27653176 267.65855443 C34.5004158 267.67854095 37.72312812 267.66268329 40.94702148 267.64697266 C43.25474743 267.65374583 45.56246797 267.66264726 47.87017822 267.67352295 C54.14500459 267.69635949 60.4194209 267.68746134 66.69425464 267.67162752 C73.25427548 267.6589897 79.81426065 267.67070288 86.37428284 267.67855835 C98.09918378 267.68924582 109.82391189 267.67268193 121.54878289 267.64726166 C132.17918034 267.62492769 142.80930476 267.6287981 153.43969727 267.65185547 C165.78301266 267.67861562 178.12615394 267.68857146 190.4694944 267.67379415 C197.00391926 267.66599189 203.53815605 267.66497943 210.07256889 267.68147659 C216.21633529 267.69590321 222.35958537 267.68593188 228.5032959 267.65700531 C230.76038314 267.65038465 233.01751372 267.65230878 235.27458382 267.66331863 C238.35169073 267.67694646 241.42713471 267.65989048 244.50413513 267.63491821 C245.84975538 267.65164863 245.84975538 267.65164863 247.22255987 267.66871703 C251.47822171 267.60154675 253.47486339 267.36445468 257.05380917 264.88059902 C259.41501796 261.38572297 259.62824006 259.47284285 259.63491821 255.27549744 C259.64271817 254.61251209 259.65051812 253.94952675 259.65855443 253.26645094 C259.67844791 251.05198191 259.66272295 248.83923664 259.64697266 246.62475586 C259.65374999 245.03445942 259.66265378 243.44417083 259.67352295 241.85389709 C259.69630761 237.53981667 259.68748412 233.22633442 259.67162752 228.9122436 C259.65896633 224.39774259 259.67070903 219.8832927 259.67855835 215.36878967 C259.68765335 207.78865361 259.67566999 200.20876118 259.65185547 192.62866211 C259.62463458 183.8630564 259.63346579 175.09803198 259.6609875 166.33244032 C259.68367017 158.80702324 259.6868831 151.28178125 259.67379415 143.75634104 C259.66599623 139.26140821 259.6649675 134.76674873 259.68147659 130.27183342 C259.69591032 126.04694433 259.68592046 121.82280561 259.65700531 117.59799767 C259.65038894 116.04679359 259.65230168 114.49552645 259.66331863 112.94434738 C259.67696569 110.82788299 259.65987511 108.71382922 259.63491821 106.59751892 C259.63303308 105.41305648 259.63114796 104.22859404 259.6292057 103.00823879 C259.25212335 99.80757203 259.25212335 99.80757203 256.58531761 97.65015507 C254.14306965 96.02809556 254.14306965 96.02809556 252 95 C251.83763255 92.41414795 251.71904514 89.83848046 251.625 87.25 C251.57472656 86.52039063 251.52445313 85.79078125 251.47265625 85.0390625 C251.4140625 82.890625 251.4140625 82.890625 252 79 C254.9609375 76.609375 254.9609375 76.609375 258 75 C259.15630852 72.68738297 259.15040238 71.29687898 259.19287109 68.72143555 C259.20893402 67.83679123 259.22499695 66.95214691 259.24154663 66.04069519 C259.28599715 61.99303948 259.32706141 57.94554778 259.35009766 53.89770508 C259.36665841 51.76282857 259.39394988 49.62800754 259.43212891 47.4934082 C259.48689333 44.4158857 259.50877113 41.33966289 259.5234375 38.26171875 C259.55744156 36.83335945 259.55744156 36.83335945 259.59213257 35.37614441 C259.58928253 34.48204361 259.5864325 33.58794281 259.58349609 32.66674805 C259.59562637 31.493321 259.59562637 31.493321 259.60800171 30.29618835 C258.64931297 26.67559013 256.93212832 25.29902347 254 23 C250.83534564 22.2682687 247.74085263 22.32910692 244.50413513 22.37181091 C243.54305047 22.36471653 242.5819658 22.35762214 241.59175736 22.35031277 C238.36862713 22.33269886 235.14669735 22.35085545 231.92358398 22.36889648 C229.61408946 22.36375903 227.30459884 22.35647906 224.99511719 22.34721375 C218.72040426 22.32867079 212.44611524 22.34165656 206.17141986 22.36130404 C199.61094321 22.37766578 193.05049394 22.36888119 186.49000549 22.36378479 C175.47316978 22.35834294 164.4564942 22.37504562 153.43969727 22.40307617 C142.10303704 22.43192019 130.76661851 22.43899399 119.42993164 22.42358398 C105.76909254 22.40504018 92.10842818 22.40675403 78.44758797 22.42579842 C73.22874023 22.43268028 68.00998229 22.43162481 62.79113579 22.42425346 C56.64905525 22.41660687 50.50732396 22.42866395 44.36530304 22.45610237 C42.10779673 22.46300401 39.85025791 22.46306525 37.59275246 22.45588684 C34.51773559 22.44723375 31.44380684 22.46307843 28.36888123 22.4853363 C27.46957034 22.47709554 26.57025946 22.46885477 25.64369673 22.46036428 C22.00444559 22.50918803 19.64610878 22.63401011 16.44619083 24.4466114 Z " fill="#BCDEF3" transform="translate(120,115)"/>
<path d="M0 0 C1.43928701 -0.01041829 1.43928701 -0.01041829 2.90765053 -0.02104706 C6.13138172 -0.03938204 9.35438241 -0.02903446 12.57814026 -0.01878357 C14.8858648 -0.02583874 17.1935847 -0.03458205 19.501297 -0.04489136 C25.77606461 -0.06744012 32.05058065 -0.06443271 38.32537341 -0.05556989 C43.55922164 -0.05046866 48.79302222 -0.05774553 54.02686554 -0.06504196 C67.07792617 -0.08303203 80.12884611 -0.07661251 93.17990167 -0.05887216 C104.51542342 -0.04417633 115.8506801 -0.05880091 127.18616771 -0.08764232 C138.82434878 -0.11703344 150.46239665 -0.12750106 162.10061318 -0.11846012 C168.63504862 -0.11352341 175.16927797 -0.11578693 181.70368767 -0.13624763 C187.84743683 -0.15456321 193.99069227 -0.14869599 200.13441467 -0.12404823 C202.39150812 -0.11902734 204.64863892 -0.12256301 206.90570259 -0.13519669 C209.98279216 -0.15106004 213.05824261 -0.1362388 216.13525391 -0.11352539 C217.03233407 -0.12536112 217.92941423 -0.13719685 218.85367864 -0.14939123 C223.30190062 -0.08250237 225.07431751 0.07761636 228.68492794 2.91167545 C230.73050006 5.64758402 231.26084587 6.78161571 231.27809143 10.13380432 C231.29385223 11.01822205 231.30961304 11.90263977 231.32585144 12.81385803 C231.31573029 13.7566864 231.30560913 14.69951477 231.29518127 15.6709137 C231.2999649 16.65080261 231.30474854 17.63069153 231.30967712 18.64027405 C231.31307318 20.70795806 231.30389141 22.77569598 231.28297424 24.84327698 C231.25620492 28.00449072 231.28273249 31.16215388 231.31471252 34.32325745 C231.31140837 36.33498402 231.30500204 38.34670838 231.29518127 40.3584137 C231.30530243 41.30124207 231.31542358 42.24407043 231.32585144 43.21546936 C231.24431573 47.79084695 231.12026171 49.87033246 228.28102112 53.61036682 C225.63111877 55.5146637 225.63111877 55.5146637 222.56861877 56.1396637 C219.63111877 55.5146637 219.63111877 55.5146637 215.63111877 50.5146637 C215.63111877 38.9646637 215.63111877 27.4146637 215.63111877 15.5146637 C145.01111877 15.5146637 74.39111877 15.5146637 1.63111877 15.5146637 C1.96111877 71.2846637 2.29111877 127.0546637 2.63111877 184.5146637 C8.90111877 178.2446637 15.17111877 171.9746637 21.63111877 165.5146637 C24.96893705 163.28945151 26.38663462 163.13549291 30.31861877 163.0146637 C31.31248596 162.9631012 32.30635315 162.9115387 33.33033752 162.8584137 C40.7174962 164.32710323 46.40834623 171.00388438 51.53736877 176.2256012 C52.14753845 176.83860077 52.75770813 177.45160034 53.3863678 178.08317566 C55.30609534 180.01396694 57.21869319 181.95164252 59.13111877 183.8896637 C60.44315053 185.21174313 61.75564663 186.53336192 63.06861877 187.85450745 C66.26150262 191.06926812 69.44801876 194.29021646 72.63111877 197.5146637 C75.94294456 196.07608217 78.06405264 194.29471884 80.56471252 191.70606995 C81.29625549 190.95905823 82.02779846 190.21204651 82.7815094 189.44239807 C84.30240941 187.86954588 85.82324309 186.29662954 87.3440094 184.72364807 C88.07684143 183.97534729 88.80967346 183.22704651 89.56471252 182.45606995 C90.22527649 181.77230286 90.88584045 181.08853577 91.56642151 180.38404846 C95.31929091 176.98618622 98.46228525 175.09126243 103.56861877 175.1396637 C104.38201721 175.13192932 105.19541565 175.12419495 106.03346252 175.1162262 C112.62253397 176.12688076 116.60544044 180.08960085 121.00611877 184.7021637 C121.55139221 185.26097229 122.09666565 185.81978088 122.65846252 186.39552307 C123.98968646 187.76177922 125.31140188 189.13728926 126.63111877 190.5146637 C129.91878523 188.9706895 132.85797532 187.0853947 135.88111877 185.0771637 C146.53704577 178.24316252 157.16876384 176.10664619 169.72877502 177.9756012 C181.98504501 180.66407332 192.0837824 187.38041485 199.19752502 197.8115387 C200.46444408 200.00501049 201.56764407 202.21672424 202.63111877 204.5146637 C203.22924377 205.6696637 203.82736877 206.8246637 204.44361877 208.0146637 C206.86748586 214.65987234 205.84453642 222.55882938 205.63111877 229.5146637 C208.93111877 229.5146637 212.23111877 229.5146637 215.63111877 229.5146637 C215.6274316 228.73498356 215.62374443 227.95530342 215.61994553 227.15199661 C215.53165066 208.19033639 215.46543655 189.22871714 215.42387009 170.26689529 C215.40323512 161.09713107 215.37509675 151.92750397 215.32936096 142.75782776 C215.28952171 134.76655988 215.26369276 126.77539129 215.2547648 118.78402686 C215.24954508 114.55168095 215.2372577 110.31961915 215.20819855 106.0873642 C215.18107529 102.10484144 215.17266741 98.12272018 215.17868805 94.14011383 C215.17758641 92.67756978 215.16961381 91.21501248 215.15429688 89.75254822 C215.13442155 87.75719383 215.14155836 85.76162466 215.15010071 83.76618958 C215.14641354 82.64897648 215.14272636 81.53176338 215.13892746 80.38069534 C215.74653903 76.84257119 216.80628379 75.66658415 219.63111877 73.5146637 C223.36757261 72.87867155 225.03971638 73.15360637 228.28284264 75.13356876 C231.34888414 78.24246033 231.25916473 79.79421034 231.26603699 84.11218262 C231.27383694 84.77360797 231.28163689 85.43503332 231.28967321 86.11650187 C231.30960941 88.33173984 231.29382482 90.54526278 231.27809143 92.76051331 C231.284867 94.34903974 231.29376979 95.93755833 231.30464172 97.52606201 C231.32745115 101.84026846 231.31859171 106.15387759 231.3027463 110.46809459 C231.2900935 114.98213364 231.30182588 119.49612131 231.30967712 124.01016235 C231.31877645 131.59207853 231.3067794 139.17375127 231.28297424 146.75563049 C231.25577214 155.52062756 231.26456918 164.28504295 231.29210627 173.05002588 C231.31480005 180.57458916 231.31799584 188.09897737 231.30491292 195.62356383 C231.2971186 200.11798451 231.29607602 204.61213185 231.31259537 209.10653496 C231.32704454 213.33305502 231.31701086 217.55882581 231.28812408 221.78526497 C231.28151514 223.33604819 231.28340778 224.88689451 231.29443741 226.43765259 C231.30811428 228.55600514 231.29095739 230.67196115 231.26603699 232.79016113 C231.26415186 233.9750006 231.26226673 235.15984007 231.26032448 236.38058376 C230.40423343 240.6447819 229.20110007 242.03702956 225.63111877 244.5146637 C222.45903306 245.22260315 219.37498412 245.18986224 216.13525391 245.14958191 C214.69362691 245.16128184 214.69362691 245.16128184 213.22287613 245.17321813 C209.99976271 245.19317512 206.77782512 245.17735855 203.55470276 245.16163635 C201.24520681 245.16841074 198.93571625 245.17731287 196.62623596 245.18818665 C190.3515358 245.21100611 184.07724609 245.20213272 177.80253863 245.18629122 C171.24205578 245.17364763 164.68160847 245.18536791 158.12112427 245.19322205 C146.39830972 245.20390567 134.67566814 245.18735213 122.95288355 245.16192536 C112.32217989 245.13958135 101.69174917 245.14347113 91.06105042 245.16651917 C78.71627245 245.19327089 66.37166854 245.20324045 54.02686554 245.18845785 C47.49192852 245.18065311 40.95717958 245.17965016 34.42225456 245.19614029 C28.28011937 245.21055631 22.13850102 245.20061516 15.99642181 245.17166901 C13.7389137 245.16504322 11.48136227 245.16698116 9.22387123 245.17798233 C6.14865519 245.19158973 3.07510881 245.1745794 0 245.14958191 C-0.89931089 245.16073552 -1.79862177 245.17188913 -2.7251845 245.18338072 C-6.68829798 245.12062986 -8.71079857 245.01617119 -11.92269039 242.56847286 C-13.94068811 238.30722338 -13.92319604 234.68172886 -13.8768158 230.01879883 C-13.88617574 228.57717183 -13.88617574 228.57717183 -13.89572477 227.10642105 C-13.91168967 223.88344763 -13.89903655 220.66122682 -13.88645935 217.43824768 C-13.89187886 215.12875425 -13.89900055 212.81926429 -13.90769958 210.50978088 C-13.92595502 204.2351291 -13.91885634 197.96074001 -13.90618324 191.68608356 C-13.89606838 185.12560481 -13.9054446 178.56514881 -13.91172791 172.00466919 C-13.92027479 160.28187899 -13.90703195 148.55919949 -13.88669056 136.83642847 C-13.86881541 126.20575815 -13.87192723 115.57526252 -13.8903656 104.94459534 C-13.91176695 92.59983526 -13.9197426 80.25518657 -13.90791655 67.91041046 C-13.90167278 61.37549745 -13.90087043 54.84070481 -13.9140625 48.30579948 C-13.92559518 42.16373303 -13.91764221 36.02199736 -13.89448547 29.87996674 C-13.88918484 27.62245547 -13.89073516 25.36491649 -13.89953613 23.10741615 C-13.9104213 20.0324133 -13.89681265 16.95847916 -13.8768158 13.88354492 C-13.88573868 12.98423404 -13.89466157 12.08492315 -13.90385485 11.15836042 C-13.85775153 7.51871517 -13.73534565 5.16169177 -11.92269039 1.9612751 C-8.01497175 -0.25226161 -4.42108429 -0.04051227 0 0 Z " fill="#000101" transform="translate(148.36888122558594,137.48533630371094)"/>
<path d="M0 0 C1.02671922 -0.0055344 2.05343844 -0.01106879 3.11127037 -0.0167709 C6.544475 -0.03036148 9.9769507 -0.01541623 13.41014099 -0.00050354 C15.87431649 -0.00428725 18.33848987 -0.00978772 20.80265808 -0.01687622 C26.79628807 -0.0293908 32.78963333 -0.02326629 38.78323574 -0.00820064 C45.76553469 0.00868064 52.74778137 0.00544658 59.73009443 0.00170528 C72.18907833 -0.00416987 84.64796108 0.00998527 97.10691833 0.03465271 C109.19224335 0.05857765 121.27743326 0.06565453 133.36277771 0.05516052 C146.52939024 0.04374807 159.69594033 0.04182489 172.86255211 0.05625862 C174.26679638 0.05778443 175.67104067 0.05930479 177.07528496 0.06081963 C178.11160869 0.06195635 178.11160869 0.06195635 179.16886826 0.06311603 C184.03427573 0.06785593 188.89965529 0.06600955 193.76506233 0.06175423 C200.3142056 0.05630973 206.86318898 0.06708137 213.41230774 0.08870888 C215.81733506 0.09427831 218.22238037 0.09474063 220.62740898 0.08975601 C223.90725069 0.08381022 227.18651861 0.09629545 230.46630859 0.11352539 C231.42068473 0.10751535 232.37506086 0.1015053 233.35835749 0.09531313 C239.26676892 0.15185373 243.80408606 0.82621368 248.31419373 5.03636169 C258.54301705 18.41251528 252.66966248 17.80584716 252.66966248 45.50120544 C162.24966248 45.50120544 71.82966248 45.50120544 -21.33033752 45.50120544 C-21.33033752 11.50120544 -21.33033752 11.50120544 -17.33033752 4.50120544 C-11.69977269 0.13697287 -6.96661295 -0.07027746 0 0 Z " fill="#E2F3FE" transform="translate(141.33033752441406,7.4987945556640625)"/>
<path d="M0 0 C90.42 0 180.84 0 274 0 C274 34.78625954 274 34.78625954 269.46484375 39.64453125 C264.67717376 43.30569065 262.60271949 44.12518694 256.59156799 44.13803101 C255.59375121 44.14226293 255.59375121 44.14226293 254.57577652 44.14658034 C252.3363947 44.15494433 250.0970622 44.15626611 247.85766602 44.15771484 C246.25634623 44.16238167 244.65502778 44.16752501 243.05371094 44.17311096 C239.60024197 44.18440218 236.14678169 44.19283133 232.69330025 44.19923019 C227.23568106 44.20989319 221.77812424 44.23013263 216.32054138 44.25234985 C200.79957936 44.31433405 185.27862095 44.36832344 169.75756836 44.40136719 C161.18941742 44.41968879 152.6213708 44.4485923 144.05329651 44.4893719 C139.5165027 44.51048094 134.97984058 44.52590467 130.44299507 44.52817917 C126.17726798 44.53032025 121.9118152 44.54613392 117.64617157 44.57256889 C116.07842711 44.57978366 114.51064948 44.58185236 112.94289207 44.57846642 C110.80673889 44.57458899 108.67146936 44.58896841 106.53541565 44.60800171 C104.7404331 44.61296693 104.7404331 44.61296693 102.90918827 44.61803246 C100.03174299 44.77082353 100.03174299 44.77082353 98.15403652 46.27449989 C96.70188173 48.2355605 96.70188173 48.2355605 96 52 C90.06 52 84.12 52 78 52 C77.01 49.525 77.01 49.525 76 47 C72.5244604 44.6829736 71.18012417 44.74943735 67.07910156 44.74462891 C65.86063538 44.73766998 64.64216919 44.73071106 63.38677979 44.72354126 C62.06804871 44.72453827 60.74931763 44.72553528 59.390625 44.7265625 C58.02161719 44.71800111 56.65261769 44.70800055 55.28363037 44.69662476 C49.47330836 44.65041335 43.66303852 44.62576771 37.85253906 44.61914062 C34.29565306 44.6141061 30.73931089 44.58975532 27.18260956 44.55381393 C25.17812745 44.53933342 23.17352591 44.54663513 21.16900635 44.55435181 C9.14223958 44.4247789 9.14223958 44.4247789 4 40 C0 32 0 32 0 0 Z " fill="#E2F3FE" transform="translate(120,446)"/>
<path d="M0 0 C90.42 0 180.84 0 274 0 C274 10.89 274 21.78 274 33 C183.58 33 93.16 33 0 33 C0 22.11 0 11.22 0 0 Z " fill="#42A2F7" transform="translate(120,67)"/>
<path d="M0 0 C9.9 0 19.8 0 30 0 C30.00586624 2.52178894 30.01173248 5.04357788 30.01777649 7.64178467 C30.07437554 31.36303243 30.14742018 55.08418852 30.23571491 78.80533981 C30.28071463 91.00172818 30.32011964 103.19808708 30.34643555 115.39453125 C30.36938182 126.0227394 30.402742 136.6508546 30.44870156 147.27898908 C30.47267928 152.90850796 30.49137822 158.53793454 30.49761391 164.16750336 C30.5036442 169.46326936 30.52356938 174.75879903 30.55427551 180.05447769 C30.5630888 182.00075009 30.56677155 183.94705333 30.56500816 185.89334488 C30.56336328 188.54593242 30.57998714 191.19779272 30.60127258 193.85028076 C30.59642501 194.62460095 30.59157743 195.39892114 30.58658296 196.19670558 C30.62822618 199.33038206 30.81499543 201.64493487 32.27492046 204.44685745 C34.13537386 206.36596489 34.13537386 206.36596489 38 207 C38 212.94 38 218.88 38 225 C36.35 225.66 34.7 226.32 33 227 C30.0268021 229.9731979 30.69183638 233.22539285 30.68115234 237.21337891 C30.67110672 238.0622316 30.6610611 238.91108429 30.65071106 239.78565979 C30.61975093 242.59928695 30.60280845 245.41281843 30.5859375 248.2265625 C30.56723616 250.174274 30.54766353 252.12197731 30.5272522 254.06967163 C30.47581573 259.20214013 30.43625177 264.33463493 30.39910889 269.46722412 C30.35914125 274.70217455 30.30801598 279.93701449 30.2578125 285.171875 C30.16091688 295.44784696 30.07758669 305.72386409 30 316 C20.1 316 10.2 316 0 316 C0 307.75 0 299.5 0 291 C-7.38975617 291.15789349 -7.38975617 291.15789349 -14.77832031 291.36035156 C-15.70225586 291.3703418 -16.62619141 291.38033203 -17.578125 291.390625 C-18.52075195 291.41157227 -19.46337891 291.43251953 -20.43457031 291.45410156 C-23.7547487 290.86640345 -24.91072537 289.58351809 -27 287 C-27.6015625 285 -27.6015625 285 -27.625 283 C-27.67527344 282.01 -27.67527344 282.01 -27.7265625 281 C-26.78665685 278.41273283 -25.32476256 277.18094344 -22.99658203 275.76757812 C-18.86346518 274.17861757 -14.48455182 274.59641145 -10.125 274.75 C-9.15046875 274.76804687 -8.1759375 274.78609375 -7.171875 274.8046875 C-4.78022193 274.85158266 -2.39063403 274.91719093 0 275 C0 272.69 0 270.38 0 268 C-73.26 268 -146.52 268 -222 268 C-222 267.67 -222 267.34 -222 267 C-220.80802128 266.99853344 -219.61604256 266.99706688 -218.38794327 266.99555588 C-190.10455796 266.95986819 -161.82126458 266.90364776 -133.53797461 266.82207905 C-130.05819443 266.81206137 -126.57841379 266.80221728 -123.09863281 266.79248047 C-122.40585943 266.7905391 -121.71308604 266.78859772 -120.99931952 266.78659752 C-109.77613665 266.75556071 -98.55297424 266.73859219 -87.32975653 266.72680578 C-75.81710798 266.71440289 -64.30458283 266.68662295 -52.79199958 266.64538693 C-46.32408772 266.62270946 -39.85632947 266.60709308 -33.38837433 266.60811615 C-27.30462862 266.60885905 -21.2212233 266.59105752 -15.13756561 266.55883217 C-12.90103201 266.55029062 -10.66446042 266.54861186 -8.42791748 266.55419731 C-5.38108771 266.56079468 -2.33535453 266.54301871 0.71136475 266.51898193 C1.60241338 266.52674235 2.49346202 266.53450277 3.41151214 266.54249835 C7.14604429 266.49011413 9.35094009 266.41234817 12.54879379 264.3807497 C14.47355828 261.22311265 14.50324079 259.08359727 14.50793457 255.38902283 C14.51417453 254.72618634 14.5204145 254.06334986 14.52684355 253.38042742 C14.54279094 251.16072648 14.5301638 248.94212107 14.51757812 246.72241211 C14.52299847 245.13064432 14.53012063 243.53888155 14.53881836 241.9471283 C14.55706383 237.62486256 14.54997965 233.30297844 14.53730202 228.98070598 C14.5271824 224.46039846 14.53656464 219.94012385 14.54284668 215.41981506 C14.55012538 207.82954026 14.5405288 200.2394211 14.52148438 192.64916992 C14.49970733 183.86829984 14.50677207 175.08780113 14.52879 166.30694002 C14.54692835 158.77223525 14.54951024 151.23764242 14.53903532 143.70292288 C14.53279276 139.20077617 14.53198577 134.69880417 14.54518127 130.19666862 C14.55671675 125.96532954 14.54875666 121.73447047 14.52560425 117.50318336 C14.5203051 115.94833041 14.52185151 114.39343722 14.53065491 112.83860016 C14.54154726 110.71984848 14.52792668 108.60264582 14.50793457 106.48399353 C14.50642647 105.29731048 14.50491837 104.11062742 14.50336456 102.88798428 C14.27817217 99.91845796 14.27817217 99.91845796 12.15575409 98.2197504 C11.44435524 97.81723277 10.73295639 97.41471514 10 97 C9.01 96.34 8.02 95.68 7 95 C6.7791436 92.04935852 6.71939011 89.31631769 6.8125 86.375 C6.82603516 85.57320313 6.83957031 84.77140625 6.85351562 83.9453125 C6.88890949 81.96325622 6.94271766 79.98154449 7 78 C7.969375 77.54625 8.93875 77.0925 9.9375 76.625 C13.07079582 75.34213779 13.07079582 75.34213779 14 73 C14.10938561 71.57148863 14.15898897 70.13814642 14.17700195 68.70556641 C14.18983719 67.8176944 14.20267242 66.92982239 14.21589661 66.01504517 C14.22328354 65.05359589 14.23067047 64.09214661 14.23828125 63.1015625 C14.25038887 61.62180435 14.25038887 61.62180435 14.26274109 60.1121521 C14.27658538 58.02237712 14.28730598 55.93257949 14.29516602 53.84277344 C14.31239362 50.64474784 14.3562786 47.44775195 14.40039062 44.25 C14.41051609 42.22136178 14.41903265 40.19271476 14.42578125 38.1640625 C14.45204338 36.72796127 14.45204338 36.72796127 14.47883606 35.2628479 C14.46641021 31.46498519 14.43257364 28.79401864 12.59838867 25.42724609 C9.02355349 23.2427706 9.02355349 23.2427706 0 23 C0 15.41 0 7.82 0 0 Z " fill="#ABC7DF" transform="translate(364,115)"/>
<path d="M0 0 C3.07553416 1.37005694 5.16714739 2.92593068 7.52758789 5.31640625 C8.19830826 5.99050537 8.86902863 6.66460449 9.56007385 7.35913086 C10.27372604 8.08624268 10.98737823 8.81335449 11.72265625 9.5625 C12.46454697 10.30959229 13.20643768 11.05668457 13.97080994 11.82641602 C16.33950269 14.21291404 18.70140407 16.6059876 21.0625 19 C23.42801863 21.39313916 25.79497702 23.78480789 28.16490173 26.17358398 C29.63899908 27.65993333 31.11041498 29.14894778 32.57887268 30.64086914 C33.24644089 31.31496826 33.91400909 31.98906738 34.60180664 32.68359375 C35.18708633 33.27712646 35.77236603 33.87065918 36.37538147 34.48217773 C38.84973482 36.79387647 40.52365666 37.94452226 43.91796875 38.33984375 C47.6185902 37.93179043 48.66225784 37.12553127 51.3125 34.5625 C52.15167969 33.76070313 52.99085938 32.95890625 53.85546875 32.1328125 C54.90538861 31.09029389 55.95332069 30.04577205 57 29 C57.69818848 28.30874023 58.39637695 27.61748047 59.11572266 26.90527344 C64.10456371 21.96388489 69.062866 16.99302284 74 12 C77.17529576 13.40365113 79.31261668 15.06416941 81.75878906 17.51586914 C82.47923401 18.23323746 83.19967896 18.95060577 83.94195557 19.68971252 C84.70876648 20.46370895 85.47557739 21.23770538 86.265625 22.03515625 C87.05902283 22.8290123 87.85242065 23.62286835 88.66986084 24.44078064 C90.34315258 26.11709064 92.01401601 27.79582759 93.68261719 29.47680664 C96.24880856 32.06130006 98.82295768 34.63765647 101.3984375 37.21289062 C103.02130706 38.84067367 104.64371897 40.46891315 106.265625 42.09765625 C107.04053284 42.87367691 107.81544067 43.64969757 108.61383057 44.44923401 C109.67558502 45.52055824 109.67558502 45.52055824 110.75878906 46.61352539 C111.38626038 47.2448085 112.01373169 47.87609161 112.66021729 48.52650452 C114 50 114 50 114 51 C67.14 51 20.28 51 -28 51 C-28 25.94741587 -28 25.94741587 -19.83105469 17.52038574 C-19.24227539 17.02703735 -18.65349609 16.53368896 -18.046875 16.02539062 C-17.38365234 15.45667236 -16.72042969 14.8879541 -16.03710938 14.30200195 C-15.36486328 13.72796631 -14.69261719 13.15393066 -14 12.5625 C-12.64582467 11.3240398 -11.29681228 10.0799097 -9.953125 8.83007812 C-6.69108736 5.81821637 -3.36946344 2.89099195 0 0 Z " fill="#11957D" transform="translate(178,316)"/>
<path d="M0 0 C4.37487331 -0.08738991 8.74952078 -0.140524 13.125 -0.1875 C14.3625 -0.21263672 15.6 -0.23777344 16.875 -0.26367188 C18.67324219 -0.27817383 18.67324219 -0.27817383 20.5078125 -0.29296875 C21.60754395 -0.3086792 22.70727539 -0.32438965 23.84033203 -0.34057617 C28.11899056 0.12061442 31.48591134 1.58661082 34.64453125 4.53515625 C44.87335458 17.91130983 39 17.30464172 39 45 C-51.42 45 -141.84 45 -235 45 C-235 44.67 -235 44.34 -235 44 C-154.48 44 -73.96 44 9 44 C9.99538463 16.48275054 9.99538463 16.48275054 5 6 C4.67 5.01 4.34 4.02 4 3 C1.99983534 1.79117904 1.99983534 1.79117904 0 1 C0 0.67 0 0.34 0 0 Z " fill="#B0CDE0" transform="translate(355,8)"/>
<path d="M0 0 C90.42 0 180.84 0 274 0 C274 34.78625954 274 34.78625954 269.46484375 39.64453125 C264.96662681 43.0843442 262.96192567 44.12607033 257.3359375 44.09765625 C256.21445312 44.09443359 255.09296875 44.09121094 253.9375 44.08789062 C252.761875 44.07951172 251.58625 44.07113281 250.375 44.0625 C249.19164062 44.05798828 248.00828125 44.05347656 246.7890625 44.04882812 C243.85935361 44.03701478 240.92967059 44.0190789 238 44 C239.65 40.7 241.3 37.4 243 34 C243.33 23.11 243.66 12.22 244 1 C163.48 1 82.96 1 0 1 C0 0.67 0 0.34 0 0 Z " fill="#BAD8EB" transform="translate(120,446)"/>
<path d="M0 0 C6.84152779 3.83704733 13.47271099 9.77669367 16.30078125 17.32421875 C17.27646774 22.97137392 16.88586695 28.85394001 16.6875 34.5625 C7.86580108 36.40626344 -3.10066325 38.33434392 -11.20727539 33.4119873 C-20.44247592 26.5593133 -28.01877794 17.38063343 -35.3125 8.5625 C-29.8961206 1.90069976 -29.8961206 1.90069976 -26.1875 0.25 C-25.52492188 -0.05550781 -24.86234375 -0.36101562 -24.1796875 -0.67578125 C-16.20239649 -3.93011545 -7.79947851 -3.59212624 0 0 Z " fill="#FAB458" transform="translate(322.3125,332.4375)"/>
<path d="M0 0 C90.42 0 180.84 0 274 0 C274 10.89 274 21.78 274 33 C264.1 33 254.2 33 244 33 C244 22.44 244 11.88 244 1 C163.48 1 82.96 1 0 1 C0 0.67 0 0.34 0 0 Z " fill="#1777DB" transform="translate(120,67)"/>
<path d="M0 0 C0.69495575 -0.00700928 1.3899115 -0.01401855 2.10592651 -0.02124023 C4.39264426 -0.03877966 6.67811443 -0.02721326 8.96484375 -0.01367188 C10.55997962 -0.01636799 12.15511388 -0.02025141 13.75024414 -0.02526855 C17.08918952 -0.03115806 20.42770612 -0.02261874 23.76660156 -0.00390625 C28.04069652 0.0188835 32.31378673 0.0057574 36.58784485 -0.01819611 C39.88048842 -0.0326692 43.17289484 -0.02804128 46.46554565 -0.01768494 C48.04116943 -0.0150218 49.61681493 -0.01827289 51.19241333 -0.02760315 C53.39708252 -0.03779434 55.60013813 -0.02223494 57.8046875 0 C59.05757568 0.00318237 60.31046387 0.00636475 61.60131836 0.00964355 C65.48261888 0.60686608 67.15066902 1.76702535 69.90234375 4.51757812 C70.82720341 7.51044695 70.36095318 9.30731213 69.90234375 12.51757812 C67.54464041 15.08324448 66.08080151 15.49625821 62.60095215 15.9119873 C61.28953247 15.92040649 59.97811279 15.92882568 58.62695312 15.9375 C57.9012764 15.94596954 57.17559967 15.95443909 56.42793274 15.96316528 C54.03380724 15.98652785 51.64032452 15.9875578 49.24609375 15.98632812 C47.57987206 15.99342933 45.91365282 16.00112827 44.24743652 16.00939941 C40.75717365 16.02284186 37.26713698 16.02441373 33.77685547 16.01855469 C29.30413178 16.01265359 24.8324917 16.04326711 20.35997772 16.08367157 C16.91984205 16.10951798 13.47996853 16.11242891 10.03974915 16.10877991 C8.39070407 16.11047352 6.74164719 16.12013935 5.09269714 16.13792419 C2.78697052 16.16005933 0.48345336 16.15044357 -1.82226562 16.1328125 C-3.1336853 16.13486694 -4.44510498 16.13692139 -5.79626465 16.13903809 C-9.09765625 15.51757812 -9.09765625 15.51757812 -11.54846191 13.17053223 C-13.09765625 10.51757812 -13.09765625 10.51757812 -13.16015625 7.45507812 C-10.83659696 1.03112008 -6.36035369 0.01615549 0 0 Z " fill="#010607" transform="translate(228.09765625,209.482421875)"/>
<path d="M0 0 C0.98367554 -0.0038269 1.96735107 -0.00765381 2.98083496 -0.01159668 C5.05868555 -0.01431627 7.13657035 -0.00695182 9.21435547 0.00976562 C12.39498211 0.03117416 15.57334987 0.00996512 18.75390625 -0.015625 C20.77344249 -0.01298173 22.79297732 -0.00785678 24.8125 0 C25.76362671 -0.00809692 26.71475342 -0.01619385 27.69470215 -0.02453613 C34.25707744 0.06867181 34.25707744 0.06867181 37.50195312 2.38085938 C39.46182302 5.38199534 39.55234567 7.01361804 38.90625 10.53125 C36.88586783 13.30850786 35.27427626 15.22252865 31.82666016 16.00054932 C29.26757685 16.19354132 26.75375009 16.22420135 24.1875 16.1953125 C23.25200317 16.20009613 22.31650635 16.20487976 21.35266113 16.20980835 C19.37913324 16.2132036 17.40554882 16.20402739 15.43212891 16.18310547 C12.41571344 16.15633399 9.40301883 16.18286536 6.38671875 16.21484375 C4.46613764 16.21153958 2.54555884 16.20513321 0.625 16.1953125 C-0.72362122 16.21049423 -0.72362122 16.21049423 -2.0994873 16.22598267 C-6.57396327 16.14246381 -8.51078161 15.97718561 -12.16601562 13.18115234 C-14.09375 10.53125 -14.09375 10.53125 -14.65625 7.46875 C-13.1022132 -0.64677552 -6.85758387 -0.05837848 0 0 Z " fill="#050506" transform="translate(226.09375,22.46875)"/>
<path d="M0 0 C0.73951904 -0.00524185 1.47903809 -0.0104837 2.2409668 -0.0158844 C3.80093126 -0.02229372 5.36094413 -0.02098167 6.92089844 -0.01245117 C9.30491231 -0.00393336 11.68653477 -0.03272517 14.0703125 -0.06445312 C15.58854095 -0.06606515 17.10677363 -0.06548758 18.625 -0.0625 C19.33551514 -0.07373398 20.04603027 -0.08496796 20.77807617 -0.09654236 C24.18094661 -0.04871837 26.01004385 0.20509079 28.7578125 2.28100586 C30.3125 4.43359375 30.3125 4.43359375 30.875 7.37109375 C30.11063942 11.53261245 28.59453738 12.81052773 25.3125 15.43359375 C22.57488505 15.92255489 20.47139983 16.11536574 17.74609375 16.0625 C17.0301857 16.06491196 16.31427765 16.06732391 15.57667542 16.06980896 C14.06969641 16.06883321 12.56268036 16.05550417 11.0559082 16.03051758 C8.75282943 15.99613599 6.45357664 16.00988455 4.15039062 16.02929688 C2.68227539 16.02239952 1.21417001 16.01272812 -0.25390625 16 C-1.2821627 16.0074398 -1.2821627 16.0074398 -2.33119202 16.01502991 C-5.71036653 15.93196554 -7.42764177 15.6375351 -10.11889648 13.52539062 C-12.76893856 9.99145124 -12.23679125 7.75926231 -11.6875 3.43359375 C-8.40303797 -0.20713313 -4.59887644 -0.0190012 0 0 Z " fill="#030404" transform="translate(348.6875,390.56640625)"/>
<path d="M0 0 C2.07519483 0.01388335 4.14588762 -0.02024577 6.22070312 -0.05834961 C7.53554687 -0.05641602 8.85039062 -0.05448242 10.20507812 -0.05249023 C11.40390625 -0.05321533 12.60273438 -0.05394043 13.83789062 -0.0546875 C18.0033701 0.75613814 19.5153944 2.25373784 22.08007812 5.57641602 C22.14257812 9.20141602 22.14257812 9.20141602 21.08007812 12.57641602 C18.69315036 15.04357664 17.27858024 15.55065986 13.84375 15.99633789 C6.79329821 16.08705395 6.79329821 16.08705395 3.75341797 16.07739258 C1.58621939 16.07641878 -0.57745182 16.11808519 -2.74414062 16.16235352 C-4.12564368 16.16756008 -5.50715901 16.17024872 -6.88867188 16.17016602 C-8.14099609 16.17725586 -9.39332031 16.1843457 -10.68359375 16.19165039 C-13.91992188 15.57641602 -13.91992188 15.57641602 -16.32421875 13.23071289 C-18.2853195 9.96861263 -18.63605829 8.31623952 -17.91992188 4.57641602 C-12.63822047 -0.81246277 -7.13956784 -0.06682771 0 0 Z " fill="#010305" transform="translate(152.919921875,75.423583984375)"/>
<path d="M0 0 C1.27294922 -0.00515625 2.54589844 -0.0103125 3.85742188 -0.015625 C4.51782471 -0.00724609 5.17822754 0.00113281 5.85864258 0.00976562 C7.86988473 0.03115406 9.87754149 0.00997255 11.88867188 -0.015625 C13.16291016 -0.01046875 14.43714844 -0.0053125 15.75 0 C17.49494751 0.00676758 17.49494751 0.00676758 19.27514648 0.01367188 C23.07813458 0.6353339 24.75590495 1.80834273 27.44140625 4.53125 C28.06640625 7.46875 28.06640625 7.46875 27.44140625 10.53125 C24.86523568 13.75272357 23.37216864 15.34572908 19.27514648 16.16235352 C18.11184814 16.16162842 16.9485498 16.16090332 15.75 16.16015625 C13.83864258 16.16305664 13.83864258 16.16305664 11.88867188 16.16601562 C11.23036377 16.15352783 10.57205566 16.14104004 9.89379883 16.12817383 C7.88025632 16.09377307 5.87108768 16.10754607 3.85742188 16.12695312 C-5.87538823 16.05303305 -5.87538823 16.05303305 -8.93725586 13.71459961 C-11.30333995 10.52834904 -11.11063288 8.39552391 -10.55859375 4.53125 C-7.46607772 0.36257006 -5.06103052 0.01964767 0 0 Z " fill="#000203" transform="translate(248.55859375,190.46875)"/>
<path d="M0 0 C3.21857323 2.15199906 5.8128298 4.78982893 8.5 7.5625 C9.23992187 8.26697266 9.97984375 8.97144531 10.7421875 9.69726562 C15.9898886 14.98886014 15.9898886 14.98886014 16.0390625 19.90625 C14.46075476 24.6055723 14.46075476 24.6055723 12 26 C8.41896495 26.70216374 6.11128788 26.74013083 3.01171875 24.67578125 C0.91345559 22.86271891 -1.04884379 20.97024775 -3 19 C-3.66902344 18.35546875 -4.33804688 17.7109375 -5.02734375 17.046875 C-10.85011994 11.37889654 -10.85011994 11.37889654 -11.3125 7.125 C-11 4 -11 4 -9.4375 1.625 C-5.93527403 -0.70981731 -4.17474072 -0.61801298 0 0 Z " fill="#000303" transform="translate(187,331)"/>
<path d="M0 0 C3.17529576 1.40365113 5.31261668 3.06416941 7.75878906 5.51586914 C8.47923401 6.23323746 9.19967896 6.95060577 9.94195557 7.68971252 C10.70876648 8.46370895 11.47557739 9.23770538 12.265625 10.03515625 C13.05902283 10.8290123 13.85242065 11.62286835 14.66986084 12.44078064 C16.34315258 14.11709064 18.01401601 15.79582759 19.68261719 17.47680664 C22.24880856 20.06130006 24.82295768 22.63765647 27.3984375 25.21289062 C29.02130706 26.84067367 30.64371897 28.46891315 32.265625 30.09765625 C33.04053284 30.87367691 33.81544067 31.64969757 34.61383057 32.44923401 C35.32166687 33.16345016 36.02950317 33.87766632 36.75878906 34.61352539 C37.69999603 35.56045006 37.69999603 35.56045006 38.66021729 36.52650452 C40 38 40 38 40 39 C35.35317851 39.55766284 30.92356792 40.08826318 26.73574829 37.71899414 C24.57902707 35.84664806 22.64228587 33.88171125 20.70703125 31.78125 C19.99012619 31.04878052 19.27322113 30.31631104 18.53459167 29.56164551 C16.26660885 27.23243039 14.04000775 24.86788577 11.8125 22.5 C10.2753719 20.9076564 8.73568112 19.31778238 7.19335938 17.73046875 C3.4321098 13.84840208 -0.29595127 9.93663958 -4 6 C-2.84826645 3.53199953 -1.95216435 1.95216435 0 0 Z " fill="#1FC097" transform="translate(252,328)"/>
<path d="M0 0 C7.33677466 0.86314996 11.94193993 5.48381213 16.453125 10.953125 C22.10713898 18.43469906 21.31116544 26.04535001 21 35 C17.7 35 14.4 35 11 35 C10.96261719 34.09378906 10.92523438 33.18757813 10.88671875 32.25390625 C10.29584043 21.30527851 8.73194433 13.86672869 2.3046875 4.9453125 C1 3 1 3 0 0 Z " fill="#FADA90" transform="translate(318,332)"/>
<path d="M0 0 C1.8253125 0.00193359 1.8253125 0.00193359 3.6875 0.00390625 C7.16265717 0.45879121 8.63015146 0.88802969 11 3.4375 C11.65087039 7.99359272 11.89274485 10.16215021 9.25 13.9375 C4.22056358 16.25877835 -0.5632383 16.30107403 -6 15.4375 C-9.25 13.3125 -9.25 13.3125 -11 10.4375 C-11.5625 7.375 -11.5625 7.375 -11 4.4375 C-7.80249736 0.12204412 -5.22328579 -0.08299713 0 0 Z " fill="#050506" transform="translate(206,390.5625)"/>
<path d="M0 0 C1.8253125 -0.01546875 1.8253125 -0.01546875 3.6875 -0.03125 C7.53405389 0.58565015 8.72673707 1.38746396 11 4.5 C11.65373541 8.567687 11.67547804 10.55915558 9.25 13.9375 C4.2347567 16.34867466 -0.54301678 16.36678601 -6 15.5 C-9.25 13.375 -9.25 13.375 -11 10.5 C-11.5625 7.4375 -11.5625 7.4375 -11 4.5 C-7.80873726 0.20076828 -5.21263135 -0.04417484 0 0 Z " fill="#040505" transform="translate(176,390.5)"/>
<path d="M0 0 C1.8253125 -0.01546875 1.8253125 -0.01546875 3.6875 -0.03125 C7.53405389 0.58565015 8.72673707 1.38746396 11 4.5 C11.65373541 8.567687 11.67547804 10.55915558 9.25 13.9375 C4.2347567 16.34867466 -0.54301678 16.36678601 -6 15.5 C-9.25 13.375 -9.25 13.375 -11 10.5 C-11.5625 7.4375 -11.5625 7.4375 -11 4.5 C-7.80873726 0.20076828 -5.21263135 -0.04417484 0 0 Z " fill="#040505" transform="translate(146,390.5)"/>
<path d="M0 0 C1.03125 -0.0103125 2.0625 -0.020625 3.125 -0.03125 C6.65292466 0.62064912 7.83245086 1.68983629 10 4.5 C10.75856436 8.46139166 10.3337936 9.98818314 8.125 13.375 C4.31319292 15.96702882 1.91332651 16.2278056 -2.6171875 15.984375 C-5 15.5 -5 15.5 -8.125 13.375 C-10.3337936 9.98818314 -10.75856436 8.46139166 -10 4.5 C-6.98560372 0.59192388 -4.86757885 -0.04867579 0 0 Z " fill="#080909" transform="translate(292,22.5)"/>
</svg>
