<?xml version="1.0" encoding="UTF-8"?>
<svg version="1.1" xmlns="http://www.w3.org/2000/svg" width="512" height="500">
<path d="M0 0 C1.93754402 -0.01506844 1.93754402 -0.01506844 3.91423035 -0.03044128 C5.33407534 -0.03647079 6.75392096 -0.04235583 8.17376709 -0.04811096 C9.67924715 -0.05765985 11.18472507 -0.06755146 12.69020081 -0.07775879 C17.62968366 -0.10907122 22.56918281 -0.12942554 27.50872803 -0.14796448 C28.77583949 -0.15291046 28.77583949 -0.15291046 30.06854916 -0.15795636 C38.06220034 -0.18877191 46.05585569 -0.21543672 54.0495491 -0.23237514 C64.20832672 -0.25416439 74.36656799 -0.29587695 84.52513146 -0.36581272 C91.70096737 -0.41349617 98.8766611 -0.43736821 106.05265021 -0.44457203 C110.31927807 -0.44946849 114.58530109 -0.46395775 118.85175323 -0.50431633 C138.97930107 -0.68581835 157.02048191 0.4223469 176.49310303 6.16062927 C177.92310763 6.56169315 179.35351779 6.9613163 180.78448486 7.3589325 C183.91046654 8.25091329 186.98025048 9.23332707 190.05560303 10.28562927 C191.15219238 10.65760437 192.24878174 11.02957947 193.37860107 11.41282654 C210.9038136 17.56226596 228.08025374 25.30025529 242.49310303 37.16062927 C243.47150146 37.9366449 244.4498999 38.71266052 245.45794678 39.51219177 C255.84019925 48.25664036 264.33619759 59.95591015 265.76535797 73.79743958 C265.86566519 76.61427002 265.87613368 79.41636602 265.84954834 82.23484802 C265.85159271 83.29313812 265.85363708 84.35142822 265.85574341 85.44178772 C265.85873077 88.91074897 265.84033306 92.37922515 265.82122803 95.84812927 C265.81816626 98.27610659 265.81629332 100.70408568 265.81555176 103.13206482 C265.81096123 108.20903804 265.79658427 113.28585154 265.77435303 118.36277771 C265.74607208 124.85213504 265.73513955 131.34136691 265.73067093 137.83078003 C265.72550082 144.04491238 265.71096854 150.25901365 265.69622803 156.47312927 C265.69434731 157.64934845 265.69246658 158.82556763 265.69052887 160.03742981 C265.68360946 163.38713226 265.66995062 166.73673915 265.65423584 170.08641052 C265.65311798 171.06332855 265.65200012 172.04024658 265.65084839 173.04676819 C265.61767856 178.41916834 265.31032448 183.64301758 264.60853195 188.97183228 C264.48655196 191.28485245 264.89898133 192.93594809 265.49310303 195.16062927 C265.58121754 196.68859352 265.61936038 198.21987882 265.62008667 199.75038147 C265.62290649 200.66698547 265.62572632 201.58358948 265.62863159 202.52796936 C265.62559525 204.02570389 265.62559525 204.02570389 265.62249756 205.55369568 C265.62512604 207.13981659 265.62512604 207.13981659 265.62780762 208.75798035 C265.63221423 212.25940078 265.62929103 215.76077081 265.62591553 219.26219177 C265.62658921 221.69874583 265.62755977 224.13529981 265.6288147 226.57185364 C265.63029031 231.68462258 265.6281426 236.79737407 265.62347412 241.91014099 C265.61779506 248.44674391 265.62104513 254.98330561 265.62704659 261.519907 C265.63067137 266.55580451 265.62950449 271.59169236 265.62691879 276.62759018 C265.62625388 279.03640625 265.62706265 281.44522321 265.62939835 283.85403824 C265.63195432 287.23311409 265.62804214 290.61212465 265.62249756 293.99119568 C265.62452179 294.97753998 265.62654602 295.96388428 265.62863159 296.9801178 C265.61232472 302.37862361 265.3175534 307.62074797 264.60964775 312.97517967 C264.48634383 315.28737791 264.8975781 316.93697951 265.49310303 319.16062927 C265.58704043 320.68395558 265.63203799 322.21072551 265.64027405 323.73692322 C265.651007 325.10749374 265.651007 325.10749374 265.66195679 326.50575256 C265.66464569 327.50110016 265.66733459 328.49644775 265.67010498 329.5219574 C265.67667618 330.57615875 265.68324738 331.63036011 265.6900177 332.71650696 C265.70973978 336.20829848 265.72141318 339.70004693 265.73138428 343.19187927 C265.7354598 344.38681503 265.73953533 345.58175079 265.74373436 346.81289673 C265.76459405 353.14202196 265.7788942 359.47112554 265.78826904 365.80027771 C265.79931135 372.31888804 265.83368686 378.83715495 265.87344074 385.35564423 C265.89966676 390.38304756 265.9079664 395.41036997 265.91155052 400.43783569 C265.91640381 402.83944 265.92798159 405.241041 265.94658852 407.64257812 C266.07117578 424.79371968 265.61280932 437.32378735 254.49310303 451.16062927 C253.89626709 451.92117615 253.29943115 452.68172302 252.68450928 453.46531677 C243.98228104 463.92246422 232.41511043 470.90656368 220.49310303 477.16062927 C219.88466553 477.48386169 219.27622803 477.80709412 218.64935303 478.14012146 C209.59683723 482.8785477 200.22010709 486.49118125 190.55560303 489.78562927 C189.5524707 490.13359558 188.54933838 490.48156189 187.51580811 490.84007263 C183.86721634 492.04336445 180.18667693 493.1066768 176.49310303 494.16062927 C175.67019052 494.40257617 174.847278 494.64452307 173.99942875 494.89380169 C154.8875192 500.37406705 136.73473849 501.06155669 117.04314542 500.9665823 C112.79710969 500.95106246 108.55113947 500.96556868 104.30509949 500.97489929 C97.18231975 500.98572312 90.05991692 500.97167654 82.93719482 500.94285583 C74.78213932 500.91023242 66.62798515 500.92079425 58.47295147 500.95381427 C51.38663689 500.98132391 44.30058854 500.9847487 37.21423763 500.96918225 C33.01896821 500.95997871 28.82411764 500.95815087 24.62887764 500.97840118 C4.40329151 501.06285954 -13.88552535 499.67010176 -33.50689697 494.16062927 C-34.27200246 493.95152263 -35.03710794 493.74241598 -35.82539845 493.52697277 C-39.64085827 492.48055402 -43.39197196 491.32645518 -47.13189697 490.03562927 C-48.22397461 489.66365417 -49.31605225 489.29167908 -50.44122314 488.90843201 C-67.94319473 482.74243598 -85.1068383 475.01047782 -99.50689697 463.16062927 C-100.97449463 461.99660583 -100.97449463 461.99660583 -102.47174072 460.80906677 C-112.28023731 452.54786389 -120.05558624 441.93814052 -122.50689697 429.16062927 C-122.90732882 424.33940198 -122.92720505 419.55850764 -122.88189697 414.72312927 C-122.89349854 413.45791443 -122.9051001 412.19269958 -122.91705322 410.8891449 C-122.91318604 409.6806488 -122.90931885 408.47215271 -122.90533447 407.22703552 C-122.90195068 406.13334656 -122.89856689 405.03965759 -122.89508057 403.91282654 C-122.50689697 401.16062927 -122.50689697 401.16062927 -121.16949463 399.34397888 C-119.50689697 398.16062927 -119.50689697 398.16062927 -116.50689697 397.16062927 C-116.17689697 390.89062927 -115.84689697 384.62062927 -115.50689697 378.16062927 C-117.15689697 377.83062927 -118.80689697 377.50062927 -120.50689697 377.16062927 C-122.72503384 373.83342397 -122.75568901 372.80441233 -122.74981689 368.92991638 C-122.75289352 367.86127853 -122.75597015 366.79264069 -122.75914001 365.69161987 C-122.7519545 364.53541641 -122.74476898 363.37921295 -122.73736572 362.18797302 C-122.7369075 360.99515213 -122.73644928 359.80233124 -122.73597717 358.57336426 C-122.73295258 356.04393014 -122.72506017 353.51449792 -122.71270752 350.98509216 C-122.6945845 347.13793733 -122.692197 343.29102524 -122.69244385 339.4438324 C-122.68752317 336.98354388 -122.68169247 334.52325699 -122.67486572 332.06297302 C-122.6737529 330.92093918 -122.67264008 329.77890533 -122.67149353 328.6022644 C-122.63734143 322.76360364 -122.40058545 317.07516096 -121.62208557 311.28515625 C-121.39958786 309.18597932 -121.39958786 309.18597932 -121.99176121 307.31470585 C-122.54785507 304.98936009 -122.63274675 302.9602654 -122.63388062 300.57087708 C-122.63670044 299.65427307 -122.63952026 298.73766907 -122.64242554 297.79328918 C-122.64040131 296.7947995 -122.63837708 295.79630981 -122.6362915 294.76756287 C-122.63804382 293.71014893 -122.63979614 292.65273499 -122.64160156 291.5632782 C-122.64600818 288.06185776 -122.64308497 284.56048774 -122.63970947 281.05906677 C-122.64038315 278.62251272 -122.64135372 276.18595873 -122.64260864 273.74940491 C-122.64408425 268.63663596 -122.64193654 263.52388447 -122.63726807 258.41111755 C-122.631589 251.87451463 -122.63483907 245.33795293 -122.64084053 238.80135155 C-122.64446531 233.76545403 -122.64329844 228.72956618 -122.64071274 223.69366837 C-122.64004783 221.2848523 -122.64085659 218.87603534 -122.64319229 216.46722031 C-122.64574827 213.08814446 -122.64183608 209.70913389 -122.6362915 206.33006287 C-122.63831573 205.34371857 -122.64033997 204.35737427 -122.64242554 203.34114075 C-122.62611867 197.94263493 -122.33134735 192.70051057 -121.6234417 187.34607887 C-121.50012269 185.03359773 -121.91139167 183.38462958 -122.50689697 181.16062927 C-122.6028768 179.62693016 -122.6500666 178.08976254 -122.66079712 176.55310059 C-122.66939758 175.63241791 -122.67799805 174.71173523 -122.68685913 173.76315308 C-122.69111908 172.76002579 -122.69537903 171.7568985 -122.69976807 170.72337341 C-122.70794556 169.66102478 -122.71612305 168.59867615 -122.72454834 167.50413513 C-122.74937838 163.98469094 -122.76591635 160.46528715 -122.78033447 156.94578552 C-122.78565815 155.74106535 -122.79098183 154.53634518 -122.79646683 153.29511833 C-122.82319372 146.91297416 -122.84256628 140.53084947 -122.85699463 134.14866638 C-122.87030893 128.88091065 -122.89811683 123.61354455 -122.93902588 118.34593201 C-122.98850684 111.97405927 -123.01313538 105.60253875 -123.02022171 99.2304821 C-123.02690976 96.8101511 -123.0420674 94.3898272 -123.06611252 91.9696064 C-123.213459 76.23533617 -123.02177894 63.22856247 -112.81939697 50.41062927 C-112.05240479 49.42578552 -111.2854126 48.44094177 -110.49517822 47.42625427 C-108.50689697 45.16062927 -108.50689697 45.16062927 -106.50689697 44.16062927 C-105.88299072 44.24441833 -105.25908447 44.3282074 -104.61627197 44.41453552 C-97.28609433 45.37328392 -92.83433187 42.49444727 -87.11700439 38.35472107 C-84.60700906 36.36811739 -82.74188266 34.85423436 -81.69830322 31.77391052 C-81.65576416 31.03527771 -81.6132251 30.2966449 -81.56939697 29.53562927 C-81.35845947 27.30906677 -81.35845947 27.30906677 -80.50689697 25.16062927 C-61.19350269 9.76933967 -24.20203557 0.14868058 0 0 Z " fill="#000102" transform="translate(184.50689697265625,-0.1606292724609375)"/>
<path d="M0 0 C2.45795069 0.83976949 4.92689467 1.64059344 7.39794922 2.44091797 C30.98122547 10.22411135 57.23556319 22.10237191 69.46435547 44.94873047 C72.8426394 52.81575277 71.79788633 60.22718617 68.69482422 68.02294922 C57.01513782 91.31652097 28.05240558 102.73284369 4.80810547 110.53857422 C-5.26311629 113.82505974 -15.26670166 116.86580621 -25.69189453 118.78857422 C-26.7735791 118.9893457 -27.85526367 119.19011719 -28.96972656 119.39697266 C-56.34941334 124.36713571 -83.26292109 125.95492115 -111.06689453 126.03857422 C-112.16987885 126.04402252 -113.27286316 126.04947083 -114.40927124 126.05508423 C-134.48840817 126.12884623 -154.15059097 124.88806257 -173.94189453 121.41357422 C-175.22491455 121.1915332 -176.50793457 120.96949219 -177.82983398 120.74072266 C-181.45333772 120.10457865 -185.07311195 119.45098102 -188.69189453 118.78857422 C-189.5682959 118.63163086 -190.44469727 118.4746875 -191.34765625 118.31298828 C-218.00900141 113.43061888 -246.23874569 103.74106246 -267.69189453 86.78857422 C-268.60326172 86.07056641 -269.51462891 85.35255859 -270.45361328 84.61279297 C-278.15144742 78.13464556 -284.96306812 69.96944087 -286.69189453 59.78857422 C-287.42902691 50.64813267 -285.09836741 44.40108603 -279.50439453 37.16357422 C-276.29631781 32.97905115 -276.29631781 32.97905115 -275.19189453 27.85107422 C-275.35689453 26.84044922 -275.52189453 25.82982422 -275.69189453 24.78857422 C-275.69189453 20.78857422 -275.69189453 20.78857422 -274.40673828 19.41650391 C-273.82021484 19.01850586 -273.23369141 18.62050781 -272.62939453 18.21044922 C-271.68193359 17.55302734 -271.68193359 17.55302734 -270.71533203 16.88232422 C-270.04759766 16.43888672 -269.37986328 15.99544922 -268.69189453 15.53857422 C-268.02416016 15.07966797 -267.35642578 14.62076172 -266.66845703 14.14794922 C-265.01781822 13.0160826 -263.35587945 11.9007274 -261.69189453 10.78857422 C-261.17626953 11.09794922 -260.66064453 11.40732422 -260.12939453 11.72607422 C-256.41216859 13.34640347 -252.84508359 14.42013872 -248.82910156 13.2421875 C-246.76124673 12.3514436 -244.76241911 11.36949488 -242.75439453 10.35107422 C-224.86521985 1.88881146 -206.03044564 -3.28374849 -186.69189453 -7.21142578 C-185.56444824 -7.45078857 -184.43700195 -7.69015137 -183.27539062 -7.93676758 C-125.21291802 -20.02708295 -56.53481539 -19.34376304 0 0 Z " fill="#B1C9EB" transform="translate(363.69189453125,23.21142578125)"/>
<path d="M0 0 C0.70440216 0.6075412 0.70440216 0.6075412 1.42303467 1.22735596 C2.0449469 1.76237732 2.66685913 2.29739868 3.30761719 2.84863281 C3.92159363 3.37741028 4.53557007 3.90618774 5.16815186 4.45098877 C27.02812711 22.93578909 53.76784249 32.7231699 81.25244141 39.32885742 C83.10822093 39.78216628 84.95951297 40.25419497 86.80615234 40.7434082 C94.95738459 42.88555258 103.17227823 44.32169367 111.5 45.5625 C112.5837793 45.7240004 112.5837793 45.7240004 113.68945312 45.88876343 C186.22150858 56.570465 283.58906707 55.59448855 345.36474609 10.26269531 C348.83970936 7.57943016 352.06547443 4.64712174 355.2421875 1.6171875 C357 0 357 0 358 0 C358.09318788 8.02414245 358.16400959 16.04805414 358.20724869 24.07260609 C358.22801431 27.79982092 358.25612611 31.52666219 358.30175781 35.25366211 C358.3456147 38.85877272 358.36921972 42.46352685 358.37950897 46.0688839 C358.38682972 47.435855 358.4011229 48.80280933 358.42292023 50.16962624 C358.61464702 62.70464115 356.41454122 72.49055462 348 82 C347.47535156 82.59425781 346.95070313 83.18851562 346.41015625 83.80078125 C339.34861843 91.29431903 330.58467752 96.40207152 321.64624023 101.33569336 C319.13242316 102.72998533 317.04458582 103.95541418 315 106 C314.5359554 110.66228885 314.5359554 110.66228885 316.125 114.9375 C318.92609989 116.52478994 320.79476143 116.29816173 324 116 C326.69678031 114.94366932 329.13624791 113.53604373 331.625 112.0625 C332.66853638 111.45994385 332.66853638 111.45994385 333.7331543 110.84521484 C340.76522232 106.70092903 348.00572424 102.13200941 353.69921875 96.2421875 C355 95 355 95 357 95 C356.50843545 104.33972646 349.88541751 111.7715408 343.39453125 117.91796875 C339.47235493 121.32827866 335.40493271 124.24394075 331 127 C330.45021484 127.34530762 329.90042969 127.69061523 329.33398438 128.04638672 C318.14059145 134.97344545 306.37671023 139.62189503 294 144 C292.70023215 144.47707883 291.40072373 144.95486548 290.1015625 145.43359375 C275.37776603 150.6503031 260.00423417 153.63077216 244.625 156.1875 C243.71959473 156.34226807 242.81418945 156.49703613 241.88134766 156.65649414 C221.56731823 159.86535002 201.08655174 160.37483045 180.5625 160.3125 C179.34209015 160.31100952 178.1216803 160.30951904 176.86428833 160.3079834 C149.50645106 160.24811013 122.86059068 158.50261493 96 153 C95.28134766 152.86013672 94.56269531 152.72027344 93.82226562 152.57617188 C62.11666856 146.34344767 25.25548199 133.7322858 5 107 C2.73028239 103.03564149 1 99.60577465 1 95 C4.46066181 96.51602387 6.92367489 98.57410507 9.75 101.0625 C16.61486577 106.74974917 24.09540716 110.92515175 32 115 C32.92039062 115.47566406 32.92039062 115.47566406 33.859375 115.9609375 C48.92507418 123.62479317 64.83661405 128.62351018 81.1875 132.75 C82.30213623 133.03166016 83.41677246 133.31332031 84.56518555 133.60351562 C144.48021834 148.22779218 212.04638231 148.37408099 272 134 C272.89879883 133.78698242 273.79759766 133.57396484 274.72363281 133.35449219 C277.26049679 132.74053943 279.78756884 132.09867498 282.3125 131.4375 C283.04235107 131.25195557 283.77220215 131.06641113 284.52416992 130.87524414 C288.66029321 129.71876394 291.43359094 128.51227632 294 125 C294.08916154 121.37350049 294.08916154 121.37350049 293 118 C289.43046343 115.62030896 288.21395716 115.66288343 284 116 C281.25174734 116.68565813 278.58005261 117.42658079 275.875 118.25 C265.9906584 121.08514492 256.15681271 123.37142129 246 125 C244.85063965 125.18481934 243.7012793 125.36963867 242.51708984 125.56005859 C222.01655029 128.6820621 201.66045653 129.3770348 180.9375 129.375 C179.15842758 129.37771912 179.15842758 129.37771912 177.34341431 129.38049316 C155.32688556 129.37668398 133.06837745 128.81884834 111.375 124.75 C109.58727173 124.4257605 109.58727173 124.4257605 107.76342773 124.0949707 C72.79786905 117.59066723 30.04971408 107.42656868 6.625 78 C0.33324439 68.7101045 -0.56162331 61.06573991 -0.390625 49.90234375 C-0.38315015 48.45789886 -0.37746311 47.01344371 -0.37347412 45.56898499 C-0.35831525 41.79586009 -0.3191204 38.02336644 -0.2746582 34.25048828 C-0.23349272 30.38908422 -0.21541804 26.5275766 -0.1953125 22.66601562 C-0.15261425 15.11039156 -0.08448455 7.55528475 0 0 Z " fill="#518ED6" transform="translate(77,113)"/>
<path d="M0 0 C1.08333333 0.8125 2.16666667 1.625 3.25 2.4375 C3.99121094 2.98792969 4.73242188 3.53835938 5.49609375 4.10546875 C7.19728194 5.39263922 8.8766056 6.70911855 10.53515625 8.05078125 C59.7512259 47.02215567 133.86491162 50.79671576 194 50 C194.95374512 49.98743164 195.90749023 49.97486328 196.89013672 49.96191406 C221.82194034 49.50410691 246.70746881 45.39732382 271 40 C271.7204248 39.84595703 272.44084961 39.69191406 273.18310547 39.53320312 C303.11563226 33.09099304 331.39661356 21.9749009 354.69921875 1.90625 C357 0 357 0 358 0 C358.0931181 8.04141327 358.16397484 16.08259727 358.20724869 24.12441826 C358.22802924 27.8595079 358.25616923 31.5942258 358.30175781 35.32910156 C358.34556031 38.94069135 358.36920859 42.551926 358.37950897 46.16376114 C358.38683928 47.53434964 358.40115198 48.90492106 358.42292023 50.27535629 C358.64168592 64.63285438 354.70769163 74.35774309 345 85 C320.07061794 106.87750448 286.13510463 117.40968358 254 123 C253.04754395 123.16983398 252.09508789 123.33966797 251.11376953 123.51464844 C207.14471594 131.22753873 162.13325595 131.2274641 118 125 C115.97804464 124.73430325 113.95592805 124.46982822 111.93359375 124.20703125 C85.57584562 120.66354025 58.20929401 113.21872261 35 100 C33.94554687 99.43925781 32.89109375 98.87851562 31.8046875 98.30078125 C16.64946631 89.98672768 5.51948372 79.55845116 0 63 C-0.11395983 61.26272996 -0.17802017 59.52194253 -0.2109375 57.78125 C-0.23929687 56.76675781 -0.26765625 55.75226563 -0.296875 54.70703125 C-0.34895405 52.56918636 -0.39322665 50.43113703 -0.4296875 48.29296875 C-0.460625 47.27847656 -0.4915625 46.26398438 -0.5234375 45.21875 C-0.54325684 44.28998047 -0.56307617 43.36121094 -0.58349609 42.40429688 C-1.07786267 39.5505325 -1.66675518 38.67691623 -4 37 C-5.32 36.67 -6.64 36.34 -8 36 C-8 29.4 -8 22.8 -8 16 C-6.02 15.01 -4.04 14.02 -2 13 C-0.71553081 10.43106162 -0.67022856 8.23423663 -0.4375 5.375 C-0.35371094 4.37210937 -0.26992187 3.36921875 -0.18359375 2.3359375 C-0.12300781 1.56507813 -0.06242187 0.79421875 0 0 Z " fill="#518ED6" transform="translate(77,362)"/>
<path d="M0 0 C0.47345352 0.40715744 0.94690704 0.81431488 1.43470764 1.23381042 C2.37207008 2.03882744 2.37207008 2.03882744 3.32836914 2.86010742 C3.94619766 3.39101486 4.56402618 3.9219223 5.20057678 4.46891785 C35.52167516 30.26834743 77.11981644 41.61454014 115.97827148 46.26220703 C119.88513281 46.73397187 123.7846914 47.24049266 127.68310547 47.77734375 C143.58842013 49.88690874 159.30957832 50.47332016 175.33984375 50.39111328 C178.69616178 50.37405707 182.05176373 50.38418952 185.40805721 50.40143299 C208.3753109 50.50130775 231.10527392 48.88847577 253.6875 44.5625 C254.85571289 44.34352051 256.02392578 44.12454102 257.22753906 43.89892578 C260.48784701 43.27953061 263.74399366 42.64153793 267 42 C268.16619873 41.7827124 268.16619873 41.7827124 269.35595703 41.56103516 C299.99174389 35.81545973 330.95665326 23.18508889 354.65625 2.86669922 C355.28337891 2.32906952 355.91050781 1.79143982 356.55664062 1.23751831 C357.03294922 0.82913727 357.50925781 0.42075623 358 0 C358.11655565 8.13722333 358.20504616 16.27408995 358.25906086 24.41194534 C358.28500339 28.19192529 358.32011376 31.97132845 358.37719727 35.75097656 C358.43207422 39.40798241 358.46153546 43.06443839 358.47438622 46.72182465 C358.48352761 48.10753775 358.50137487 49.49322545 358.52865028 50.87870026 C358.73130049 61.61283676 357.04715729 70.20900473 350.82421875 79.11328125 C348.57020783 81.43322302 346.32060645 83.746372 344 86 C343.39542969 86.61359375 342.79085938 87.2271875 342.16796875 87.859375 C314.06890789 114.55042192 265.74596883 123.34138473 228.75 127.6875 C227.73413818 127.80689941 226.71827637 127.92629883 225.67163086 128.04931641 C209.9520875 129.78131106 194.24020138 130.23799482 178.4375 130.25 C177.50512512 130.25100708 176.57275024 130.25201416 175.61212158 130.25305176 C144.17203243 130.23029867 112.42783334 127.21824741 82 119 C81.23445801 118.79681152 80.46891602 118.59362305 79.68017578 118.38427734 C56.76251506 112.20863884 32.88954208 103.05554226 15 87 C14.28328125 86.38769531 13.5665625 85.77539062 12.828125 85.14453125 C6.45476412 79.33423045 2.71314879 72.13944636 0 64 C-0.08921886 61.92971727 -0.11759651 59.85662411 -0.11352539 57.78442383 C-0.11341209 55.86277153 -0.11341209 55.86277153 -0.11329651 53.90229797 C-0.10818987 52.50387534 -0.10297387 51.1054531 -0.09765625 49.70703125 C-0.09579089 48.27642364 -0.09436754 46.84581539 -0.09336853 45.41520691 C-0.08955267 41.65213249 -0.07973032 37.88909675 -0.06866455 34.1260376 C-0.05843043 30.28520226 -0.05386662 26.44436067 -0.04882812 22.60351562 C-0.03810722 15.0689928 -0.02104196 7.53450182 0 0 Z " fill="#518DD6" transform="translate(77,237)"/>
<path d="M0 0 C12.95572668 2.31805894 26.9564748 14.608322 34.5625 24.625 C39.41402664 31.80646978 42.23561438 38.22287714 41 47 C37.66614158 61.29994619 26.97885492 71.72797788 14.88598633 79.35327148 C-6.69689968 92.47622496 -31.17555919 101.42151007 -56 106 C-57.62252686 106.30115723 -57.62252686 106.30115723 -59.27783203 106.60839844 C-86.65751881 111.57856149 -113.57102656 113.16634693 -141.375 113.25 C-142.47798431 113.2554483 -143.58096863 113.26089661 -144.71737671 113.26651001 C-164.79692707 113.34027353 -184.45817428 112.09805873 -204.25 108.625 C-205.52939453 108.40440918 -206.80878906 108.18381836 -208.12695312 107.95654297 C-225.62244344 104.89372485 -242.14418274 100.62968158 -259 95 C-259 94.67 -259 94.34 -259 94 C-252.24854207 93.75830103 -246.01624615 94.72756751 -239.375 95.875 C-176.67941886 105.99770079 -103.86845049 102.61890918 -45 77 C-44.23139648 76.67 -43.46279297 76.34 -42.67089844 76 C-33.14914917 71.86677777 -24.37080693 67.20147105 -16 61 C-15.04351562 60.30132812 -14.08703125 59.60265625 -13.1015625 58.8828125 C-6.40584945 53.72803067 -1.4663612 48.16719608 3 41 C3.45503906 40.30648437 3.91007812 39.61296875 4.37890625 38.8984375 C8.69879947 31.10155705 8.35304702 20.31318462 6.19921875 11.85546875 C4.57224667 7.66554451 2.49560453 3.74340679 0 0 Z " fill="#81ACE1" transform="translate(394,36)"/>
<path d="M0 0 C3.46066181 1.51602387 5.92367489 3.57410507 8.75 6.0625 C15.61486577 11.74974917 23.09540716 15.92515175 31 20 C31.61359375 20.31710938 32.2271875 20.63421875 32.859375 20.9609375 C47.92507418 28.62479317 63.83661405 33.62351018 80.1875 37.75 C81.30213623 38.03166016 82.41677246 38.31332031 83.56518555 38.60351562 C143.48021834 53.22779218 211.04638231 53.37408099 271 39 C271.89879883 38.78698242 272.79759766 38.57396484 273.72363281 38.35449219 C276.26049679 37.74053943 278.78756884 37.09867498 281.3125 36.4375 C282.40727661 36.15918335 282.40727661 36.15918335 283.52416992 35.87524414 C287.65896288 34.71913591 290.538353 33.60071245 293 30 C293.33448259 26.832168 293.33448259 26.832168 293 24 C294.44632812 23.60167969 294.44632812 23.60167969 295.921875 23.1953125 C297.18515625 22.84210938 298.4484375 22.48890625 299.75 22.125 C301.00296875 21.77695313 302.2559375 21.42890625 303.546875 21.0703125 C306.86432645 20.14447215 306.86432645 20.14447215 309.265625 18.8671875 C311 18 311 18 314 18 C314.433125 18.495 314.86625 18.99 315.3125 19.5 C316.95700863 21.24527031 316.95700863 21.24527031 319.62890625 21.33984375 C324.00915416 20.89826603 326.88111712 19.27918329 330.625 17.0625 C331.66853638 16.45994385 331.66853638 16.45994385 332.7331543 15.84521484 C339.76522232 11.70092903 347.00572424 7.13200941 352.69921875 1.2421875 C354 0 354 0 356 0 C355.50843545 9.33972646 348.88541751 16.7715408 342.39453125 22.91796875 C338.47235493 26.32827866 334.40493271 29.24394075 330 32 C329.45021484 32.34530762 328.90042969 32.69061523 328.33398438 33.04638672 C317.14059145 39.97344545 305.37671023 44.62189503 293 49 C291.70023215 49.47707883 290.40072373 49.95486548 289.1015625 50.43359375 C274.37776603 55.6503031 259.00423417 58.63077216 243.625 61.1875 C242.71959473 61.34226807 241.81418945 61.49703613 240.88134766 61.65649414 C220.56731823 64.86535002 200.08655174 65.37483045 179.5625 65.3125 C178.34209015 65.31100952 177.1216803 65.30951904 175.86428833 65.3079834 C148.50645106 65.24811013 121.86059068 63.50261493 95 58 C94.28134766 57.86013672 93.56269531 57.72027344 92.82226562 57.57617188 C61.11666856 51.34344767 24.25548199 38.7322858 4 12 C1.73028239 8.03564149 0 4.60577465 0 0 Z " fill="#0470CA" transform="translate(78,208)"/>
<path d="M0 0 C3.67058351 2.31826327 6.94894593 4.80368389 10.25 7.625 C35.85117303 28.21308833 70.64453588 36.83708784 102.25854492 42.50341797 C104.00390834 42.81956982 105.74672988 43.15035814 107.4855957 43.50048828 C144.81477621 50.8591455 185.28682517 51.50598972 223 47 C224.62808594 46.80664062 224.62808594 46.80664062 226.2890625 46.609375 C268.30063489 41.4416645 314.0766603 32.65550868 347.984375 5.578125 C350.56567484 3.55710729 353.24122607 1.76844483 356 0 C355.48135966 9.85416643 348.14570028 17.69529878 341.375 24.19921875 C330.9096344 33.27365833 317.74103309 39.74684184 305 45 C303.95585938 45.4323999 303.95585938 45.4323999 302.890625 45.87353516 C263.93635859 61.71597285 220.2455231 66.46258944 178.5 66.3125 C177.46261688 66.31100952 176.42523376 66.30951904 175.35641479 66.3079834 C157.72403176 66.26273016 140.48273025 65.37888177 123 63 C121.92427734 62.86078125 120.84855469 62.7215625 119.74023438 62.578125 C83.65090793 57.81036077 43.25272061 48.4240809 15 24 C14.17242187 23.29488281 13.34484375 22.58976562 12.4921875 21.86328125 C6.62076789 16.46661339 2.85329285 10.45212957 0 3 C0 2.01 0 1.02 0 0 Z " fill="#0470C9" transform="translate(78,332)"/>
<path d="M0 0 C2.70137171 1.06875799 5.13033374 2.51998118 7.625 4 C21.51919506 11.78403194 36.59465507 17.0686129 52 21 C53.29430503 21.33971348 54.58857443 21.67956276 55.8828125 22.01953125 C62.47243803 23.72694844 69.06974637 25.25237876 75.75 26.5625 C80.45169333 27.48488947 85.1428497 28.42581346 89.8125 29.5 C90.76769531 29.7165625 91.72289062 29.933125 92.70703125 30.15625 C95 31 95 31 97 34 C97.51288911 38.02984298 97.60859399 40.13058002 95.25 43.5 C82.14907673 49.54657997 58.15619815 39.70062099 44.92578125 35.58056641 C42.01370455 34.70266093 39.06645488 33.9603128 36.125 33.1875 C23.74891201 29.643374 11.98274236 24.20189604 0.5625 18.3125 C-0.14108643 17.95647705 -0.84467285 17.6004541 -1.56958008 17.23364258 C-5.66183929 15.05716545 -8.40908888 12.97402909 -11 9 C-11.5 6.4375 -11.5 6.4375 -11 4 C-7.93941645 -0.52966366 -5.22007873 -0.48521672 0 0 Z " fill="#010204" transform="translate(104,286)"/>
<path d="M0 0 C2.98565592 1.3286495 5.78827502 2.94424007 8.625 4.5625 C33.97072273 18.39330668 62.55954776 25.3596796 91.00390625 29.41015625 C93.44837693 30.13249494 94.47037449 30.9732462 96 33 C96.48258091 36.79170715 96.51879045 39.08032602 94.625 42.4375 C88.26545626 46.2229427 79.31901561 43.75197277 72.4375 42.25 C71.56963867 42.06663086 70.70177734 41.88326172 69.80761719 41.69433594 C68.03777826 41.31707228 66.2690314 40.93464576 64.50146484 40.546875 C62.26042638 40.05693491 60.01616951 39.5883792 57.76953125 39.125 C37.04812647 34.70657591 4.17120888 27.33004914 -10.8203125 11.01953125 C-12 9 -12 9 -11.9375 5.4375 C-11 2 -11 2 -9.375 0 C-5.88149676 -1.47094873 -3.69677124 -0.80542104 0 0 Z " fill="#010204" transform="translate(105,162)"/>
<path d="M0 0 C3.40825433 1.40824329 6.55218625 3.2335687 9.75 5.0625 C19.56159163 10.42977467 29.38331677 14.53087998 40 18 C40.66290039 18.22349121 41.32580078 18.44698242 42.00878906 18.67724609 C54.23411006 22.76160069 66.85229931 25.15189031 79.47265625 27.66796875 C92.95321793 30.37847314 92.95321793 30.37847314 96 32.1875 C97.67294445 35.21971182 97.41466728 37.62342356 97 41 C95.33203125 43.2265625 95.33203125 43.2265625 93 45 C88.63925176 45.45265077 84.32658085 44.62134635 80 44 C78.33904297 43.76796875 78.33904297 43.76796875 76.64453125 43.53125 C47.08789526 38.6320039 16.21209125 29.4953058 -9 13 C-11 10 -11 10 -10.8125 6.5 C-10 3 -10 3 -8.875 1.0625 C-5.94658367 -0.59693592 -3.23406668 -0.54051778 0 0 Z " fill="#010203" transform="translate(104,410)"/>
<path d="M0 0 C1.9375 1.125 1.9375 1.125 3 3 C3.50030235 6.93094707 3.5996142 9.1005787 1.375 12.4375 C-1.75683492 14.49791771 -3.31544773 14.6767545 -7 14 C-9.9375 11.9375 -9.9375 11.9375 -12 9 C-12.06625411 5.1572617 -11.81899419 3.00799284 -9.375 0 C-5.91616747 -1.45635054 -3.58701629 -0.91305869 0 0 Z " fill="#030609" transform="translate(400,290)"/>
<path d="M0 0 C3.0099077 2.29014716 4.69783903 3.79135614 5.625 7.5 C4.69783903 11.20864386 3.0099077 12.70985284 0 15 C-3.68455227 15.6767545 -5.24316508 15.49791771 -8.375 13.4375 C-10.62340519 10.06489221 -10.56783945 7.97487617 -10 4 C-7.27238925 -0.09141613 -4.79563536 -0.88083098 0 0 Z " fill="#030609" transform="translate(352,429)"/>
<path d="M0 0 C3.72206393 1.34627844 5.01947413 2.61005343 6.9375 6.0625 C6.873818 9.24659977 6.44790601 11.21182332 4.8125 13.9375 C1.76917192 15.76349685 -0.60499555 15.48710581 -4.0625 15.0625 C-6.5 13.5 -6.5 13.5 -8.0625 11.0625 C-8.625 7.5625 -8.625 7.5625 -8.0625 4.0625 C-5.43176963 0.9675231 -4.07891993 0.08324326 0 0 Z " fill="#030508" transform="translate(350.0625,179.9375)"/>
<path d="M0 0 C2.375 1.5625 2.375 1.5625 4 4 C4.5625 7.5 4.5625 7.5 4 11 C1.61186047 13.66106976 -0.01553885 14.77849624 -3.5 15.5625 C-7.29082295 14.70956484 -8.74689043 13.11459264 -11 10 C-11.06641554 6.14789873 -10.87229157 4.00151995 -8.3125 1.0625 C-5.26397123 -0.33817538 -3.32073048 -0.4842732 0 0 Z " fill="#030508" transform="translate(399,165)"/>
<path d="M0 0 C2.5 2.125 2.5 2.125 4 5 C4.08104732 8.97131876 3.4688579 10.47755834 0.8125 13.4375 C-2 15 -2 15 -5.125 15 C-8.46294538 13.83897552 -9.4614746 13.16252443 -11 10 C-11.52755517 6.38247881 -11.45932313 4.69817115 -9.4375 1.625 C-6.04129157 -0.63913895 -3.99900698 -0.64269755 0 0 Z " fill="#030508" transform="translate(353,305)"/>
<path d="M0 0 C2 1.0625 2 1.0625 3 3 C3.49573337 6.89504791 3.58016848 9.09493717 1.4375 12.4375 C-1.96719488 14.61999672 -4.03430012 14.63734462 -8 14 C-10.69500656 11.58140437 -11.80636871 9.99236035 -12.5 6.4375 C-11.05833215 -0.59063079 -6.06901126 -0.67433458 0 0 Z " fill="#020407" transform="translate(400,414)"/>
</svg>
