<?xml version="1.0" encoding="UTF-8"?>
<svg version="1.1" xmlns="http://www.w3.org/2000/svg" width="512" height="500">
<path d="M0 0 C2.44225447 1.66159248 4.74768159 3.38773224 7.0390625 5.25 C7.87179687 5.87648438 8.70453125 6.50296875 9.5625 7.1484375 C18.78558467 14.97496676 26.06978627 28.53729372 27.27636719 40.62792969 C28.16417211 57.82023954 26.19643735 71.52168642 15.0390625 85.25 C14.41257812 86.08273438 13.78609375 86.91546875 13.140625 87.7734375 C4.29696951 98.19514304 -7.99796017 102.65740453 -20.9609375 105.25 C-20.9609375 115.81 -20.9609375 126.37 -20.9609375 137.25 C5.4390625 137.25 31.8390625 137.25 59.0390625 137.25 C59.0390625 153.75 59.0390625 170.25 59.0390625 187.25 C85.4390625 174.05 111.8390625 160.85 139.0390625 147.25 C139.0390625 140.98 139.0390625 134.71 139.0390625 128.25 C142.05242745 116.43760941 148.66628198 107.71832517 159.0390625 101.25 C168.75368606 95.87595292 180.61692533 95.75851227 191.32421875 97.91015625 C202.45693359 101.52711424 210.76232127 109.51896778 216.359375 119.63671875 C220.65411045 129.4425308 220.77423788 142.16251215 217.4765625 152.3125 C212.85677488 162.86047663 204.64953913 171.06771238 194.1015625 175.6875 C183.93671688 178.99000258 171.27675621 178.83704428 161.44140625 174.59375 C155.99651927 171.54815468 151.41308429 167.66186202 147.0390625 163.25 C145.96608917 163.78870728 144.89311584 164.32741455 143.78762817 164.88244629 C133.69505966 169.94896758 123.60040243 175.0113049 113.50366402 180.06951141 C108.312413 182.67036431 103.1219195 185.27270613 97.93310547 187.87841797 C92.929301 190.39115416 87.92357482 192.90002176 82.91646957 195.40617371 C81.00272972 196.36489696 79.08969665 197.32503235 77.17737198 198.28657532 C74.50696469 199.6289961 71.83412998 200.96645691 69.16064453 202.30273438 C68.36367157 202.70481613 67.56669861 203.10689789 66.74557495 203.52116394 C61.26716682 206.25 61.26716682 206.25 59.0390625 206.25 C59.0390625 229.35 59.0390625 252.45 59.0390625 276.25 C61.0190625 276.91 62.9990625 277.57 65.0390625 278.25 C66.79279591 279.06373428 68.52888876 279.9164262 70.24658203 280.80371094 C71.7280925 281.56394562 71.7280925 281.56394562 73.23953247 282.33953857 C74.28970551 282.88233459 75.33987854 283.42513062 76.421875 283.984375 C78.66240017 285.12700874 80.90329683 286.2689143 83.14453125 287.41015625 C86.66840965 289.20932125 90.18956623 291.01317921 93.70458984 292.82958984 C97.10318248 294.58313667 100.51142918 296.31652083 103.921875 298.046875 C104.9760965 298.59776794 106.03031799 299.14866089 107.1164856 299.71624756 C108.58853958 300.45756927 108.58853958 300.45756927 110.09033203 301.21386719 C110.95159698 301.65639832 111.81286194 302.09892944 112.70022583 302.55487061 C115.01767149 303.48390481 115.01767149 303.48390481 117.21554565 302.54522705 C119.27338478 301.21175133 119.27338478 301.21175133 121.1640625 298.5625 C128.76466336 288.99743615 142.66339003 282.32460027 154.70166016 280.94482422 C157.42567412 280.81378056 160.12462211 280.78198441 162.8515625 280.8125 C163.81425049 280.82079834 164.77693848 280.82909668 165.76879883 280.83764648 C178.38610343 281.13581002 187.8784008 284.81736162 198.0390625 292.25 C198.69648438 292.72308594 199.35390625 293.19617188 200.03125 293.68359375 C210.06470936 301.5542852 216.21740471 314.02714062 219.0390625 326.25 C219.45354566 329.8662827 219.51726734 333.42502542 219.4765625 337.0625 C219.46826416 338.02518799 219.45996582 338.98787598 219.45141602 339.97973633 C219.15325248 352.59704093 215.47170088 362.0893383 208.0390625 372.25 C207.56597656 372.90742188 207.09289062 373.56484375 206.60546875 374.2421875 C198.46837896 384.61524814 184.45315408 391.97796134 171.40869141 393.57128906 C168.71520691 393.72223215 166.04916366 393.76893979 163.3515625 393.75 C162.39475586 393.74427979 161.43794922 393.73855957 160.45214844 393.73266602 C147.48935425 393.40957522 137.1748632 389.48764166 127.0390625 381.25 C126.20632813 380.62351562 125.37359375 379.99703125 124.515625 379.3515625 C115.45032539 371.65892655 109.65696081 359.69461739 107.0390625 348.25 C106.76233987 344.5789561 106.75938592 340.92989654 106.7890625 337.25 C106.78132813 336.2909375 106.77359375 335.331875 106.765625 334.34375 C106.78052611 328.9197457 107.24497205 324.3759727 109.0390625 319.25 C108.25966309 319.02328613 107.48026367 318.79657227 106.67724609 318.56298828 C101.86073188 316.8247509 97.39367889 314.55037086 92.828125 312.2421875 C91.53974731 311.59648804 91.53974731 311.59648804 90.2253418 310.93774414 C87.03604256 309.33788647 83.8502568 307.73103241 80.6640625 306.125 C73.5278125 302.53625 66.3915625 298.9475 59.0390625 295.25 C59.0390625 311.75 59.0390625 328.25 59.0390625 345.25 C32.6390625 345.25 6.2390625 345.25 -20.9609375 345.25 C-20.6309375 366.37 -20.3009375 387.49 -19.9609375 409.25 C-16.3309375 410.57 -12.7009375 411.89 -8.9609375 413.25 C0.94392185 419.89668193 8.63060632 428.26472399 11.0390625 440.25 C12.37710816 452.66718084 11.31432624 463.63890709 3.8515625 474 C-2.96086 482.0852318 -11.26586826 488.31304017 -22.03173828 489.47314453 C-34.94304812 490.36871049 -45.71140604 488.80271344 -55.89453125 480.22265625 C-64.412568 472.09107107 -68.96343278 463.44197507 -69.43164062 451.61474609 C-69.58668051 439.10044324 -66.76944703 429.47713177 -57.9609375 420.25 C-51.76641088 414.3365105 -46.34395693 412.2983707 -37.9609375 409.25 C-37.6309375 388.13 -37.3009375 367.01 -36.9609375 345.25 C-63.3609375 345.25 -89.7609375 345.25 -116.9609375 345.25 C-116.9609375 328.75 -116.9609375 312.25 -116.9609375 295.25 C-120.40273437 296.9825 -123.84453125 298.715 -127.390625 300.5 C-130.71289858 302.16892791 -134.03585738 303.83648376 -137.35888672 305.50390625 C-139.67406143 306.66653295 -141.98851723 307.83059235 -144.30224609 308.99609375 C-147.62150657 310.66780695 -150.94328951 312.33440818 -154.265625 314 C-155.30524384 314.5249707 -156.34486267 315.04994141 -157.41598511 315.59082031 C-158.37683014 316.07131836 -159.33767517 316.55181641 -160.32763672 317.046875 C-161.17591034 317.47323242 -162.02418396 317.89958984 -162.89816284 318.33886719 C-164.9609375 319.25 -164.9609375 319.25 -166.9609375 319.25 C-166.47753906 320.66925781 -166.47753906 320.66925781 -165.984375 322.1171875 C-161.81408749 336.81283784 -165.03439995 352.87990056 -171.8359375 366.125 C-179.74304383 379.68284237 -192.26199764 388.2261367 -207.20727539 392.60620117 C-211.69260681 393.65485965 -216.05701438 393.78223626 -220.6484375 393.75 C-221.60524414 393.74427979 -222.56205078 393.73855957 -223.54785156 393.73266602 C-236.53002712 393.40909215 -246.80021291 389.47443557 -256.9609375 381.25 C-258.0128125 380.486875 -259.0646875 379.72375 -260.1484375 378.9375 C-269.77574276 369.73807497 -276.67928171 356.37880047 -277.4296875 342.98828125 C-277.4638033 341.17997929 -277.47363549 339.37107917 -277.4609375 337.5625 C-277.45521729 336.60569336 -277.44949707 335.64888672 -277.44360352 334.66308594 C-277.12016157 321.6862032 -273.19090822 311.39781457 -264.9609375 301.25 C-264.32285156 300.33541016 -264.32285156 300.33541016 -263.671875 299.40234375 C-256.60666357 289.88814798 -243.45639695 283.0439526 -231.9609375 281.25 C-214.09017614 279.58366271 -199.24942105 281.70823465 -184.9609375 293.25 C-184.0328125 293.930625 -183.1046875 294.61125 -182.1484375 295.3125 C-179.40644381 297.74112298 -177.24069384 300.3840206 -174.9609375 303.25 C-171.03198439 302.01160855 -167.39596881 300.58731695 -163.72167969 298.72802734 C-162.72755066 298.22765961 -161.73342163 297.72729187 -160.70916748 297.21176147 C-159.65272034 296.67523956 -158.59627319 296.13871765 -157.5078125 295.5859375 C-155.86295868 294.75783066 -155.86295868 294.75783066 -154.18487549 293.91299438 C-150.69161125 292.15416829 -147.20097916 290.39021115 -143.7109375 288.625 C-139.10382756 286.29495289 -134.49415757 283.97008948 -129.8828125 281.6484375 C-128.81826843 281.10786713 -127.75372437 280.56729675 -126.65692139 280.01034546 C-125.675401 279.51628204 -124.69388062 279.02221863 -123.68261719 278.51318359 C-122.81691101 278.07509369 -121.95120483 277.63700378 -121.05926514 277.18563843 C-118.9609375 276.25 -118.9609375 276.25 -116.9609375 276.25 C-116.9609375 253.15 -116.9609375 230.05 -116.9609375 206.25 C-119.9309375 205.26 -119.9309375 205.26 -122.9609375 204.25 C-124.25343503 203.68252587 -125.5337177 203.08580562 -126.79550171 202.45297241 C-127.49371033 202.10524277 -128.19191895 201.75751312 -128.9112854 201.39924622 C-129.6564743 201.02305649 -130.40166321 200.64686676 -131.16943359 200.25927734 C-131.97010254 199.8590889 -132.77077148 199.45890045 -133.59570312 199.04658508 C-136.22717584 197.73015513 -138.85577345 196.40808988 -141.484375 195.0859375 C-143.31408483 194.16921644 -145.14397225 193.25284975 -146.97402954 192.33682251 C-151.77946865 189.93029325 -156.58248534 187.51896785 -161.38500977 185.10662842 C-166.29037264 182.64369957 -171.1980163 180.18532438 -176.10546875 177.7265625 C-185.72619327 172.90549021 -195.34436426 168.0793469 -204.9609375 163.25 C-205.57668137 163.80615494 -206.19242523 164.36230988 -206.826828 164.93531799 C-207.6357399 165.66121628 -208.44465179 166.38711456 -209.27807617 167.13500977 C-210.07944504 167.8561647 -210.8808139 168.57731964 -211.70646667 169.32032776 C-214.09916452 171.36831284 -216.41235236 172.87168179 -219.2734375 174.1875 C-220.47419922 174.75791016 -220.47419922 174.75791016 -221.69921875 175.33984375 C-230.54208835 178.89837331 -243.01658415 178.68125523 -252.0234375 175.6875 C-262.57141413 171.06771238 -270.77864988 162.86047663 -275.3984375 152.3125 C-278.69611288 142.16251215 -278.57598545 129.4425308 -274.28125 119.63671875 C-268.68419627 109.51896778 -260.37880859 101.52711424 -249.24609375 97.91015625 C-237.26717815 95.5029782 -225.04972178 96.20594389 -214.54296875 102.7578125 C-205.40169327 109.34198077 -199.73843628 117.36220479 -196.9609375 128.25 C-196.9609375 134.52 -196.9609375 140.79 -196.9609375 147.25 C-170.5609375 160.45 -144.1609375 173.65 -116.9609375 187.25 C-116.9609375 170.75 -116.9609375 154.25 -116.9609375 137.25 C-90.5609375 137.25 -64.1609375 137.25 -36.9609375 137.25 C-36.9609375 126.69 -36.9609375 116.13 -36.9609375 105.25 C-40.2609375 104.59 -43.5609375 103.93 -46.9609375 103.25 C-49.83278424 102.05865699 -52.47812977 100.87141394 -55.2109375 99.4375 C-55.87867188 99.10685547 -56.54640625 98.77621094 -57.234375 98.43554688 C-70.53453539 91.64203358 -78.94619573 79.57191715 -83.56640625 65.60546875 C-85.13470801 60.2183248 -85.50018698 55.15281847 -85.4609375 49.5625 C-85.45521729 48.60569336 -85.44949707 47.64888672 -85.44360352 46.66308594 C-85.12051272 33.70029175 -81.19857916 23.3858007 -72.9609375 13.25 C-72.33445313 12.41726562 -71.70796875 11.58453125 -71.0625 10.7265625 C-54.23488249 -9.10375256 -21.90682862 -12.94757154 0 0 Z " fill="#000000" transform="translate(284.9609375,8.75)"/>
<path d="M0 0 C47.52 0 95.04 0 144 0 C144 58.08 144 116.16 144 176 C96.48 176 48.96 176 0 176 C0 117.92 0 59.84 0 0 Z " fill="#E6E9ED" transform="translate(184,162)"/>
<path d="M0 0 C15.84 0 31.68 0 48 0 C48 26.4 48 52.8 48 80 C11.04 80 -25.92 80 -64 80 C-64 64.16 -64 48.32 -64 32 C-53.44 32 -42.88 32 -32 32 C-32 26.72 -32 21.44 -32 16 C-21.44 16 -10.88 16 0 16 C0 10.72 0 5.44 0 0 Z " fill="#000000" transform="translate(264,242)"/>
<path d="M0 0 C11.49076445 6.28674043 17.3792347 15.58301659 21.4453125 27.78125 C22.32566125 40.80025362 20.32376664 51.22481254 12.4453125 61.78125 C5.06496573 70.1427143 -4.95575603 75.09439219 -16.09765625 75.984375 C-27.90523113 76.19366732 -37.86320672 72.68756578 -46.78515625 64.8125 C-55.05676001 56.24603607 -58.84621012 45.43593683 -58.87158203 33.68310547 C-58.66951156 23.26774492 -53.72146454 14.42496031 -46.77734375 6.83984375 C-33.8164483 -5.43192434 -15.90061099 -7.58561258 0 0 Z " fill="#FB806C" transform="translate(466.5546875,310.21875)"/>
<path d="M0 0 C9.43521489 6.09544835 15.71816829 14.88957861 18.41796875 25.828125 C20.29395715 37.93846594 18.0622342 48.73827907 10.9375 58.8125 C9.92725065 60.02684013 8.88613606 61.21632346 7.8125 62.375 C7.31234375 62.91640625 6.8121875 63.4578125 6.296875 64.015625 C-2.26129887 72.2414426 -13.97120899 74.81416874 -25.4453125 74.71875 C-36.13633244 73.73669389 -45.31785093 67.79265073 -52.4375 60 C-60.40214611 50.17405072 -62.40704784 38.79678621 -61.1875 26.375 C-58.14220113 15.13484108 -51.28399293 5.15428903 -41.17578125 -0.8125 C-27.62752355 -7.8317878 -13.38080313 -7.34312367 0 0 Z " fill="#FB7F6C" transform="translate(85.1875,311.625)"/>
<path d="M0 0 C10.25852706 6.32091061 16.22552373 15.25047309 19.5703125 26.6796875 C20.90432619 38.48415752 18.31032942 50.03695076 11.265625 59.68359375 C3.80863913 68.46359324 -5.41070071 73.83977157 -16.97265625 75.05078125 C-30.453817 75.29641869 -40.24149938 71.22604615 -50.07421875 62.1640625 C-58.31819486 53.56528235 -60.87788468 41.70547568 -60.7734375 30.1640625 C-59.73202139 19.60789016 -53.74863475 10.45915749 -46.0546875 3.4296875 C-32.46470025 -7.61030214 -15.15126219 -8.23332254 0 0 Z " fill="#FA7F6C" transform="translate(276.4296875,23.3203125)"/>
<path d="M0 0 C6.4914144 3.67586116 11.89501919 8.78457824 13.9453125 16.1015625 C14.98454831 23.40868931 14.10818959 29.92138083 9.9453125 36.1015625 C5.12597939 41.47496211 -0.32591038 45.53354122 -7.65625 46.4140625 C-13.99081717 46.69327207 -18.95182836 45.99885817 -24.0546875 42.1015625 C-30.68547555 35.894768 -34.00248154 30.87379596 -34.4296875 21.7265625 C-34.25915782 14.32356817 -31.71256479 9.65124881 -26.7421875 4.2890625 C-19.2006198 -2.70925668 -9.41805506 -4.0798862 0 0 Z " fill="#030101" transform="translate(458.0546875,323.8984375)"/>
<path d="M0 0 C5.8167935 3.5620755 10.33689791 8.95388459 12.3984375 15.46875 C13.34694866 22.74802167 12.60010106 29.34504886 8.3984375 35.46875 C3.55571988 40.70900414 -1.14794386 44.94045869 -8.43359375 45.8046875 C-16.57012191 45.91132614 -21.75011835 45.01865759 -27.796875 39.4453125 C-33.41750636 33.54264229 -35.55450076 28.67455893 -35.9765625 20.53125 C-35.79212136 14.11463969 -33.9219461 9.91034766 -29.5078125 5.265625 C-20.49449219 -3.08671848 -11.48928544 -5.07413237 0 0 Z " fill="#F9D46E" transform="translate(475.6015625,124.53125)"/>
<path d="M0 0 C5.66416739 2.96895019 9.86022993 8.07053957 12.4375 13.875 C14.36786332 20.34739468 13.81600405 26.29927398 11.0390625 32.4140625 C7.35692985 38.93019612 2.43630076 43.31391494 -4.73046875 45.62890625 C-11.16295758 47.03130472 -17.15348675 46.87433925 -22.9453125 43.56640625 C-28.4059855 39.4709015 -33.79216198 34.0157845 -34.8984375 27.1015625 C-35.58355116 19.94101969 -35.38139459 13.95563678 -30.8984375 8.1015625 C-21.88974004 -1.36093128 -12.629034 -4.77493512 0 0 Z " fill="#F9D46E" transform="translate(266.8984375,435.8984375)"/>
<path d="M0 0 C6.4914144 3.67586116 11.89501919 8.78457824 13.9453125 16.1015625 C14.98346364 23.40106268 14.14423207 29.94913489 9.9453125 36.1015625 C3.81235011 42.96858602 -1.72416337 45.95751167 -10.9296875 46.5390625 C-17.59275341 46.36717764 -22.24811659 43.66175505 -27.1015625 39.234375 C-32.90706279 33.06902965 -34.59665653 26.97282726 -34.35546875 18.58203125 C-33.43310513 10.97552611 -28.95392316 6.63967781 -23.37109375 1.765625 C-16.42365906 -3.22528087 -7.75505918 -3.35947908 0 0 Z " fill="#030101" transform="translate(74.0546875,323.8984375)"/>
<path d="M0 0 C5.8167935 3.5620755 10.33689791 8.95388459 12.3984375 15.46875 C13.34772735 22.75399766 12.59435643 29.33711381 8.3984375 35.46875 C3.28011836 41.10181471 -1.41429982 44.97243783 -9.1328125 45.7109375 C-15.52594869 46.00951804 -20.44130773 45.39937176 -25.6015625 41.46875 C-32.41346764 35.2013133 -35.49408038 29.84031675 -35.9765625 20.53125 C-35.79212136 14.11463969 -33.9219461 9.91034766 -29.5078125 5.265625 C-20.49449219 -3.08671848 -11.48928544 -5.07413237 0 0 Z " fill="#F9D46E" transform="translate(59.6015625,124.53125)"/>
<path d="M0 0 C6.50099074 3.68128391 11.87819747 8.78320492 13.9453125 16.1015625 C15.20908545 24.11749375 13.55801943 30.4620601 8.9453125 37.1015625 C4.23417819 42.52165392 -1.40366726 45.500713 -8.50390625 46.41796875 C-14.535995 46.70433131 -19.18658897 45.7526364 -24.0546875 42.1015625 C-30.68913654 35.90235214 -34.00272204 30.86864646 -34.4296875 21.7265625 C-34.25680824 15.00246918 -32.59983783 10.77492003 -27.9609375 5.90234375 C-19.7156089 -1.75206963 -10.78488932 -4.67199659 0 0 Z " fill="#030101" transform="translate(266.0546875,35.8984375)"/>
<path d="M0 0 C36.96 0 73.92 0 112 0 C112 5.28 112 10.56 112 16 C75.04 16 38.08 16 0 16 C0 10.72 0 5.44 0 0 Z " fill="#000000" transform="translate(200,210)"/>
<path d="M0 0 C26.4 0 52.8 0 80 0 C80 5.28 80 10.56 80 16 C53.6 16 27.2 16 0 16 C0 10.72 0 5.44 0 0 Z " fill="#000000" transform="translate(232,178)"/>
<path d="M0 0 C5.28 0 10.56 0 16 0 C16 15.84 16 31.68 16 48 C10.72 48 5.44 48 0 48 C0 32.16 0 16.32 0 0 Z " fill="#5CD6B3" transform="translate(280,258)"/>
<path d="M0 0 C5.28 0 10.56 0 16 0 C16 10.56 16 21.12 16 32 C10.72 32 5.44 32 0 32 C0 21.44 0 10.88 0 0 Z " fill="#5CD6B3" transform="translate(248,274)"/>
<path d="M0 0 C5.28 0 10.56 0 16 0 C16 5.28 16 10.56 16 16 C10.72 16 5.44 16 0 16 C0 10.72 0 5.44 0 0 Z " fill="#5CD6B3" transform="translate(216,290)"/>
<path d="M0 0 C5.28 0 10.56 0 16 0 C16 5.28 16 10.56 16 16 C10.72 16 5.44 16 0 16 C0 10.72 0 5.44 0 0 Z " fill="#000000" transform="translate(200,178)"/>
<path d="M0 0 C4.0743356 0.84881992 5.54405875 2.30225596 8 5.625 C8.625 8.625 8.625 8.625 8 11.625 C5.54405875 14.94774404 4.0743356 16.40118008 0 17.25 C-4.0743356 16.40118008 -5.54405875 14.94774404 -8 11.625 C-8.625 8.625 -8.625 8.625 -8 5.625 C-5.54405875 2.30225596 -4.0743356 0.84881992 0 0 Z " fill="#F0684D" transform="translate(448,337.375)"/>
<path d="M0 0 C4.0743356 0.84881992 5.54405875 2.30225596 8 5.625 C8.625 8.625 8.625 8.625 8 11.625 C5.54405875 14.94774404 4.0743356 16.40118008 0 17.25 C-4.0743356 16.40118008 -5.54405875 14.94774404 -8 11.625 C-8.625 8.625 -8.625 8.625 -8 5.625 C-5.54405875 2.30225596 -4.0743356 0.84881992 0 0 Z " fill="#EF684D" transform="translate(64,337.375)"/>
<path d="M0 0 C4.0743356 0.84881992 5.54405875 2.30225596 8 5.625 C8.625 8.625 8.625 8.625 8 11.625 C5.54405875 14.94774404 4.0743356 16.40118008 0 17.25 C-4.0743356 16.40118008 -5.54405875 14.94774404 -8 11.625 C-8.625 8.625 -8.625 8.625 -8 5.625 C-5.54405875 2.30225596 -4.0743356 0.84881992 0 0 Z " fill="#F0684D" transform="translate(256,49.375)"/>
</svg>
