<?xml version="1.0" encoding="UTF-8"?>
<svg version="1.1" xmlns="http://www.w3.org/2000/svg" width="512" height="500">
<path d="M0 0 C4.07170985 2.09695588 8.00097404 4.41091782 11.9375 6.75 C13.66501722 7.76192293 15.39254237 8.77383261 17.12054443 9.78492737 C18.90424629 10.82991031 20.68586583 11.87837773 22.46728516 12.92724609 C26.92631395 15.54859415 31.409946 18.12684149 35.89428711 20.70458984 C39.1149852 22.55674071 42.33123958 24.41641983 45.546875 26.27734375 C49.9629592 28.83093972 54.39158868 31.3610262 58.828125 33.87890625 C61.01049819 35.12746169 63.1927928 36.37615447 65.375 37.625 C66.38578613 38.1929126 67.39657227 38.7608252 68.43798828 39.34594727 C69.37368652 39.88405029 70.30938477 40.42215332 71.2734375 40.9765625 C72.09247559 41.44143066 72.91151367 41.90629883 73.75537109 42.38525391 C76.52654007 44.37878356 78.19562609 46.08329219 80 49 C80.39066047 51.79359091 80.56241135 54.18205683 80.53125 56.96875 C80.5350769 57.72667847 80.53890381 58.48460693 80.54284668 59.26550293 C80.54555955 60.86239964 80.53824203 62.45934126 80.52148438 64.05615234 C80.50006264 66.49287494 80.52130389 68.92664976 80.546875 71.36328125 C80.54423161 72.9192773 80.53910639 74.47527153 80.53125 76.03125 C80.53934692 76.75534058 80.54744385 77.47943115 80.55578613 78.22546387 C80.4901046 81.789684 80.05190628 83.9127315 78.21679688 86.99804688 C76 89 76 89 72 89 C72 93.62 72 98.24 72 103 C73.65 103.33 75.3 103.66 77 104 C79.62791013 106.36436818 79.97557504 107.76334925 80.34057617 111.29980469 C80.32486572 112.57758789 80.30915527 113.85537109 80.29296875 115.171875 C80.28872391 115.8542926 80.28447906 116.53671021 80.28010559 117.23980713 C80.26336972 119.41028004 80.22572959 121.57980979 80.1875 123.75 C80.17244646 125.22524697 80.15875922 126.70050855 80.14648438 128.17578125 C80.11348377 131.78415844 80.06173767 135.3919871 80 139 C80.70745361 139.26466064 81.41490723 139.52932129 82.14379883 139.80200195 C85.14837346 141.0622334 87.87500798 142.54383309 90.69921875 144.16796875 C91.81321045 144.80653809 92.92720215 145.44510742 94.07495117 146.10302734 C95.27919015 146.79775444 96.48337166 147.49258116 97.6875 148.1875 C98.93776031 148.90601685 100.18816946 149.62427477 101.4387207 150.34228516 C104.66338907 152.19487739 107.88570525 154.05152123 111.10742188 155.90924072 C114.0806805 157.62283415 117.05612888 159.33261104 120.03125 161.04296875 C125.3948252 164.12869623 130.75311046 167.22342303 136.10742188 170.32519531 C137.98017083 171.40951822 139.85381221 172.49230189 141.72851562 173.57324219 C144.13422755 174.96087146 146.53642226 176.35437192 148.9375 177.75 C149.96653442 178.34143799 149.96653442 178.34143799 151.01635742 178.94482422 C156.84324874 182.3496899 156.84324874 182.3496899 159 185 C159.38311005 186.91691399 159.38311005 186.91691399 159.39440918 189.12350464 C159.41143387 190.38097504 159.41143387 190.38097504 159.42880249 191.66384888 C159.42587189 192.58028168 159.42294128 193.49671448 159.41992188 194.44091797 C159.42839142 195.40868164 159.43686096 196.37644531 159.44558716 197.37353516 C159.46902915 200.57988548 159.46997751 203.78575788 159.46875 206.9921875 C159.4758478 209.21794834 159.48354623 211.44370734 159.49182129 213.66946411 C159.50528309 218.33845096 159.50682746 223.00726868 159.50097656 227.67626953 C159.49508243 233.6610482 159.52565298 239.64501511 159.56609344 245.62963676 C159.59193887 250.22787858 159.59485063 254.82592422 159.59120178 259.42422867 C159.59289634 261.63065759 159.60257093 263.83709525 159.62034607 266.04345322 C159.64247009 269.12961915 159.6328661 272.2141329 159.61523438 275.30029297 C159.62849762 276.21267731 159.64176086 277.12506165 159.65542603 278.06509399 C159.59554828 282.57351735 159.48210411 284.39779103 156.57649231 288.02726746 C154.54661433 289.58147599 152.6714023 290.99390457 150.41796875 292.18359375 C149.74636719 292.54606201 149.07476562 292.90853027 148.3828125 293.28198242 C147.65835937 293.66330322 146.93390625 294.04462402 146.1875 294.4375 C144.56507497 295.31525206 142.94405262 296.19560028 141.32421875 297.078125 C140.46103027 297.54798828 139.5978418 298.01785156 138.70849609 298.50195312 C134.93225414 300.59056144 131.20548721 302.75903392 127.48266602 304.94116211 C125.4738754 306.11730022 123.45990332 307.28462789 121.44116211 308.44360352 C116.06029899 311.54569157 110.8210158 314.75567118 105.671875 318.23046875 C91.35497391 327.65117987 78.74424553 332.62927262 61.40771484 329.84326172 C52.01321953 327.51853133 44.05596933 322.28174094 36.06884766 316.99755859 C30.98056801 313.68552168 25.70144672 310.7091335 20.4375 307.6875 C18.45835508 306.53735661 16.48044987 305.3850768 14.50390625 304.23046875 C13.57336426 303.68696777 12.64282227 303.1434668 11.68408203 302.58349609 C9.159673 301.09420039 6.65432059 299.57736708 4.15234375 298.05078125 C2.72666871 297.20034275 1.30089528 296.35006918 -0.125 295.5 C-0.74576416 295.10772217 -1.36652832 294.71544434 -2.00610352 294.3112793 C-4.8011334 292.66776277 -6.51201209 291.9301887 -9.7578125 292.39453125 C-14.55873001 294.77185305 -19.15066982 297.44328027 -23.75 300.1875 C-25.8928051 301.45254151 -28.03605038 302.71683763 -30.1796875 303.98046875 C-31.29311523 304.63837402 -32.40654297 305.2962793 -33.55371094 305.97412109 C-40.37133359 309.98181681 -47.23536813 313.90928278 -54.09277344 317.84838867 C-55.11145508 318.43467041 -56.13013672 319.02095215 -57.1796875 319.625 C-58.1687207 320.18743408 -59.15775391 320.74986816 -60.17675781 321.3293457 C-61.98853139 322.40146319 -63.76898779 323.52948545 -65.50292969 324.72338867 C-75.39304251 331.41794155 -86.63969552 330.93939872 -98.19775391 329.74121094 C-108.19541303 327.79226442 -116.4364725 321.77064766 -124.73681641 316.15185547 C-130.28929185 312.49036223 -136.08861683 309.27389111 -141.875 306 C-143.9362142 304.81478985 -145.99616256 303.62737485 -148.0546875 302.4375 C-149.02889648 301.87933594 -150.00310547 301.32117188 -151.00683594 300.74609375 C-153.11515824 299.51618175 -155.20558801 298.25534046 -157.28222656 296.97265625 C-158.34666992 296.32167969 -159.41111328 295.67070312 -160.5078125 295 C-161.46574707 294.401875 -162.42368164 293.80375 -163.41064453 293.1875 C-165.84449468 291.81587993 -165.84449468 291.81587993 -168.09033203 292.16967773 C-170.18352032 293.07979451 -172.09439363 294.10117044 -174.046875 295.28515625 C-174.81 295.73310547 -175.573125 296.18105469 -176.359375 296.64257812 C-177.9433198 297.58336887 -179.52157797 298.53380554 -181.09375 299.49414062 C-186.37506649 302.56457043 -189.87907811 303.73530555 -196 303 C-196.99 302.34 -197.98 301.68 -199 301 C-202.51731838 302.77122104 -205.88456742 304.57933646 -209 307 C-209.4167552 310.04211431 -209.4167552 310.04211431 -209 313 C-216.69884769 322.03777773 -227.86162048 328.53892083 -239.59765625 330.203125 C-256.93875137 331.56949652 -268.74811141 326.38082106 -282.95751953 316.97998047 C-286.9426376 314.38655184 -291.04272588 312.02740327 -295.16821289 309.66601562 C-298.15406965 307.95663858 -301.12184363 306.21945553 -304.0859375 304.47265625 C-308.14222464 302.08521452 -312.21094144 299.72103677 -316.2890625 297.37109375 C-318.29696328 296.20588128 -320.30477901 295.04052222 -322.3125 293.875 C-323.24408936 293.34253662 -324.17567871 292.81007324 -325.13549805 292.26147461 C-325.9944165 291.76010986 -326.85333496 291.25874512 -327.73828125 290.7421875 C-328.49149658 290.3076123 -329.24471191 289.87303711 -330.02075195 289.42529297 C-332.42023854 287.69737849 -333.53557224 286.60733346 -335 284 C-335.44730765 280.90349316 -335.39925425 277.82897677 -335.37231445 274.70507812 C-335.37596512 273.76482285 -335.37961578 272.82456757 -335.38337708 271.8558197 C-335.39148371 268.74744614 -335.37787129 265.63959367 -335.36328125 262.53125 C-335.36276266 260.37178549 -335.36328032 258.21232049 -335.36479187 256.05285645 C-335.36470214 251.52686517 -335.35427122 247.00105199 -335.33618164 242.47509766 C-335.31349459 236.67097752 -335.31295035 230.86711767 -335.31969929 225.06296539 C-335.32303934 220.60375654 -335.31640847 216.14460713 -335.30657005 211.68540955 C-335.3027184 209.54516409 -335.30156969 207.40491203 -335.3031559 205.2646637 C-335.30352638 202.27462141 -335.29091086 199.28491392 -335.2746582 196.29492188 C-335.27837433 194.96538734 -335.27837433 194.96538734 -335.28216553 193.60899353 C-335.27153831 192.38515709 -335.27153831 192.38515709 -335.26069641 191.13659668 C-335.25761711 190.07695332 -335.25761711 190.07695332 -335.25447559 188.99590302 C-334.9516914 186.62110595 -334.2420975 185.03939672 -333 183 C-330.79882813 181.40698242 -330.79882813 181.40698242 -328.03125 179.85546875 C-326.99871094 179.26894531 -325.96617187 178.68242187 -324.90234375 178.078125 C-323.77957031 177.45421875 -322.65679687 176.8303125 -321.5 176.1875 C-320.32357345 175.52327703 -319.14780209 174.85789243 -317.97265625 174.19140625 C-315.52986163 172.80716423 -313.08431813 171.42797325 -310.63671875 170.05224609 C-305.06435963 166.91474474 -299.53450463 163.70362997 -294 160.5 C-291.85954266 159.2653343 -289.71891652 158.03096117 -287.578125 156.796875 C-283.5874482 154.49483902 -279.59873078 152.18947837 -275.61242676 149.87988281 C-273.23187827 148.50081969 -270.85058694 147.12304215 -268.46923828 145.74536133 C-266.7951735 144.77615342 -265.12218088 143.80509435 -263.44921875 142.83398438 C-261.91974609 141.94936523 -261.91974609 141.94936523 -260.359375 141.046875 C-259.46702148 140.52963867 -258.57466797 140.01240234 -257.65527344 139.47949219 C-248.38595669 134.31472026 -248.38595669 134.31472026 -242 136 C-239.43613546 137.29198101 -237.10365442 138.60285554 -234.6875 140.125 C-233.18067957 141.04199676 -231.67279582 141.95724768 -230.1640625 142.87109375 C-228.93091309 143.62302002 -228.93091309 143.62302002 -227.67285156 144.39013672 C-222.67972426 147.39750623 -217.61671443 150.28440808 -212.5625 153.1875 C-210.33969622 154.46719169 -208.11704234 155.74714379 -205.89453125 157.02734375 C-204.76869629 157.67558105 -203.64286133 158.32381836 -202.48291016 158.99169922 C-198.90602278 161.0528258 -195.33373631 163.1218555 -191.76171875 165.19140625 C-190.57547225 165.87806773 -189.38919335 166.56467324 -188.20288086 167.2512207 C-185.95162129 168.55441395 -183.70109665 169.85887787 -181.45141602 171.16479492 C-180.43104248 171.75494385 -179.41066895 172.34509277 -178.359375 172.953125 C-177.46702148 173.47036133 -176.57466797 173.98759766 -175.65527344 174.52050781 C-174.7790332 175.00874023 -173.90279297 175.49697266 -173 176 C-172.01201416 176.6077124 -171.02402832 177.2154248 -170.00610352 177.84155273 C-167.07736473 179.31862788 -167.07736473 179.31862788 -164.29370117 178.21411133 C-163.38595947 177.6755249 -162.47821777 177.13693848 -161.54296875 176.58203125 C-160.52211182 175.99236572 -159.50125488 175.4027002 -158.44946289 174.79516602 C-157.37301514 174.14088623 -156.29656738 173.48660645 -155.1875 172.8125 C-154.06529053 172.15628662 -152.94308105 171.50007324 -151.78686523 170.82397461 C-148.51159102 168.90362987 -145.25499434 166.95445671 -142 165 C-140.49900003 164.11705884 -138.99662812 163.2364408 -137.4921875 162.359375 C-134.86358473 160.82532833 -132.24191639 159.28045583 -129.625 157.7265625 C-123.46600495 154.08127064 -117.26192805 150.51339892 -111.0625 146.9375 C-110.477034 146.59945343 -109.89156799 146.26140686 -109.2883606 145.91311646 C-99.34497012 140.17248506 -99.34497012 140.17248506 -97 139 C-96.99413376 137.89610428 -96.98826752 136.79220856 -96.98222351 135.65486145 C-96.92501194 125.25196132 -96.8522584 114.84927055 -96.76428509 104.44658375 C-96.71955655 99.09843769 -96.6803058 93.75036825 -96.65356445 88.40209961 C-96.62755641 83.24076915 -96.58717147 78.07973314 -96.53681374 72.91858482 C-96.52012815 70.94945627 -96.50862442 68.98027678 -96.50238609 67.01108742 C-96.49276349 64.25292718 -96.46472615 61.49552312 -96.43237305 58.73754883 C-96.43380814 57.92330948 -96.43524323 57.10907013 -96.4367218 56.27015686 C-96.36048714 51.67513572 -95.87519307 48.64154029 -93 45 C-90.3269043 43.02758789 -90.3269043 43.02758789 -87.13671875 41.16015625 C-86.56289963 40.82033218 -85.98908051 40.48050812 -85.39787292 40.13038635 C-83.60576049 39.07401554 -81.8042106 38.03554627 -80 37 C-78.92186035 36.37335449 -77.8437207 35.74670898 -76.73291016 35.10107422 C-73.43495278 33.19726932 -70.12553425 31.31493353 -66.8125 29.4375 C-64.35744354 28.04146953 -61.90334622 26.6437565 -59.44921875 25.24609375 C-58.83159668 24.89461273 -58.21397461 24.54313171 -57.57763672 24.18099976 C-51.07825173 20.48020869 -44.60079491 16.7418964 -38.125 13 C-35.9909072 11.76819143 -33.85679352 10.53641902 -31.72265625 9.3046875 C-29.00301531 7.73465 -26.2836259 6.16420147 -23.56591797 4.59082031 C-21.566118 3.43320529 -19.56460271 2.27862595 -17.5625 1.125 C-16.53253906 0.52945313 -15.50257813 -0.06609375 -14.44140625 -0.6796875 C-8.73620956 -3.76505787 -5.69785002 -2.41886872 0 0 Z " fill="#010201" transform="translate(353,171)"/>
<path d="M0 0 C4.43703805 1.949472 8.22192522 4.73528046 12.09814453 7.61230469 C16.79440561 10.9060177 21.86561969 13.60434674 26.85400391 16.42578125 C29.07493788 17.7068056 31.29497861 18.98937972 33.51416016 20.2734375 C37.63063178 22.64549166 41.75599386 24.99956448 45.8964386 27.32948303 C47.7032248 28.34705632 49.50759351 29.36878849 51.3112793 30.3918457 C53.58306532 31.67873957 55.85942216 32.95760707 58.14086914 34.22729492 C59.68109741 35.10285034 59.68109741 35.10285034 61.25244141 35.99609375 C62.15526855 36.50285645 63.0580957 37.00961914 63.98828125 37.53173828 C67.31601343 39.87045213 70.0102172 42.05778786 70.79026031 46.24418831 C70.94465031 48.7447373 70.9683101 51.21734203 70.94995117 53.72265625 C70.95856674 54.67120483 70.96718231 55.61975342 70.97605896 56.5970459 C70.99873367 59.72773644 70.99197754 62.85753302 70.98291016 65.98828125 C70.9881448 68.16634385 70.99442069 70.34440419 71.00169373 72.52246094 C71.01210054 77.08539504 71.00753184 81.64801733 70.99291992 86.2109375 C70.97572591 92.05893723 70.99923422 97.90595504 71.03440952 103.75384521 C71.05636607 108.25088006 71.05494631 112.74767929 71.04664421 117.24475098 C71.04582386 119.40093056 71.05270325 121.55712729 71.06741524 123.71325684 C71.08482982 126.72742156 71.070344 129.73981299 71.04760742 132.75390625 C71.06514572 134.08971741 71.06514572 134.08971741 71.08303833 135.45251465 C71.01500119 139.88421496 70.8754089 141.66429928 68.02069092 145.23487854 C65.64576931 147.06190723 63.36689255 148.64113359 60.74072266 150.078125 C59.39457886 150.82509644 59.39457886 150.82509644 58.02124023 151.5871582 C57.05855225 152.11140381 56.09586426 152.63564941 55.10400391 153.17578125 C53.01720852 154.33308988 50.93129736 155.49199406 48.84619141 156.65234375 C47.77723633 157.24563477 46.70828125 157.83892578 45.60693359 158.45019531 C40.60895894 161.25132528 35.66918949 164.14931703 30.72900391 167.05078125 C22.2304278 172.02824613 13.7090519 176.96394258 5.16098022 181.85580444 C3.92775922 182.56162664 2.69486201 183.26801494 1.46231079 183.9750061 C-0.26289516 184.96425097 -1.98957708 185.95092042 -3.71630859 186.9375 C-4.70518066 187.50299561 -5.69405273 188.06849121 -6.71289062 188.65112305 C-7.66019043 189.17488525 -8.60749023 189.69864746 -9.58349609 190.23828125 C-11.06438721 191.11383667 -11.06438721 191.11383667 -12.57519531 192.00708008 C-16.19423269 193.48823618 -17.85984793 193.31630913 -21.58349609 192.23828125 C-24.17871094 191.06176758 -24.17871094 191.06176758 -26.79443359 189.5703125 C-27.77919678 189.0141626 -28.76395996 188.4580127 -29.77856445 187.88500977 C-30.82794189 187.27971436 -31.87731934 186.67441895 -32.95849609 186.05078125 C-34.06265869 185.42292725 -35.16682129 184.79507324 -36.30444336 184.14819336 C-45.71751796 178.78029632 -55.07904021 173.3225058 -64.42333984 167.8359375 C-68.79513391 165.27325945 -73.1850519 162.74408744 -77.58740234 160.234375 C-78.76655718 159.56053023 -79.94567527 158.88662116 -81.12475586 158.21264648 C-83.3662794 156.93310947 -85.61012133 155.65762195 -87.85668945 154.38696289 C-88.88028564 153.80164795 -89.90388184 153.21633301 -90.95849609 152.61328125 C-91.85310547 152.10539063 -92.74771484 151.5975 -93.66943359 151.07421875 C-95.11189453 150.16542969 -95.11189453 150.16542969 -96.58349609 149.23828125 C-97.57342576 148.67006574 -97.57342576 148.67006574 -98.583354 148.09037113 C-104.12868405 144.54569799 -104.12868405 144.54569799 -105.32431984 141.10868645 C-105.60362118 138.52817737 -105.63095239 136.05185398 -105.57104492 133.45678711 C-105.5802446 132.48858536 -105.58944427 131.52038361 -105.59892273 130.52284241 C-105.61879407 127.33164339 -105.58098315 124.14408554 -105.54052734 120.953125 C-105.53829709 118.7316549 -105.53888197 116.51018035 -105.54216003 114.28871155 C-105.54041797 109.63720383 -105.51132474 104.98693109 -105.46166992 100.33569336 C-105.39926654 94.37438874 -105.39439893 88.41476815 -105.4086504 82.45320797 C-105.41506177 77.86772917 -105.39630688 73.28263098 -105.36939049 68.69723701 C-105.35851338 66.49922491 -105.35423399 64.30116991 -105.35666847 62.10313225 C-105.35524109 59.03141154 -105.32123499 55.96176176 -105.27807617 52.89038086 C-105.28348419 51.98270966 -105.28889221 51.07503845 -105.29446411 50.13986206 C-105.19605568 45.65777592 -105.05352804 43.82483187 -102.16395569 40.21894836 C-100.03503888 38.5848691 -98.04992574 37.13334023 -95.68505859 35.87890625 C-94.96568115 35.48944824 -94.24630371 35.09999023 -93.50512695 34.69873047 C-92.74723877 34.29928223 -91.98935059 33.89983398 -91.20849609 33.48828125 C-85.81971639 30.59925845 -80.56015965 27.63362299 -75.41796875 24.32446289 C-69.37345632 20.46515451 -64.93104682 17.89123028 -57.58349609 19.23828125 C-56.59349609 19.89828125 -55.60349609 20.55828125 -54.58349609 21.23828125 C-51.06602959 19.46698562 -47.70105149 17.6563145 -44.58349609 15.23828125 C-44.08339086 12.19597302 -44.08339086 12.19597302 -44.58349609 9.23828125 C-36.71040241 -4.79636401 -13.34279147 -3.93399257 0 0 Z " fill="#000201" transform="translate(104.58349609375,0.76171875)"/>
<path d="M0 0 C2.62353516 1.23657227 2.62353516 1.23657227 5.2890625 2.81640625 C6.30000977 3.40832764 7.31095703 4.00024902 8.35253906 4.61010742 C9.97240723 5.57654175 9.97240723 5.57654175 11.625 6.5625 C13.34857239 7.57506796 15.07216293 8.58760603 16.79663086 9.59864807 C17.99928446 10.30424711 19.20126041 11.01100232 20.40258789 11.71885681 C24.82287595 14.32145735 29.26702069 16.87937228 33.7265625 19.4140625 C34.3584549 19.77336349 34.99034729 20.13266449 35.64138794 20.50285339 C38.11472464 21.9083457 40.58864343 23.31280101 43.06378174 24.71511841 C44.77802718 25.68699293 46.49060541 26.66180635 48.203125 27.63671875 C49.17926758 28.19061279 50.15541016 28.74450684 51.16113281 29.31518555 C54.18742947 31.11123587 57.08852434 33.0244328 60 35 C57.2574867 37.92458395 54.57584245 40.04298103 51.125 42.07421875 C49.66658691 42.93998535 49.66658691 42.93998535 48.17871094 43.82324219 C47.12973633 44.43844727 46.08076172 45.05365234 45 45.6875 C42.7547172 47.01870322 40.50994581 48.35076932 38.265625 49.68359375 C37.68145813 50.02959625 37.09729126 50.37559875 36.49542236 50.73208618 C29.54748266 54.85060834 22.64943112 59.05091441 15.75 63.25 C13.41160015 64.67210837 11.07298243 66.09385798 8.734375 67.515625 C7.25275879 68.41716309 7.25275879 68.41716309 5.74121094 69.33691406 C4.83661133 69.88573242 3.93201172 70.43455078 3 71 C2.10522949 71.5679126 1.21045898 72.1358252 0.28857422 72.72094727 C-2 74 -2 74 -4.3515625 73.94921875 C-7.95559256 72.65750886 -11.12082642 70.79606601 -14.375 68.8125 C-15.10686523 68.37397705 -15.83873047 67.9354541 -16.59277344 67.48364258 C-19.06688235 65.99727723 -21.53364539 64.49919326 -24 63 C-25.83066916 61.89312992 -27.66140022 60.7863622 -29.4921875 59.6796875 C-42.3807063 51.87170059 -55.20120429 43.95400864 -68 36 C-62.76761054 31.43649331 -56.72351083 28.33194245 -50.68554688 24.97851562 C-49.85732422 24.50994141 -49.02910156 24.04136719 -48.17578125 23.55859375 C-47.42208252 23.13892334 -46.66838379 22.71925293 -45.8918457 22.28686523 C-43.71465798 20.97931338 -43.71465798 20.97931338 -42 18 C-42.185625 16.9275 -42.37125 15.855 -42.5625 14.75 C-42 11 -42 11 -39.62890625 8.98828125 C-31.84799696 4 -31.84799696 4 -29 4 C-28.5875 4.495 -28.175 4.99 -27.75 5.5 C-26.03997993 7.2426822 -26.03997993 7.2426822 -23.328125 7.34765625 C-18.50569656 6.84390492 -15.15479214 4.36069786 -11.2109375 1.75585938 C-6.92533447 -0.91084295 -4.83284174 -1.20877847 0 0 Z " fill="#6BE599" transform="translate(91,12)"/>
<path d="M0 0 C0.20874464 9.67483306 0.36854817 19.34888866 0.46630955 29.02548409 C0.51323712 33.51910179 0.57685456 38.01117664 0.67895508 42.50390625 C0.77691694 46.84178629 0.83059099 51.1781851 0.85389519 55.51708603 C0.87049592 57.17026978 0.90291739 58.8233744 0.95157051 60.47592545 C1.31777806 73.43261383 1.31777806 73.43261383 -1.9427948 77.31079102 C-4.25058207 78.87331538 -6.42092559 79.96185391 -9 81 C-10.13308594 81.67546875 -11.26617187 82.3509375 -12.43359375 83.046875 C-13.42488281 83.60890625 -14.41617188 84.1709375 -15.4375 84.75 C-19.4874727 87.02365918 -19.4874727 87.02365918 -23 90 C-23.07052652 91.43592001 -23.08424349 92.87501348 -23.0625 94.3125 C-23.32597295 97.44884149 -23.55593926 98.59835969 -25.921875 100.73828125 C-31.8336496 104.16749691 -31.8336496 104.16749691 -35.23046875 103.6796875 C-37 103 -37 103 -38 102 C-45.1080704 101.2401172 -48.98866965 103.17904872 -54.875 107 C-56.37026356 107.94089714 -57.86756254 108.87856986 -59.3671875 109.8125 C-60.01800293 110.23144531 -60.66881836 110.65039062 -61.33935547 111.08203125 C-63 112 -63 112 -65 112 C-65.46563318 102.69092626 -65.81977238 93.38590971 -66.03624344 84.0676918 C-66.14021531 79.73899717 -66.28078983 75.41831562 -66.50878906 71.09423828 C-67.93815415 43.26088536 -67.93815415 43.26088536 -63.15670776 36.32687378 C-58.54140043 32.12730794 -53.28514131 29.8771614 -47.43365479 27.87506104 C-44.25087614 26.73064006 -41.57280708 25.07603779 -38.75390625 23.22265625 C-37.88717285 22.69559082 -37.02043945 22.16852539 -36.12744141 21.62548828 C-35.28101074 21.10970215 -34.43458008 20.59391602 -33.5625 20.0625 C-32.62583496 19.49257324 -31.68916992 18.92264648 -30.72412109 18.33544922 C-22.91421189 13.575734 -15.13813497 8.76206201 -7.38500977 3.91040039 C-6.55928467 3.39598389 -5.73355957 2.88156738 -4.8828125 2.3515625 C-4.15465332 1.89604004 -3.42649414 1.44051758 -2.67626953 0.97119141 C-1 0 -1 0 0 0 Z " fill="#6AE498" transform="translate(178,373)"/>
<path d="M0 0 C3.47730387 1.86700879 6.9133031 3.76229613 10.28515625 5.8125 C11.79390708 6.71415062 13.30304475 7.61515415 14.8125 8.515625 C15.62702637 9.00353516 16.44155273 9.49144531 17.28076172 9.99414062 C22.11895424 12.87998545 26.98291241 15.72171174 31.84765625 18.5625 C32.86134277 19.15466309 33.8750293 19.74682617 34.91943359 20.35693359 C43.84543499 25.55531103 52.85193021 30.59877512 61.91015625 35.5625 C61.91015625 36.2225 61.91015625 36.8825 61.91015625 37.5625 C60.04530098 38.85617783 58.11151993 40.05064637 56.15625 41.203125 C55.5523494 41.56208862 54.94844879 41.92105225 54.32624817 42.29089355 C52.33723861 43.47140936 50.34245683 44.64180119 48.34765625 45.8125 C46.97638879 46.62448302 45.60562331 47.43731434 44.23535156 48.25097656 C42.15046025 49.4889009 40.06530038 50.72633863 37.97854614 51.96112061 C31.67361044 55.69281907 25.41118955 59.49110964 19.16015625 63.3125 C13.97231512 66.48131721 13.97231512 66.48131721 11.38476562 68.03710938 C9.65352916 69.1042725 7.94794778 70.21367725 6.26367188 71.35351562 C-0.24495343 75.63920999 -0.24495343 75.63920999 -4.14453125 75.28515625 C-5.11648437 74.71667969 -6.0884375 74.14820313 -7.08984375 73.5625 C-7.74114258 73.18851074 -8.39244141 72.81452148 -9.06347656 72.42919922 C-11.48282419 71.00470861 -13.84757828 69.50940633 -16.21484375 68 C-18.07731222 66.82943496 -19.94064146 65.66023873 -21.8046875 64.4921875 C-22.80741699 63.86280273 -23.81014648 63.23341797 -24.84326172 62.58496094 C-30.79003768 58.88041198 -36.78517391 55.25548671 -42.77734375 51.625 C-43.95787531 50.90882267 -45.13837724 50.19259648 -46.31884766 49.47631836 C-47.44339355 48.79448486 -48.56793945 48.11265137 -49.7265625 47.41015625 C-50.7995459 46.75805176 -51.8725293 46.10594727 -52.97802734 45.43408203 C-55.02277333 44.20428266 -57.07763521 42.99111959 -59.14306641 41.79638672 C-60.06007324 41.26416504 -60.97708008 40.73194336 -61.921875 40.18359375 C-62.72987549 39.72267334 -63.53787598 39.26175293 -64.37036133 38.78686523 C-64.93779053 38.38282471 -65.50521973 37.97878418 -66.08984375 37.5625 C-66.08984375 36.9025 -66.08984375 36.2425 -66.08984375 35.5625 C-65.36095947 35.16047363 -64.6320752 34.75844727 -63.88110352 34.34423828 C-46.88934047 24.99764266 -46.88934047 24.99764266 -30.08984375 15.3125 C-29.44176758 14.9314209 -28.79369141 14.5503418 -28.12597656 14.15771484 C-24.40449287 11.96168751 -20.71898958 9.715167 -17.046875 7.4375 C-15.33215189 6.39563475 -13.61731035 5.35396439 -11.90234375 4.3125 C-11.11150391 3.80944336 -10.32066406 3.30638672 -9.50585938 2.78808594 C-3.94227359 -0.55819803 -3.94227359 -0.55819803 0 0 Z " fill="#6BE598" transform="translate(108.08984375,323.4375)"/>
<path d="M0 0 C2.58000283 1.31865713 5.13560048 2.65163621 7.66308594 4.06884766 C9.14699829 4.89932617 9.14699829 4.89932617 10.66088867 5.74658203 C11.71735596 6.34277344 12.77382324 6.93896484 13.86230469 7.55322266 C14.95937744 8.17003906 16.0564502 8.78685547 17.18676758 9.42236328 C27.81392944 15.41651073 38.37515107 21.52523555 48.88134766 27.72900391 C50.72520205 28.81675991 52.57348858 29.89702537 54.42529297 30.97119141 C55.3339209 31.50357422 56.24254883 32.03595703 57.17871094 32.58447266 C57.9954126 33.05949219 58.81211426 33.53451172 59.65356445 34.02392578 C61.54980469 35.30322266 61.54980469 35.30322266 62.54980469 37.30322266 C59.70427721 39.03086434 56.85874348 40.75849569 54.01318359 42.48608398 C51.51532664 44.00262513 49.01762218 45.51941704 46.52001953 47.03637695 C40.5516241 50.66110469 34.5825335 54.28465429 28.60900879 57.90092468 C26.07280264 59.43639432 23.53717541 60.97281854 21.00158691 62.50930786 C19.79248443 63.24161676 18.58309717 63.9734557 17.37341309 64.70480347 C15.67366576 65.73249385 13.97499693 66.76196735 12.27636719 67.79150391 C11.3129541 68.37456299 10.34954102 68.95762207 9.35693359 69.55834961 C6.45197608 71.3077219 6.45197608 71.3077219 3.50439453 73.58520508 C0.54980469 75.30322266 0.54980469 75.30322266 -1.97338867 75.25439453 C-4.90288139 74.12937692 -7.40760827 72.73585236 -10.07910156 71.08447266 C-11.18374756 70.40731201 -12.28839355 69.73015137 -13.42651367 69.0324707 C-14.62200343 68.28954228 -15.81739493 67.54645572 -17.01269531 66.80322266 C-18.24864707 66.0418183 -19.48506413 65.2811688 -20.72192383 64.52124023 C-22.65095186 63.33567869 -24.57949801 62.14938239 -26.50627136 60.9601593 C-31.10370469 58.12326197 -35.72007378 55.31947753 -40.34863281 52.53369141 C-41.62525793 51.76418303 -42.90186946 50.99465211 -44.1784668 50.22509766 C-46.01921437 49.11568005 -47.86042596 48.00708326 -49.70339966 46.90136719 C-51.41137599 45.87590427 -53.11639145 44.84551477 -54.82128906 43.81494141 C-55.78993896 43.23188232 -56.75858887 42.64882324 -57.7565918 42.0480957 C-60.47412468 40.2877216 -62.95870949 38.36827619 -65.45019531 36.30322266 C-56.15739451 30.50443076 -46.74145306 24.98381633 -37.20455933 19.59381104 C-30.71611283 15.92326755 -24.26346664 12.22380043 -17.91894531 8.30712891 C-16.91790771 7.69377686 -15.91687012 7.0804248 -14.88549805 6.44848633 C-13.01092883 5.29334896 -11.14530426 4.1235311 -9.2902832 2.93725586 C-8.45746826 2.42638428 -7.62465332 1.9155127 -6.76660156 1.38916016 C-6.04931885 0.93589355 -5.33203613 0.48262695 -4.59301758 0.015625 C-2.45019531 -0.69677734 -2.45019531 -0.69677734 0 0 Z " fill="#A0D9FD" transform="translate(346.4501953125,185.69677734375)"/>
<path d="M0 0 C0.82733643 0.44891602 1.65467285 0.89783203 2.50708008 1.36035156 C3.3260376 1.78606445 4.14499512 2.21177734 4.98876953 2.65039062 C5.85719482 3.13733398 6.72562012 3.62427734 7.62036133 4.12597656 C9.10427368 4.95645508 9.10427368 4.95645508 10.61816406 5.80371094 C11.67463135 6.39990234 12.73109863 6.99609375 13.81958008 7.61035156 C14.91665283 8.22716797 16.01372559 8.84398437 17.14404297 9.47949219 C32.05685607 17.89091959 46.84305328 26.52252355 61.50708008 35.36035156 C60.2080535 39.25743131 58.76477089 39.69612798 55.26879883 41.77441406 C54.15126221 42.44520996 53.03372559 43.11600586 51.88232422 43.80712891 C50.65313559 44.53330371 49.42388604 45.25937541 48.19458008 45.98535156 C46.93939257 46.73524748 45.68476084 47.48607438 44.43066406 48.23779297 C41.80363438 49.81152745 39.17420145 51.38113613 36.54321289 52.94824219 C30.64177943 56.46862084 24.77443362 60.04507606 18.90493774 63.61834717 C15.98326351 65.39648721 13.05964612 67.17141546 10.13598633 68.94628906 C9.16733643 69.53458496 8.19868652 70.12288086 7.20068359 70.72900391 C5.86734985 71.536521 5.86734985 71.536521 4.50708008 72.36035156 C3.62084961 72.93446777 2.73461914 73.50858398 1.8215332 74.10009766 C-0.49291992 75.36035156 -0.49291992 75.36035156 -3.15307617 74.93847656 C-7.96323366 72.66560682 -12.41858627 69.9219859 -16.93041992 67.11035156 C-18.98890171 65.84194067 -21.04749884 64.57371697 -23.10620117 63.30566406 C-24.1601709 62.6537207 -25.21414063 62.00177734 -26.30004883 61.33007812 C-31.39052579 58.18969212 -36.50521917 55.08937038 -41.61791992 51.98535156 C-49.59145945 47.13487123 -57.5538341 42.26704184 -65.49291992 37.36035156 C-62.56662744 34.18594342 -59.64946503 32.10690126 -55.89135742 29.99707031 C-54.77317627 29.36438232 -53.65499512 28.73169434 -52.50292969 28.07983398 C-51.2912756 27.40247818 -50.0796053 26.72515138 -48.86791992 26.04785156 C-47.62131674 25.3445896 -46.37514715 24.64055855 -45.12939453 23.93579102 C-43.20135813 22.84514203 -41.27306917 21.75497052 -39.34342957 20.66716003 C-32.55455104 16.83932335 -25.80326811 12.94743197 -19.05541992 9.04785156 C-17.4232251 8.10655396 -17.4232251 8.10655396 -15.75805664 7.14624023 C-10.25347955 4.02788557 -10.25347955 4.02788557 -4.98095703 0.54711914 C-2.49291992 -0.63964844 -2.49291992 -0.63964844 0 0 Z " fill="#6BE599" transform="translate(426.492919921875,323.6396484375)"/>
<path d="M0 0 C0.94101562 0.52722656 1.88203125 1.05445313 2.8515625 1.59765625 C3.97046875 2.20996094 5.089375 2.82226562 6.2421875 3.453125 C7.53175144 4.2253058 8.81799713 5.00304482 10.1015625 5.78515625 C11.60473226 6.68482542 13.10869297 7.58317389 14.61328125 8.48046875 C15.44005371 8.97450195 16.26682617 9.46853516 17.11865234 9.97753906 C22.35767545 13.08332407 27.637337 16.11902196 32.9140625 19.16015625 C34.58299561 20.12260254 34.58299561 20.12260254 36.28564453 21.10449219 C44.7754778 25.99337451 53.29431579 30.82783142 61.8515625 35.59765625 C61.8515625 36.25765625 61.8515625 36.91765625 61.8515625 37.59765625 C60.10522461 38.88769531 60.10522461 38.88769531 57.62890625 40.36328125 C56.24940796 41.19327637 56.24940796 41.19327637 54.84204102 42.04003906 C53.83455811 42.63655273 52.8270752 43.23306641 51.7890625 43.84765625 C49.67177638 45.11832527 47.55459173 46.38916338 45.4375 47.66015625 C44.3453418 48.31242187 43.25318359 48.9646875 42.12792969 49.63671875 C37.04095858 52.68132024 31.97786166 55.76473251 26.9140625 58.84765625 C25.96217041 59.42362549 25.01027832 59.99959473 24.02954102 60.59301758 C19.65365159 63.24671196 15.30791091 65.92906678 11.02734375 68.734375 C10.29443115 69.21036133 9.56151855 69.68634766 8.80639648 70.17675781 C7.46540682 71.05259611 6.13215629 71.94045729 4.80883789 72.84277344 C2.25030711 74.50840122 0.42686266 75.59676431 -2.66796875 75.6015625 C-5.92863304 74.28189207 -8.78412708 72.52103278 -11.7109375 70.59765625 C-13.12625644 69.69060196 -14.54304684 68.78584143 -15.9609375 67.8828125 C-16.7653125 67.36992676 -17.5696875 66.85704102 -18.3984375 66.32861328 C-23.95983513 62.82805316 -29.59038279 59.43956464 -35.2109375 56.03515625 C-36.43745883 55.29100052 -37.6639402 54.54677892 -38.89038086 53.80249023 C-43.98890207 50.71021765 -49.09091959 47.62429925 -54.21484375 44.57421875 C-54.91923584 44.15470947 -55.62362793 43.7352002 -56.34936523 43.30297852 C-58.11640347 42.25342821 -59.88619524 41.20851744 -61.65625 40.1640625 C-64.1484375 38.59765625 -64.1484375 38.59765625 -66.1484375 36.59765625 C-56.85545228 30.79874928 -47.44020328 25.27610534 -37.90179443 19.88824463 C-31.42052345 16.22413227 -24.97851222 12.53040498 -18.65234375 8.6015625 C-17.65581787 7.98821045 -16.65929199 7.3748584 -15.63256836 6.74291992 C-13.76983498 5.58958718 -11.9171082 4.41988317 -10.07641602 3.23168945 C-3.99874214 -0.51100551 -3.99874214 -0.51100551 0 0 Z " fill="#FDA955" transform="translate(267.1484375,323.40234375)"/>
<path d="M0 0 C0.0093457 0.55461914 0.01869141 1.10923828 0.02832031 1.68066406 C0.08215722 4.20466481 0.16577254 6.72683814 0.25 9.25 C0.26417969 10.12269531 0.27835937 10.99539062 0.29296875 11.89453125 C0.45373879 17.07355342 0.45373879 17.07355342 2.859375 21.546875 C5.02698551 23.15965517 5.02698551 23.15965517 8 24 C8 28.62 8 33.24 8 38 C6.02 38.99 4.04 39.98 2 41 C0.53510455 43.92979091 0.94610329 46.49897926 1 49.765625 C1.00115892 51.14453138 0.99977498 52.5234418 0.99609375 53.90234375 C0.99168271 56.07404801 0.99979725 58.24144763 1.05126953 60.41259766 C1.31158027 72.41155247 1.31158027 72.41155247 -1.78686523 76.1640625 C-4.12329269 77.74695758 -6.40986653 78.88679152 -9 80 C-10.33139784 80.74777576 -11.65605565 81.50771805 -12.97265625 82.28125 C-14.33426821 83.02390209 -15.69762466 83.76336265 -17.0625 84.5 C-26.54803965 89.69417171 -35.88084311 95.13825282 -45.2109375 100.60546875 C-46.61811035 101.42990479 -46.61811035 101.42990479 -48.05371094 102.27099609 C-50.15751474 103.50559491 -52.25953321 104.74323806 -54.36035156 105.98291016 C-55.45057617 106.62405762 -56.54080078 107.26520508 -57.6640625 107.92578125 C-58.66131348 108.51399658 -59.65856445 109.10221191 -60.68603516 109.70825195 C-63 111 -63 111 -64 111 C-64.4423594 101.69076058 -64.77879976 92.38518477 -64.98443127 83.0676918 C-65.0831952 78.73940684 -65.21674833 74.41835566 -65.43334961 70.09423828 C-66.79216673 42.2460008 -66.79216673 42.2460008 -62.230896 35.30975342 C-57.87375934 31.136665 -52.89968996 28.83047736 -47.26235962 26.82885742 C-44.44646811 25.79720332 -42.07208846 24.34847173 -39.578125 22.6953125 C-38.13679513 21.83622472 -36.69412413 20.97938229 -35.25 20.125 C-29.70969308 16.82930821 -24.18664597 13.50965741 -18.6953125 10.1328125 C-17.64311523 9.48683105 -16.59091797 8.84084961 -15.50683594 8.17529297 C-13.44801151 6.90963274 -11.39130198 5.64052461 -9.33691406 4.36767578 C-8.4084668 3.79774902 -7.48001953 3.22782227 -6.5234375 2.640625 C-5.284729 1.87540527 -5.284729 1.87540527 -4.02099609 1.09472656 C-2 0 -2 0 0 0 Z " fill="#A1DAFE" transform="translate(417,236)"/>
<path d="M0 0 C3.51916582 1.40766633 6.36386812 2.68673361 9.5625 4.58203125 C10.43108643 5.09531982 11.29967285 5.6086084 12.19458008 6.13745117 C13.58326294 6.96660034 13.58326294 6.96660034 15 7.8125 C15.96897217 8.38782471 16.93794434 8.96314941 17.9362793 9.5559082 C25.39675479 14.00220893 32.79847878 18.54014577 40.15429688 23.1574707 C40.93482422 23.64562256 41.71535156 24.13377441 42.51953125 24.63671875 C43.33381592 25.18972656 44.14810059 25.74273437 44.98706055 26.3125 C47.5837291 27.76685322 49.56691326 28.49723545 52.38208008 29.296875 C57.73723139 31.10808995 61.93247033 33.07808426 65 38 C67.80522298 49.30117983 66.67422524 61.46011002 66.16729736 72.99023438 C65.99243079 77.38664691 65.91555432 81.78469616 65.83007812 86.18359375 C65.64849243 94.79361077 65.3589692 103.39556042 65 112 C62.62025985 110.73685859 60.24121744 109.47243185 57.86254883 108.20727539 C57.19572334 107.85350075 56.52889786 107.4997261 55.84186554 107.13523102 C50.03549184 104.04482958 44.35611926 100.77599937 38.6875 97.4375 C25.8266305 89.8983696 12.91286194 82.44972804 0 75 C0 50.25 0 25.5 0 0 Z " fill="#6BE598" transform="translate(15,61)"/>
<path d="M0 0 C1.73931806 0.94396397 3.47805537 1.88899807 5.21655273 2.83447266 C6.66903664 3.62369614 6.66903664 3.62369614 8.15086365 4.42886353 C12.17949913 6.65042661 16.12600833 8.99499947 20.0625 11.375 C20.89104492 11.87394775 21.71958984 12.37289551 22.57324219 12.88696289 C34.09690879 19.84486749 45.55902731 26.90708474 57 34 C57.69673828 34.24945877 58.39347656 34.49891754 59.11132812 34.75593567 C61.75191968 35.88216833 63.17490143 36.76133372 65 39 C66.16136862 44.47801724 65.93068896 49.88329423 65.78125 55.45703125 C65.76632105 57.08653484 65.7549371 58.71607444 65.74694824 60.34562683 C65.7164639 64.62588388 65.63793821 68.90395416 65.54931641 73.18334961 C65.46734175 77.55357275 65.4309123 81.92415082 65.390625 86.29492188 C65.30493561 94.86428263 65.16847918 103.43186899 65 112 C61.23283763 110.53028926 57.80946736 108.8497922 54.30078125 106.83203125 C53.18590332 106.19297852 52.07102539 105.55392578 50.92236328 104.89550781 C49.71900421 104.20129547 48.51571815 103.50695656 47.3125 102.8125 C46.07028854 102.09839131 44.82793629 101.38452748 43.58544922 100.67089844 C41.01338726 99.1928172 38.44253558 97.71266031 35.87255859 96.23095703 C32.71689546 94.41197087 29.55819237 92.59835675 26.39805603 90.78715515 C23.47256848 89.11007883 20.5488671 87.42989988 17.625 85.75 C16.00525269 84.82151245 16.00525269 84.82151245 14.3527832 83.87426758 C12.83624146 83.00064575 12.83624146 83.00064575 11.2890625 82.109375 C10.40943848 81.60374023 9.52981445 81.09810547 8.62353516 80.57714844 C7.75776855 80.05668945 6.89200195 79.53623047 6 79 C4.96993835 78.45883545 3.93987671 77.9176709 2.87860107 77.36010742 C0 75 0 75 -0.7215271 71.67169189 C-0.73884829 70.33488334 -0.72311532 68.99739486 -0.68115234 67.66113281 C-0.6820285 66.92903091 -0.68290466 66.19692902 -0.68380737 65.44264221 C-0.67963473 63.02837532 -0.63300597 60.61690484 -0.5859375 58.203125 C-0.57474401 56.52733885 -0.56620454 54.85153303 -0.56021118 53.17572021 C-0.53732435 48.76932367 -0.4784038 44.3641177 -0.4119873 39.95819092 C-0.35056077 35.46057237 -0.32319547 30.96276104 -0.29296875 26.46484375 C-0.22865927 17.64270665 -0.12628256 8.8214524 0 0 Z " fill="#FCA955" transform="translate(193,373)"/>
<path d="M0 0 C0.39523514 9.60489396 0.69656586 19.20696385 0.88080692 28.8182354 C0.96927901 33.28247472 1.08902138 37.74112702 1.2824707 42.20214844 C2.49348269 70.88316193 2.49348269 70.88316193 -1.51800537 77.50628662 C-5.33940527 81.2370322 -9.73297552 82.88349788 -14.80300903 84.31707764 C-18.05001832 85.32639233 -20.73853319 87.03977488 -23.609375 88.8359375 C-25.65571096 90.0165598 -27.70258739 91.19624581 -29.75 92.375 C-30.84111084 93.00349854 -31.93222168 93.63199707 -33.05639648 94.27954102 C-35.28126818 95.56042982 -37.50644285 96.84079254 -39.73193359 98.12060547 C-41.8889461 99.36105685 -44.04553077 100.60225251 -46.20166016 101.84423828 C-49.15393117 103.54434078 -52.10789749 105.24145341 -55.0625 106.9375 C-56.40103027 107.70876221 -56.40103027 107.70876221 -57.76660156 108.49560547 C-58.57709961 108.9598291 -59.38759766 109.42405273 -60.22265625 109.90234375 C-60.93172119 110.30960693 -61.64078613 110.71687012 -62.37133789 111.13647461 C-64 112 -64 112 -65 112 C-65.48922189 102.70837619 -65.86089902 93.42124659 -66.08805561 84.11950397 C-66.19716984 79.79823525 -66.34463613 75.48583532 -66.58422852 71.16967773 C-68.08174905 43.46141684 -68.08174905 43.46141684 -63.10366821 36.25469971 C-58.28558934 31.81195943 -52.74672566 29.33810425 -46.66409302 27.05282593 C-42.91451117 25.57102444 -39.6826782 23.51944207 -36.31640625 21.328125 C-34.06550874 19.9680802 -31.81421476 18.60869133 -29.5625 17.25 C-21.03643466 12.1000208 -12.56402879 6.89467409 -4.2734375 1.37109375 C-2 0 -2 0 0 0 Z " fill="#FEAA55" transform="translate(338,373)"/>
<path d="M0 0 C0.30187973 9.63993118 0.5325117 19.2782253 0.67355824 28.92185974 C0.74127553 33.40061917 0.83300831 37.87613525 0.98071289 42.35302734 C1.12250768 46.67811584 1.19979294 51.00009763 1.23340416 55.32733154 C1.25733523 56.9735407 1.3040797 58.61958857 1.37449074 60.26446533 C1.58764458 65.45273684 1.56790222 70.01606338 0 75 C-3.91450162 78.85611548 -7.94797069 80.80782076 -13 83 C-14.24488663 83.70174572 -15.48122108 84.41964222 -16.69702148 85.1706543 C-17.66196533 85.71633057 -18.62690918 86.26200684 -19.62109375 86.82421875 C-20.7311377 87.45457031 -21.84118164 88.08492188 -22.98486328 88.734375 C-24.1242334 89.37890625 -25.26360352 90.0234375 -26.4375 90.6875 C-36.50737831 96.39949589 -46.5127416 102.20460046 -56.42358398 108.19018555 C-57.26606689 108.69461182 -58.1085498 109.19903809 -58.9765625 109.71875 C-60.07605225 110.38293945 -60.07605225 110.38293945 -61.19775391 111.06054688 C-63 112 -63 112 -65 112 C-65.65389858 102.77896029 -66.14849299 93.56604131 -66.45074081 84.32675266 C-66.5959906 80.03323917 -66.79181868 75.75571889 -67.11230469 71.47143555 C-69.066119 44.64661434 -69.066119 44.64661434 -63.81413269 37.35318756 C-57.51396354 30.65486379 -48.72740926 26.95853824 -40.3861084 23.46725464 C-36.11725241 21.61749143 -32.31040398 19.32770696 -28.421875 16.796875 C-27.27601388 16.09603061 -26.12767723 15.39921291 -24.9765625 14.70703125 C-23.37941406 13.73830078 -23.37941406 13.73830078 -21.75 12.75 C-20.89776855 12.23348877 -20.89776855 12.23348877 -20.02832031 11.70654297 C-12.11588741 6.9114048 -12.11588741 6.9114048 -4.265625 2.015625 C-1 0 -1 0 0 0 Z " fill="#6AE498" transform="translate(497,373)"/>
<path d="M0 0 C2.20164835 1.251817 4.40253772 2.50493805 6.60302734 3.75878906 C7.52480019 4.2826268 7.52480019 4.2826268 8.4651947 4.81704712 C14.60783441 8.31968024 20.61915305 12.01761299 26.625 15.75 C37.03581309 22.1896081 47.49379053 28.54404844 58.0090332 34.81176758 C58.66605225 35.20388428 59.32307129 35.59600098 60 36 C60.85435638 36.37427124 61.70871277 36.74854248 62.58895874 37.13415527 C65 39 65 39 65.60127258 42.13212585 C65.59016953 43.42230118 65.57906647 44.7124765 65.56762695 46.04174805 C65.56835709 46.75419678 65.56908722 47.46664551 65.56983948 48.20068359 C65.56635644 50.55513714 65.52746648 52.90761102 65.48828125 55.26171875 C65.47895555 56.89409809 65.47183829 58.52649143 65.46684265 60.15888977 C65.44775339 64.45499319 65.39863694 68.75025112 65.34332275 73.04602051 C65.29217126 77.42965252 65.26933744 81.81342119 65.24414062 86.19726562 C65.19051919 94.79856506 65.10518419 103.39917735 65 112 C61.6220259 110.67380825 58.48221021 109.24435047 55.32421875 107.453125 C54.42558105 106.94483154 53.52694336 106.43653809 52.60107422 105.9128418 C51.15885498 105.08973511 51.15885498 105.08973511 49.6875 104.25 C48.68219238 103.67870361 47.67688477 103.10740723 46.64111328 102.51879883 C39.19782811 98.27842025 31.77913543 93.99583173 24.375 89.6875 C23.42971436 89.13803711 22.48442871 88.58857422 21.51049805 88.02246094 C19.69717711 86.96296409 17.89415449 85.88555815 16.10409546 84.78721619 C13.01677135 82.93538571 13.01677135 82.93538571 9.64317322 81.52351379 C5.70048392 79.6091244 3.14176102 78.07665976 0 75 C-1.81318806 69.25162677 -1.52501773 63.78093598 -1.26953125 57.8125 C-1.24525416 56.14248846 -1.22676347 54.4723837 -1.21379089 52.80224609 C-1.16437879 48.42669589 -1.03692637 44.05684504 -0.89263916 39.68353271 C-0.75913378 35.21298343 -0.70017211 30.74150348 -0.63476562 26.26953125 C-0.49574824 17.51041796 -0.27419642 8.75591966 0 0 Z " fill="#A0D8FC" transform="translate(273,235)"/>
<path d="M0 0 C4.14161564 1.33020061 7.59912917 2.78359016 11.2890625 5.09765625 C12.8057251 6.04088745 12.8057251 6.04088745 14.35302734 7.00317383 C15.43277832 7.68275146 16.5125293 8.3623291 17.625 9.0625 C19.34576731 10.1361978 21.06795568 11.20758844 22.79031372 12.2787323 C23.99179361 13.02596817 25.19285761 13.77387312 26.39352417 14.52241516 C30.84179946 17.29233854 35.31263131 20.02311458 39.796875 22.734375 C40.75181351 23.31190773 40.75181351 23.31190773 41.7260437 23.90110779 C44.22125207 25.40921063 46.71708154 26.9162668 49.21466064 28.42044067 C50.94367311 29.46208561 52.67108807 30.50638083 54.3984375 31.55078125 C55.38505371 32.14544189 56.37166992 32.74010254 57.38818359 33.3527832 C58.25008301 33.89636475 59.11198242 34.43994629 60 35 C60.70450287 35.38373779 61.40900574 35.76747559 62.13485718 36.1628418 C64 38 64 38 64.48101807 41.13212585 C64.4676944 43.06738884 64.4676944 43.06738884 64.45410156 45.04174805 C64.45468567 45.75419678 64.45526978 46.46664551 64.45587158 47.20068359 C64.45308548 49.55485819 64.42197113 51.90776547 64.390625 54.26171875 C64.38316442 55.89410205 64.37747062 57.52649431 64.37347412 59.15888977 C64.35820321 63.45485167 64.31890933 67.7502724 64.2746582 72.04602051 C64.23373662 76.42969441 64.21546979 80.81345577 64.1953125 85.19726562 C64.15241605 93.7984254 64.08414766 102.39914538 64 111 C53.49977497 105.81755244 53.49977497 105.81755244 48.7578125 103.01171875 C47.8498291 102.47772461 46.9418457 101.94373047 46.00634766 101.39355469 C45.05550293 100.83055664 44.1046582 100.26755859 43.125 99.6875 C36.20156146 95.61307241 29.26611135 91.56570661 22.28125 87.59765625 C21.32132645 87.05192207 21.32132645 87.05192207 20.3420105 86.49516296 C17.81198677 85.05755922 15.28157342 83.62070069 12.74761963 82.19003296 C10.98906909 81.19710449 9.23276437 80.20020169 7.4765625 79.203125 C6.46674316 78.63239258 5.45692383 78.06166016 4.41650391 77.47363281 C2 76 2 76 0 74 C-0.24050903 70.95016479 -0.24050903 70.95016479 -0.22705078 66.97998047 C-0.22734283 66.25792419 -0.22763489 65.53586792 -0.22793579 64.79193115 C-0.22654008 62.40022858 -0.21096783 60.00883579 -0.1953125 57.6171875 C-0.19158322 55.9609494 -0.18873585 54.30470911 -0.18673706 52.64846802 C-0.17909389 48.2852776 -0.1594396 43.92221993 -0.1373291 39.55908203 C-0.11688535 35.10841671 -0.1077385 30.65772997 -0.09765625 26.20703125 C-0.07619429 17.47129319 -0.04205018 8.7356631 0 0 Z " fill="#6BE699" transform="translate(34,374)"/>
<path d="M0 0 C4.87078482 1.62359494 8.43291732 3.32719679 12.625 6.0625 C17.97251972 9.48030785 23.35124999 12.83964947 28.78125 16.125 C29.38222504 16.48863144 29.98320007 16.85226288 30.60238647 17.22691345 C33.03020965 18.6946819 35.45877677 20.16120084 37.88897705 21.62503052 C38.46138123 21.96992523 39.0337854 22.31481995 39.62353516 22.67016602 C40.16159475 22.99385068 40.69965435 23.31753534 41.25401878 23.65102863 C42.94287579 24.67652499 44.61775157 25.72495003 46.29135132 26.77516174 C48.7049121 28.26540584 51.13059898 29.57278342 53.69116211 30.79110718 C59.06621194 33.50431607 63.22802756 35.71647669 65.22433472 41.62162781 C65.79626952 46.03486195 65.57796361 50.41560673 65.3671875 54.84765625 C65.34103464 56.47138382 65.32112549 58.09522283 65.30715942 59.71910095 C65.25400623 63.9685738 65.11682068 68.21121379 64.96130371 72.45800781 C64.8173875 76.80114268 64.7540027 81.14539626 64.68359375 85.49023438 C64.53399159 93.99660639 64.29548698 102.49745068 64 111 C62.11380732 110.06691809 60.22878366 109.13147286 58.34423828 108.19506836 C56.76946213 107.41407021 56.76946213 107.41407021 55.16287231 106.61729431 C50.28590967 104.12352183 45.58517746 101.35516381 40.875 98.5625 C38.7972367 97.34053062 36.7190971 96.11920089 34.640625 94.8984375 C33.56619141 94.26647461 32.49175781 93.63451172 31.38476562 92.98339844 C26.06017161 89.8633031 20.71654628 86.77641355 15.37017822 83.69381714 C13.64724725 82.70032837 11.9249378 81.70576198 10.20263672 80.71118164 C9.15865723 80.10910889 8.11467773 79.50703613 7.0390625 78.88671875 C5.65001709 78.08560669 5.65001709 78.08560669 4.23291016 77.26831055 C2.8409887 76.4776882 1.43179021 75.71589511 0 75 C0 50.25 0 25.5 0 0 Z " fill="#6BE699" transform="translate(353,374)"/>
<path d="M0 0 C0.55931116 9.53460659 0.9839423 19.06348921 1.24349213 28.61098671 C1.36817789 33.04672424 1.53659329 37.47116579 1.81054688 41.90039062 C3.5255264 70.37261281 3.5255264 70.37261281 -2.21154785 77.90274048 C-7.83180902 82.67901592 -14.1852941 85.40962163 -21.07128906 87.89941406 C-24.91425133 89.34356827 -28.12359918 91.23979735 -31.609375 93.40234375 C-33.65588345 94.58136564 -35.70273742 95.75978808 -37.75 96.9375 C-39.82829532 98.13381874 -41.90642119 99.33043191 -43.984375 100.52734375 C-44.96857422 101.09308105 -45.95277344 101.65881836 -46.96679688 102.24169922 C-49.10529353 103.48135254 -51.23613976 104.73424978 -53.36132812 105.99658203 C-54.44349609 106.63837402 -55.52566406 107.28016602 -56.640625 107.94140625 C-57.62063477 108.52736572 -58.60064453 109.1133252 -59.61035156 109.71704102 C-62 111 -62 111 -64 111 C-64.65389858 101.77896029 -65.14849299 92.56604131 -65.45074081 83.32675266 C-65.5959906 79.03323917 -65.79181868 74.75571889 -66.11230469 70.47143555 C-68.06606976 43.64714102 -68.06606976 43.64714102 -62.81457901 36.35363388 C-56.51522425 29.65601724 -47.72870627 25.96299235 -39.38934326 22.4704895 C-35.10462019 20.61153341 -31.28719034 18.30735772 -27.38671875 15.76171875 C-26.23632568 15.05628641 -25.08343342 14.35490873 -23.92773438 13.65820312 C-22.26924189 12.6495118 -20.61077682 11.64077499 -18.95288086 10.63110352 C-1.49392739 0 -1.49392739 0 0 0 Z " fill="#6BE599" transform="translate(159,61)"/>
<path d="M0 0 C2.36109328 3.54163992 2.50190444 6.45608152 2.875 10.5625 C4.22319834 22.83523203 8.53470461 33.85219219 18.375 41.8125 C25.25349694 46.7815814 31.64233558 49.52967015 40 51 C39.43410156 50.28714844 38.86820313 49.57429688 38.28515625 48.83984375 C30.64796767 38.86720558 30.64796767 38.86720558 31 33 C32.34562399 30.05244268 33.08554544 28.45722728 36 27 C39.4190055 26.6201105 41.3459159 26.58882958 44.29296875 28.44140625 C48.02185864 31.96582598 50.67060651 35.98949797 53.5 40.25 C54.05558594 41.07113281 54.61117187 41.89226562 55.18359375 42.73828125 C56.80651315 45.14783923 58.40850279 47.56959154 60 50 C60.49419434 50.7525708 60.98838867 51.5051416 61.49755859 52.28051758 C62.1755249 53.33468872 62.1755249 53.33468872 62.8671875 54.41015625 C63.26534668 55.02769775 63.66350586 55.64523926 64.07373047 56.28149414 C65.57918619 59.07456288 65.68243508 60.92904213 65 64 C60.92045373 68.60050994 56.05166732 72.20602895 51.1875 75.9375 C50.41857422 76.53240234 49.64964844 77.12730469 48.85742188 77.74023438 C47.32533333 78.92323945 45.78972541 80.10170183 44.25048828 81.27539062 C42.75409659 82.42211561 41.26791858 83.58229701 39.79248047 84.75585938 C39.09912598 85.29919922 38.40577148 85.84253906 37.69140625 86.40234375 C37.08111572 86.88823975 36.4708252 87.37413574 35.84204102 87.87475586 C32.40424794 89.97479407 29.92828631 89.65471438 26 89 C23.5 87.4375 23.5 87.4375 22 85 C21.4375 81.5625 21.4375 81.5625 22 78 C24.125 75.375 24.125 75.375 27 73 C28.06034801 72.11773066 29.12024568 71.2349198 30.1796875 70.3515625 C31.57574219 69.18753906 31.57574219 69.18753906 33 68 C32.02160156 67.63648438 31.04320312 67.27296875 30.03515625 66.8984375 C22.41817433 64.00534628 15.46130522 61.07497153 9 56 C8.26523438 55.45085937 7.53046875 54.90171875 6.7734375 54.3359375 C-5.00667101 44.82279145 -11.95407428 30.8759833 -14 16 C-14.11157971 13.96042676 -14.17444002 11.91758132 -14.1875 9.875 C-14.20167969 8.86179688 -14.21585937 7.84859375 -14.23046875 6.8046875 C-13.99716474 3.96549634 -13.54900784 2.36653975 -12 0 C-7.65546469 -2.73085077 -4.61796746 -1.82976069 0 0 Z " fill="#000000" transform="translate(129,210)"/>
<path d="M0 0 C0.01401855 0.83192871 0.01401855 0.83192871 0.02832031 1.68066406 C0.08215722 4.20466481 0.16577254 6.72683814 0.25 9.25 C0.26417969 10.12269531 0.27835937 10.99539062 0.29296875 11.89453125 C0.45373879 17.07355342 0.45373879 17.07355342 2.859375 21.546875 C5.02698551 23.15965517 5.02698551 23.15965517 8 24 C8 28.62 8 33.24 8 38 C6.02 38.99 4.04 39.98 2 41 C0.53510455 43.92979091 0.94610329 46.49897926 1 49.765625 C1.00115892 51.14453138 0.99977498 52.5234418 0.99609375 53.90234375 C0.99168271 56.07404801 0.99979725 58.24144763 1.05126953 60.41259766 C1.31299744 72.47687682 1.31299744 72.47687682 -1.94506836 76.25634766 C-4.24977105 77.80660031 -6.43719512 78.94196884 -9 80 C-10.19007627 80.62008042 -11.37802352 81.24428872 -12.5625 81.875 C-13.366875 82.24625 -14.17125 82.6175 -15 83 C-16.44036048 71.48340591 -16.86410006 59.89407305 -17.25046539 48.30228424 C-17.37821982 44.51658543 -17.53502862 40.73687794 -17.75927734 36.95556641 C-19.18934182 12.39489769 -19.18934182 12.39489769 -15.52978516 6.72021484 C-11.3817322 2.75945777 -5.82919465 0 0 0 Z " fill="#64C9FD" transform="translate(417,236)"/>
<path d="M0 0 C0.34852994 9.62242965 0.61452793 19.2426701 0.77718258 28.87004757 C0.85528135 33.34150424 0.9610325 37.80862692 1.1315918 42.27758789 C1.29537312 46.59630324 1.38440397 50.91087231 1.42315865 55.2324543 C1.45074439 56.87521271 1.50463223 58.5177589 1.58595085 60.15873528 C1.83843407 65.46806202 1.81352555 69.95932877 0 75 C-4.11394359 79.33724176 -9.54400945 81.76823928 -15 84 C-15.33 84 -15.66 84 -16 84 C-16.20785375 79.55152877 -16.40473685 75.10380413 -16.53686523 70.65234375 C-16.75294677 63.45782161 -17.1044915 56.29897363 -17.6302948 49.11962891 C-17.92862728 44.82920415 -18.15613153 40.53636619 -18.37454224 36.24121094 C-18.49935317 34.08892656 -18.65318745 31.93811988 -18.8366394 29.79003906 C-20.25936061 12.81908958 -20.25936061 12.81908958 -16.42840576 8.0390625 C-12.15958597 4.35433835 -5.80059887 0 0 0 Z " fill="#F79328" transform="translate(338,373)"/>
<path d="M0 0 C0.20874464 9.67483306 0.36854817 19.34888866 0.46630955 29.02548409 C0.51323712 33.51910179 0.57685456 38.01117664 0.67895508 42.50390625 C0.77691694 46.84178629 0.83059099 51.1781851 0.85389519 55.51708603 C0.87049592 57.17026978 0.90291739 58.8233744 0.95157051 60.47592545 C1.31548957 73.35164538 1.31548957 73.35164538 -1.81741333 77.27728271 C-4.16001778 78.90408532 -6.342447 79.97771197 -9 81 C-10.0656443 81.49501511 -10.0656443 81.49501511 -11.15281677 82.00003052 C-12.74182801 82.72807605 -14.36775116 83.37488342 -16 84 C-16.07369404 81.31251945 -16.146531 78.62502038 -16.21875 75.9375 C-16.24171646 75.09131104 -16.26468292 74.24512207 -16.28834534 73.37329102 C-16.41327123 68.66574306 -16.52299123 63.95846269 -16.60717773 59.25 C-16.64274149 57.31249401 -16.67863147 55.37499398 -16.71484375 53.4375 C-16.74184608 51.9844043 -16.74184608 51.9844043 -16.76939392 50.50195312 C-16.88226942 45.22005588 -17.09794457 39.96471052 -17.4702301 34.69482422 C-18.99776728 12.96410584 -18.99776728 12.96410584 -15.44140625 7.6875 C-11.60285158 4.03897279 -5.52779264 0 0 0 Z " fill="#01D7A1" transform="translate(178,373)"/>
<path d="M0 0 C0.30187973 9.63993118 0.5325117 19.2782253 0.67355824 28.92185974 C0.74127553 33.40061917 0.83300831 37.87613525 0.98071289 42.35302734 C1.12250768 46.67811584 1.19979294 51.00009763 1.23340416 55.32733154 C1.25733523 56.9735407 1.3040797 58.61958857 1.37449074 60.26446533 C1.89007097 72.81394663 1.89007097 72.81394663 -1.28967667 76.49163818 C-5.63606338 80.09521664 -10.67369062 82.22456354 -16 84 C-16.14558491 76.99729549 -16.28755072 69.99452366 -16.42724609 62.99169922 C-16.47495669 60.61993836 -16.52343256 58.24819275 -16.57275391 55.87646484 C-16.69181738 50.13954948 -16.79753117 44.40315969 -16.87524414 38.66552734 C-16.93863045 34.30434352 -17.08786662 29.95983701 -17.31030273 25.60400391 C-17.38271439 23.63183831 -17.45506471 21.65967046 -17.52734375 19.6875 C-17.59195801 18.79727142 -17.65657227 17.90704285 -17.72314453 16.98983765 C-17.82608399 13.2658223 -17.82638144 10.97158583 -15.35255432 8.06307983 C-11.54504987 4.91121723 -5.14822124 0 0 0 Z " fill="#00D7A1" transform="translate(497,373)"/>
<path d="M0 0 C0 24.75 0 49.5 0 75 C-14 83 -14 83 -15 83 C-16.23350315 71.07885012 -16.62055266 59.13028447 -16.93959236 47.15603924 C-17.03623892 43.54840953 -17.15085242 39.94324748 -17.30664062 36.33764648 C-17.45829076 32.81756809 -17.56507474 29.29872965 -17.6406517 25.77622414 C-17.69427582 23.79992519 -17.79312782 21.8250192 -17.89285278 19.85050964 C-18.01941402 11.11993636 -18.01941402 11.11993636 -15.08831787 7.89981079 C-12.78255425 6.33975841 -10.53122344 5.14978768 -8 4 C-6.66060208 3.21863766 -5.32655834 2.42796753 -4 1.625 C-1 0 -1 0 0 0 Z " fill="#01D7A1" transform="translate(159,61)"/>
<path d="M0 0 C3.59610861 1.73383808 7.02966279 3.65447907 10.4375 5.7265625 C11.94625083 6.62821312 13.4553885 7.52921665 14.96484375 8.4296875 C15.77937012 8.91759766 16.59389648 9.40550781 17.43310547 9.90820312 C22.27129799 12.79404795 27.13525616 15.63577424 32 18.4765625 C33.01368652 19.06872559 34.02737305 19.66088867 35.07177734 20.27099609 C43.99777874 25.46937353 53.00427396 30.51283762 62.0625 35.4765625 C62.0625 36.1365625 62.0625 36.7965625 62.0625 37.4765625 C60.04857473 39.01838066 58.07534281 40.37879203 55.9375 41.7265625 C55.08285156 42.31050781 55.08285156 42.31050781 54.2109375 42.90625 C52.4921875 43.9921875 52.4921875 43.9921875 49.0625 45.4765625 C44.69192243 44.40640741 41.17557135 42.51957931 37.37109375 40.16015625 C36.27450439 39.4861377 35.17791504 38.81211914 34.0480957 38.11767578 C32.86534874 37.38321594 31.68265137 36.64867624 30.5 35.9140625 C28.00505496 34.37490115 25.50705269 32.84076952 23.0078125 31.30859375 C22.36449478 30.91379822 21.72117706 30.51900269 21.05836487 30.11224365 C16.3457897 27.2316308 11.58922087 24.43498199 6.8046875 21.67578125 C6.13665604 21.289561 5.46862457 20.90334076 4.78034973 20.50541687 C2.16883122 18.99674305 -0.44304633 17.48909737 -3.06521606 15.99899292 C-4.87478561 14.97046954 -6.67799005 13.93150945 -8.48046875 12.890625 C-9.51196045 12.3023291 -10.54345215 11.7140332 -11.60620117 11.10791016 C-13.9375 9.4765625 -13.9375 9.4765625 -14.9375 6.4765625 C-13.07873491 5.2434012 -11.19966916 4.04080049 -9.3125 2.8515625 C-8.26835938 2.17867188 -7.22421875 1.50578125 -6.1484375 0.8125 C-2.9375 -0.5234375 -2.9375 -0.5234375 0 0 Z " fill="#00D59F" transform="translate(107.9375,323.5234375)"/>
<path d="M0 0 C2.62353516 1.23657227 2.62353516 1.23657227 5.2890625 2.81640625 C6.30000977 3.40832764 7.31095703 4.00024902 8.35253906 4.61010742 C9.43245117 5.25439697 10.51236328 5.89868652 11.625 6.5625 C13.34857239 7.57506796 15.07216293 8.58760603 16.79663086 9.59864807 C17.99928446 10.30424711 19.20126041 11.01100232 20.40258789 11.71885681 C24.82287595 14.32145735 29.26702069 16.87937228 33.7265625 19.4140625 C34.3584549 19.77336349 34.99034729 20.13266449 35.64138794 20.50285339 C38.11472464 21.9083457 40.58864343 23.31280101 43.06378174 24.71511841 C44.77802718 25.68699293 46.49060541 26.66180635 48.203125 27.63671875 C49.17926758 28.19061279 50.15541016 28.74450684 51.16113281 29.31518555 C54.18742947 31.11123587 57.08852434 33.0244328 60 35 C57.04732794 38.23387892 54.12077252 40.22245249 50.25 42.25 C49.26515625 42.77078125 48.2803125 43.2915625 47.265625 43.828125 C46.51796875 44.21484375 45.7703125 44.6015625 45 45 C44.50693359 44.6589624 44.01386719 44.3179248 43.50585938 43.96655273 C37.28546722 39.73603987 30.85529515 35.90898156 24.35116577 32.13644409 C21.16399529 30.28742389 17.98235213 28.42894651 14.80078125 26.5703125 C14.15462357 26.19299484 13.50846588 25.81567719 12.84272766 25.42692566 C2.50441061 19.3812445 -7.74628015 13.18770719 -18 7 C-7.16122629 -1.8007137 -7.16122629 -1.8007137 0 0 Z " fill="#01D59F" transform="translate(91,12)"/>
<path d="M0 0 C2.61591753 1.27894765 5.17098545 2.61144283 7.7109375 4.03564453 C8.7002124 4.58929688 9.6894873 5.14294922 10.70874023 5.71337891 C11.76520752 6.30957031 12.8216748 6.90576172 13.91015625 7.52001953 C15.55576538 8.44524414 15.55576538 8.44524414 17.23461914 9.38916016 C27.86178101 15.3833076 38.42300263 21.49203243 48.92919922 27.69580078 C50.77305361 28.78355679 52.62134014 29.86382225 54.47314453 30.93798828 C55.38177246 31.47037109 56.29040039 32.00275391 57.2265625 32.55126953 C58.04326416 33.02628906 58.85996582 33.50130859 59.70141602 33.99072266 C61.59765625 35.27001953 61.59765625 35.27001953 62.59765625 37.27001953 C60.57035938 38.67168176 58.53049176 40.03953223 56.47265625 41.39501953 C55.90289062 41.79333984 55.333125 42.19166016 54.74609375 42.60205078 C53.02734375 43.71533203 53.02734375 43.71533203 49.59765625 45.27001953 C45.22589347 44.20629486 41.70999721 42.31258337 37.90625 39.95361328 C36.80982178 39.27951416 35.71339355 38.60541504 34.58374023 37.91088867 C34.0056662 37.55189484 33.42759216 37.192901 32.83200073 36.82302856 C29.74113492 34.90417094 26.63794349 33.00545642 23.53515625 31.10595703 C22.89142563 30.71136795 22.24769501 30.31677887 21.5844574 29.91023254 C13.04827901 24.69108148 4.39828089 19.66575738 -4.24633789 14.62915039 C-4.83862183 14.28375214 -5.43090576 13.93835388 -6.0411377 13.58248901 C-7.6413875 12.64973394 -9.2426542 11.71872409 -10.84399414 10.7878418 C-12.72976168 9.66905023 -14.57792975 8.48629553 -16.40234375 7.27001953 C-14.18502439 5.87181815 -11.95696221 4.50238595 -9.71484375 3.14501953 C-9.08900391 2.74669922 -8.46316406 2.34837891 -7.81835938 1.93798828 C-3.02920526 -0.92045973 -3.02920526 -0.92045973 0 0 Z " fill="#63C7FB" transform="translate(346.40234375,185.72998046875)"/>
<path d="M0 0 C1.71934044 0.89375257 3.42309042 1.81790133 5.11328125 2.765625 C6.10255615 3.31927734 7.09183105 3.87292969 8.11108398 4.44335938 C9.16755127 5.03955078 10.22401855 5.63574219 11.3125 6.25 C12.95810913 7.17522461 12.95810913 7.17522461 14.63696289 8.11914062 C29.54977599 16.53056803 44.3359732 25.16217198 59 34 C57.70635147 37.8809456 56.09296658 38.56689295 52.6875 40.75 C51.72199219 41.38421875 50.75648438 42.0184375 49.76171875 42.671875 C47 44 47 44 45.18676758 43.78417969 C42.32216331 42.75692626 39.87270686 41.32724916 37.25 39.78125 C36.68744507 39.45113419 36.12489014 39.12101837 35.54528809 38.78089905 C33.69384297 37.69229567 31.84691341 36.5962713 30 35.5 C28.71174718 34.74053488 27.42333343 33.98134267 26.13476562 33.22241211 C19.40429858 29.24969688 12.70473081 25.22783434 6.03125 21.16015625 C5.39388916 20.7718161 4.75652832 20.38347595 4.09985352 19.98336792 C1.03747064 18.1156979 -2.02108483 16.24212683 -5.07421875 14.359375 C-6.17378906 13.68519531 -7.27335937 13.01101563 -8.40625 12.31640625 C-9.84967773 11.42610718 -9.84967773 11.42610718 -11.32226562 10.51782227 C-13.83209907 9.09517142 -16.29667248 7.99656045 -19 7 C-16.01439855 4.39963744 -12.87538653 2.18178812 -9.5 0.125 C-8.40171875 -0.55175781 -8.40171875 -0.55175781 -7.28125 -1.2421875 C-4.15818652 -2.27964352 -2.95887701 -1.34869743 0 0 Z " fill="#00D59F" transform="translate(429,325)"/>
<path d="M0 0 C3.50534493 1.7618248 6.89407396 3.65130923 10.2421875 5.69140625 C11.74535726 6.59107542 13.24931797 7.48942389 14.75390625 8.38671875 C15.58067871 8.88075195 16.40745117 9.37478516 17.25927734 9.88378906 C22.49830045 12.98957407 27.777962 16.02527196 33.0546875 19.06640625 C34.16730957 19.70803711 35.27993164 20.34966797 36.42626953 21.01074219 C44.9161028 25.89962451 53.43494079 30.73408142 61.9921875 35.50390625 C61.9921875 36.16390625 61.9921875 36.82390625 61.9921875 37.50390625 C59.95699728 39.04147309 57.95966355 40.40559329 55.8046875 41.75390625 C55.22654297 42.14320313 54.64839844 42.5325 54.05273438 42.93359375 C52.32421875 44.01953125 52.32421875 44.01953125 48.9921875 45.50390625 C45.06574122 44.33080064 41.66467755 42.25502115 38.14453125 40.1875 C37.58334595 39.85879913 37.02216064 39.53009827 36.44396973 39.19143677 C34.60367791 38.11178421 32.76660605 37.02678659 30.9296875 35.94140625 C29.64661535 35.18668325 28.36349286 34.43204584 27.08032227 33.67749023 C16.60368897 27.50472113 6.19990319 21.21297882 -4.17016602 14.86303711 C-5.27287842 14.18893799 -6.37559082 13.51483887 -7.51171875 12.8203125 C-8.47924072 12.22677979 -9.4467627 11.63324707 -10.44360352 11.02172852 C-12.59796344 9.74650661 -14.7510073 8.5839131 -17.0078125 7.50390625 C-14.81269936 6.10264225 -12.60600295 4.73429198 -10.3828125 3.37890625 C-9.76535156 2.98058594 -9.14789063 2.58226562 -8.51171875 2.171875 C-5.4181426 0.31572931 -3.6112045 -0.59561425 0 0 Z " fill="#FB9629" transform="translate(267.0078125,323.49609375)"/>
</svg>
