<?xml version="1.0" encoding="UTF-8"?>
<svg version="1.1" xmlns="http://www.w3.org/2000/svg" width="512" height="500">
<path d="M0 0 C6.45234427 4.62722193 10.04003656 10.07323468 12.53515625 17.55859375 C13.20986788 27.7700947 13.04325581 35.59668695 6.34765625 43.55859375 C5.42101056 44.56866009 4.48731418 45.57254023 3.53515625 46.55859375 C4.6868898 49.02659422 5.5829919 50.6064294 7.53515625 52.55859375 C9.03955775 52.46890828 10.54031107 52.31267992 12.03515625 52.12109375 C16.53306006 52.10032013 18.47369334 52.84449289 21.71484375 55.9375 C22.58012695 56.75758545 23.44541016 57.5776709 24.33691406 58.42260742 C25.40422449 59.46668061 26.47016604 60.51215397 27.53515625 61.55859375 C28.18899292 62.19471588 28.84282959 62.83083801 29.51647949 63.48623657 C34.26237379 68.10613545 38.96937394 72.76364433 43.65820312 77.44140625 C46.15436932 79.9278294 48.66102281 82.40335846 51.16796875 84.87890625 C80.07313941 113.59013687 80.07313941 113.59013687 80.59765625 131.71875 C80.47265625 133.87109375 80.47265625 133.87109375 79.53515625 137.55859375 C78.68953125 138.01234375 77.84390625 138.46609375 76.97265625 138.93359375 C74.31532333 140.29340277 74.31532333 140.29340277 74.06640625 142.8125 C73.83178119 148.28806109 73.83178119 148.28806109 76.47265625 152.87109375 C77.15328125 153.42796875 77.83390625 153.98484375 78.53515625 154.55859375 C80.69477481 161.39933144 77.04737807 167.28653483 74.19921875 173.44921875 C69.31113676 182.72913075 62.1012919 189.4646857 54.53515625 196.55859375 C55.84230519 199.4471298 57.23013879 201.49693337 59.484375 203.71899414 C60.07839111 204.3096315 60.67240723 204.90026886 61.28442383 205.50880432 C62.24384888 206.44803993 62.24384888 206.44803993 63.22265625 207.40625 C63.88096436 208.05935654 64.53927246 208.71246307 65.2175293 209.38536072 C67.31870818 211.46874857 69.42645311 213.54532407 71.53515625 215.62109375 C73.64298256 217.70128668 75.74932971 219.78292367 77.8527832 221.86753845 C79.16106792 223.16358452 80.47201683 224.45694794 81.78588867 225.74732971 C82.37990479 226.33481491 82.9739209 226.92230011 83.5859375 227.52758789 C84.10841064 228.04180801 84.63088379 228.55602814 85.16918945 229.08583069 C87.41091107 231.50281828 88.49982815 233.40122311 89.22265625 236.62109375 C88.28101875 242.0141085 85.45546851 244.48449677 81.69921875 248.32421875 C79.40465562 250.55889216 79.40465562 250.55889216 77.53515625 253.55859375 C78.30563293 254.30908493 78.30563293 254.30908493 79.0916748 255.07473755 C83.93357823 259.79633651 88.76087867 264.53232681 93.57236481 269.28492928 C96.04644796 271.72772143 98.52578848 274.16463013 101.01806641 276.58886719 C103.88420805 279.37724573 106.72565844 282.1896596 109.56640625 285.00390625 C110.91164368 286.30269211 110.91164368 286.30269211 112.28405762 287.62771606 C113.10490845 288.44811371 113.92575928 289.26851135 114.77148438 290.11376953 C115.86402527 291.18632492 115.86402527 291.18632492 116.9786377 292.2805481 C118.96525305 295.18806273 118.83310619 297.11056152 118.53515625 300.55859375 C111.61718022 301.85513544 104.42278551 302.86795982 98.11853027 299.12304688 C92.10471737 294.39971556 87.03807558 288.70276837 81.91015625 283.05859375 C80.31029878 281.36830674 78.7061589 279.68206222 77.09765625 278 C73.19283495 273.89822556 69.34403444 269.74950519 65.53515625 265.55859375 C64.43003143 266.49757138 63.32609919 267.43795271 62.22265625 268.37890625 C61.60777344 268.90242676 60.99289062 269.42594727 60.359375 269.96533203 C59.21087099 270.96842855 58.08434844 271.99784605 56.9921875 273.06201172 C54.51491114 275.39400545 52.57802318 276.54705265 49.28515625 277.43359375 C39.18355977 275.07655457 29.65322876 261.79464066 22.41015625 254.49609375 C21.25153913 253.33244622 20.09268635 252.16903329 18.93359375 251.00585938 C16.13139861 248.1927931 13.33238311 245.37660001 10.53515625 242.55859375 C6.49011415 244.40720118 3.86995114 247.12013784 0.84765625 250.30859375 C-11.65629385 263.07016197 -26.68919522 269.35313339 -44.58984375 269.93359375 C-73.96700991 269.45929036 -91.96903721 250.39582689 -111.42553711 230.80371094 C-114.17953781 228.03121708 -116.94169492 225.26704562 -119.70507812 222.50390625 C-121.46271602 220.7413604 -123.21989476 218.97835652 -124.9765625 217.21484375 C-125.80040939 216.38988403 -126.62425629 215.56492432 -127.47306824 214.71496582 C-128.23178726 213.94986694 -128.99050629 213.18476807 -129.7722168 212.39648438 C-130.43916061 211.72572876 -131.10610443 211.05497314 -131.79325867 210.3638916 C-135.44470223 206.42036322 -135.44470223 206.42036322 -135.51953125 203.21875 C-135.46023438 202.36152344 -135.4009375 201.50429688 -135.33984375 200.62109375 C-135.19337123 196.44531373 -135.19337123 196.44531373 -137.46484375 192.93359375 C-138.12484375 192.47984375 -138.78484375 192.02609375 -139.46484375 191.55859375 C-143.35399986 193.38826492 -146.73398616 195.75907191 -150.24609375 198.21875 C-156.23922507 201.83784162 -163.70871192 201.09373291 -170.46484375 200.55859375 C-178.84006851 198.33486885 -185.08976851 193.09188162 -189.4296875 185.66796875 C-193.4028391 177.57173531 -193.00361212 169.77292865 -190.70703125 161.28125 C-187.64244324 154.56421276 -182.33498125 149.13204988 -177.1539917 143.97358704 C-176.54747151 143.36183016 -175.94095131 142.75007329 -175.31605172 142.11977834 C-173.30360977 140.09245952 -171.28420618 138.07223037 -169.26464844 136.05200195 C-167.81163687 134.59136087 -166.35902597 133.13032111 -164.90678406 131.66891479 C-160.97560381 127.71586691 -157.03794178 123.76933957 -153.09836102 119.82466531 C-150.63451262 117.3571656 -148.17196556 114.8883746 -145.7098465 112.4191494 C-137.11256377 103.7974036 -128.50960326 95.18136559 -119.90185547 86.57006836 C-111.88976656 78.55434185 -103.89091444 70.52556976 -95.89795947 62.49076778 C-89.02339591 55.58148256 -82.13921445 48.68187861 -75.24761701 41.78958386 C-71.13674931 37.67792431 -67.02993235 33.56240923 -62.93294525 29.43691444 C-59.07961603 25.55737146 -55.2144347 21.69003729 -51.33997536 17.83160019 C-49.92396585 16.4174022 -48.51218206 14.99895782 -47.10508537 13.57589149 C-33.87683738 0.20676486 -18.93452413 -11.07264565 0 0 Z " fill="#FBC53C" transform="translate(393.46484375,199.44140625)"/>
<path d="M0 0 C15.57024812 -2.25015199 15.57024812 -2.25015199 22.11035156 2.625 C26.10360514 6.11764903 29.6126567 10.03423647 33.125 14 C34.38756129 15.35304539 35.65446923 16.70204841 36.92578125 18.046875 C40.0025945 21.32015271 43.01553823 24.64240078 46 28 C47.10512482 27.06102237 48.20905706 26.12064104 49.3125 25.1796875 C50.23482422 24.39440674 50.23482422 24.39440674 51.17578125 23.59326172 C52.32428526 22.5901652 53.45080781 21.5607477 54.54296875 20.49658203 C57.10354 18.08617833 58.92563408 17.01652576 62.375 16.25 C72.22656981 18.28825582 81.05146447 30.94064744 88 37.9375 C89.2640885 39.20661373 90.52840956 40.47549589 91.79296875 41.74414062 C94.86466724 44.8267632 97.93320008 47.91250428 101 51 C105.11978307 48.27069082 105.11978307 48.27069082 109.16796875 45.4375 C120.99508142 37.01897492 134.57124417 34.43860921 148.875 36.6875 C167.85351804 40.93982961 180.18685226 54.94110713 193.5168457 68.11181641 C194.89060506 69.46377006 196.27060424 70.80940995 197.65649414 72.14892578 C199.6827836 74.10837789 201.68873443 76.08676261 203.69140625 78.0703125 C204.3110878 78.66216339 204.93076935 79.25401428 205.56922913 79.86380005 C209.41086116 83.72418836 210.86209561 86.33517997 211 92 C210.5625 94.4375 210.5625 94.4375 210 96 C211.98 97.65 213.96 99.3 216 101 C217.299375 100.071875 217.299375 100.071875 218.625 99.125 C225.54520086 94.7678365 231.95118823 94.17889955 240 95 C248.1290681 97.10627115 254.11090569 100.87800866 258.75 107.9375 C263.32793834 115.87161178 264.21537729 123.51466709 262.5234375 132.54296875 C260.37184563 139.20421025 255.95512754 143.7167881 251.06542969 148.53491211 C247.47045475 152.02509068 247.47045475 152.02509068 247 157 C247.95548981 158.95625978 247.95548981 158.95625978 250 160 C251.093125 159.835 252.18625 159.67 253.3125 159.5 C257.87674684 158.88111907 259.09465678 159.62334751 263 162 C265.61021327 164.18880113 268.0078566 166.56346812 270.41015625 168.9765625 C271.44504433 170.0035878 271.44504433 170.0035878 272.50083923 171.05136108 C273.95428167 172.49839906 275.40388454 173.94930265 276.84985352 175.40380859 C279.0467383 177.60917743 281.26157039 179.79528914 283.47851562 181.98046875 C284.89436101 183.39470111 286.30911077 184.81003135 287.72265625 186.2265625 C288.37798843 186.87066071 289.03332062 187.51475891 289.70851135 188.17837524 C296.36198671 194.93237225 300.51439058 201.68707758 301.25 211.25 C300.74974485 218.75382729 298.19027604 226.32073323 292.3984375 231.40625 C285.11071029 236.92822833 278.00483266 237.87595648 269 237 C260.22084383 235.0927538 254.15021784 228.08627149 248 222 C247.09121094 221.10490723 246.18242187 220.20981445 245.24609375 219.28759766 C242.11424333 216.19991102 238.99242576 213.10224486 235.875 210 C235.35387634 209.48182709 234.83275269 208.96365417 234.2958374 208.42977905 C232.79570071 206.93540098 231.29951487 205.43718708 229.8046875 203.9375 C228.92796387 203.05964844 228.05124023 202.18179688 227.14794922 201.27734375 C224.26006154 198.21548694 223.02796888 196.78312856 222.875 192.5 C222.91625 191.345 222.9575 190.19 223 189 C223 188.01 223 187.02 223 186 C221.35 184.68 219.7 183.36 218 182 C208.1 191.9 198.2 201.8 188 212 C189.65 213.98 191.3 215.96 193 218 C193.66 217.67 194.32 217.34 195 217 C197.90468611 216.39485706 199.20785839 216.21555513 202 217 C204.14526367 218.60351563 204.14526367 218.60351563 206.48046875 220.78125 C207.35880371 221.59899902 208.23713867 222.41674805 209.14208984 223.25927734 C213.71642096 227.64603978 218.25243152 232.06643088 222.73364258 236.54833984 C224.32290829 238.13539381 225.92005962 239.71422737 227.51757812 241.29296875 C242.89520928 256.58557529 242.89520928 256.58557529 243.375 268.8125 C243.2404528 276.04216952 241.31106435 281.1753658 236.75 286.75 C232.07465441 290.57528275 227.2093845 294.52235504 221 295 C219.9275 295.0825 218.855 295.165 217.75 295.25 C205.7309624 294.44873083 197.94063204 287.23935304 189.7265625 279.09765625 C189.07674408 278.4568663 188.42692566 277.81607635 187.75741577 277.15586853 C186.39859493 275.81144011 185.04246878 274.46428303 183.68896484 273.11450195 C181.62135829 271.0588794 179.53578638 269.02267899 177.44921875 266.98632812 C176.12385598 265.67042208 174.79959772 264.35340244 173.4765625 263.03515625 C172.85576813 262.4338942 172.23497375 261.83263214 171.59536743 261.21315002 C167.7455263 257.32259143 165.93582424 254.43213517 165 249 C165.20625 248.113125 165.4125 247.22625 165.625 246.3125 C165.810625 245.1678125 165.810625 245.1678125 166 244 C164.16641665 241.66545339 164.16641665 241.66545339 162 240 C158.96123829 241.3447015 157.04386965 242.80375772 154.8125 245.25 C147.79616229 252.46207246 140.40566481 256.96101112 130.25 257.375 C121.45994055 257.21141329 114.14573786 254.288662 108 248 C101.92812495 239.83087563 99.92858387 232.16569825 101 222 C102.36588851 217.22583308 104.2491887 213.12621695 107 209 C105.02409364 206.27127334 105.02409364 206.27127334 102 204 C99.87518831 203.99571611 98.11060957 204.34511758 96.0625 204.8984375 C92.34939526 205.08127978 89.89409677 202.79558698 87.2048645 200.40264893 C85.05799618 198.35623996 82.94804539 196.27768974 80.84765625 194.18359375 C80.06990341 193.41249771 79.29215057 192.64140167 78.49082947 191.84693909 C76.84843099 190.21465072 75.20872358 188.57965073 73.5715332 186.94213867 C71.08512964 184.46009 68.58320888 181.99446031 66.08007812 179.52929688 C64.4807893 177.93588038 62.88245124 176.34150893 61.28515625 174.74609375 C60.54435318 174.01966171 59.80355011 173.29322968 59.04029846 172.54478455 C48.11413356 161.5231414 42.27730238 148.59503444 41.90625 133.05859375 C41.97889249 120.31891757 46.49033962 108.89382611 54.11206055 98.81787109 C54.65275681 98.10166595 55.19345306 97.38546082 55.75053406 96.64755249 C56.16285782 96.10386017 56.57518158 95.56016785 57 95 C56.5887941 94.59101471 56.1775882 94.18202942 55.75392151 93.76065063 C51.48488161 89.51368848 47.21932953 85.2632466 42.95581055 81.01074219 C41.3629583 79.42292701 39.76921082 77.83600939 38.17456055 76.25 C35.88616257 73.97369489 33.60097521 71.6942097 31.31640625 69.4140625 C30.59973282 68.70255035 29.88305939 67.99103821 29.14466858 67.25796509 C28.15375465 66.26716446 28.15375465 66.26716446 27.14282227 65.25634766 C26.55880142 64.67454742 25.97478058 64.09274719 25.37306213 63.49331665 C23.32269192 61.26337243 22.98738292 59.92114327 22.5 56.875 C23.11789243 52.08633368 24.79907763 50.36932603 28.078125 46.9921875 C30.21599842 44.7760992 32.09007058 42.41345626 34 40 C33.57404541 39.58736908 33.14809082 39.17473816 32.70922852 38.74960327 C28.27927875 34.45238359 23.87058519 30.13419435 19.47363281 25.80322266 C17.82990534 24.1896702 16.18083338 22.5815435 14.52636719 20.97900391 C12.14914016 18.67454913 9.79181461 16.35126701 7.4375 14.0234375 C6.6937915 13.31069672 5.95008301 12.59795593 5.18383789 11.86361694 C0.10457773 6.78773835 0.10457773 6.78773835 -0.46484375 2.49853516 C-0.31144531 1.67401855 -0.15804687 0.84950195 0 0 Z " fill="#44B7C3" transform="translate(0,0)"/>
<path d="M0 0 C5.61788269 4.21698573 9.7789003 11.0773156 11.22265625 17.90234375 C11.97663121 25.88287869 11.59951745 33.02297163 7.22265625 39.90234375 C4.72347337 42.8861896 2.05998739 45.70592862 -0.71191406 48.43725586 C-4.306889 51.92743443 -4.306889 51.92743443 -4.77734375 56.90234375 C-3.82185394 58.85860353 -3.82185394 58.85860353 -1.77734375 59.90234375 C-0.68421875 59.73734375 0.40890625 59.57234375 1.53515625 59.40234375 C6.09940309 58.78346282 7.31731303 59.52569126 11.22265625 61.90234375 C13.83286952 64.09114488 16.23051285 66.46581187 18.6328125 68.87890625 C19.32273788 69.56358978 20.01266327 70.24827332 20.72349548 70.95370483 C22.17693792 72.40074281 23.62654079 73.8516464 25.07250977 75.30615234 C27.26939455 77.51152118 29.48422664 79.69763289 31.70117188 81.8828125 C33.11701726 83.29704486 34.53176702 84.7123751 35.9453125 86.12890625 C36.92831078 87.09505356 36.92831078 87.09505356 37.9311676 88.08071899 C44.58464296 94.834716 48.73704683 101.58942133 49.47265625 111.15234375 C48.9724011 118.65617104 46.41293229 126.22307698 40.62109375 131.30859375 C33.33336654 136.83057208 26.22748891 137.77830023 17.22265625 136.90234375 C8.44350008 134.99509755 2.37287409 127.98861524 -3.77734375 121.90234375 C-4.68613281 121.00725098 -5.59492188 120.1121582 -6.53125 119.18994141 C-9.66310042 116.10225477 -12.78491799 113.00458861 -15.90234375 109.90234375 C-16.42346741 109.38417084 -16.94459106 108.86599792 -17.48150635 108.3321228 C-18.98164304 106.83774473 -20.47782888 105.33953083 -21.97265625 103.83984375 C-22.84937988 102.96199219 -23.72610352 102.08414063 -24.62939453 101.1796875 C-27.51728221 98.11783069 -28.74937487 96.68547231 -28.90234375 92.40234375 C-28.86109375 91.24734375 -28.81984375 90.09234375 -28.77734375 88.90234375 C-28.77734375 87.91234375 -28.77734375 86.92234375 -28.77734375 85.90234375 C-30.42734375 84.58234375 -32.07734375 83.26234375 -33.77734375 81.90234375 C-43.67734375 91.80234375 -53.57734375 101.70234375 -63.77734375 111.90234375 C-62.12734375 113.88234375 -60.47734375 115.86234375 -58.77734375 117.90234375 C-58.11734375 117.57234375 -57.45734375 117.24234375 -56.77734375 116.90234375 C-53.87265764 116.29720081 -52.56948536 116.11789888 -49.77734375 116.90234375 C-47.63208008 118.50585938 -47.63208008 118.50585938 -45.296875 120.68359375 C-44.41854004 121.50134277 -43.54020508 122.3190918 -42.63525391 123.16162109 C-38.06092279 127.54838353 -33.52491223 131.96877463 -29.04370117 136.45068359 C-27.45443546 138.03773756 -25.85728413 139.61657112 -24.25976562 141.1953125 C-8.88213447 156.48791904 -8.88213447 156.48791904 -8.40234375 168.71484375 C-8.53689095 175.94451327 -10.4662794 181.07770955 -15.02734375 186.65234375 C-19.70268934 190.4776265 -24.56795925 194.42469879 -30.77734375 194.90234375 C-31.84984375 194.98484375 -32.92234375 195.06734375 -34.02734375 195.15234375 C-46.04638135 194.35107458 -53.83671171 187.14169679 -62.05078125 179 C-62.70059967 178.35921005 -63.35041809 177.7184201 -64.01992798 177.05821228 C-65.37874882 175.71378386 -66.73487497 174.36662678 -68.08837891 173.0168457 C-70.15598546 170.96122315 -72.24155737 168.92502274 -74.328125 166.88867188 C-75.65348777 165.57276583 -76.97774603 164.25574619 -78.30078125 162.9375 C-78.92157562 162.33623795 -79.54237 161.73497589 -80.18197632 161.11549377 C-84.03181745 157.22493518 -85.84151951 154.33447892 -86.77734375 148.90234375 C-86.57109375 148.01546875 -86.36484375 147.12859375 -86.15234375 146.21484375 C-85.96671875 145.07015625 -85.96671875 145.07015625 -85.77734375 143.90234375 C-87.6109271 141.56779714 -87.6109271 141.56779714 -89.77734375 139.90234375 C-92.81610546 141.24704525 -94.7334741 142.70610147 -96.96484375 145.15234375 C-103.98118146 152.36441621 -111.37167894 156.86335487 -121.52734375 157.27734375 C-130.3174032 157.11375704 -137.63160589 154.19100575 -143.77734375 147.90234375 C-149.73879727 139.88178093 -152.13932541 131.9209885 -150.77734375 121.90234375 C-148.4816256 113.93636026 -144.60530456 108.87853127 -138.73583984 103.16381836 C-137.92892197 102.35441803 -137.12200409 101.5450177 -136.29063416 100.71109009 C-133.64146977 98.06101337 -130.9716537 95.43286915 -128.30078125 92.8046875 C-126.44917096 90.96173795 -124.59881662 89.11752577 -122.74966431 87.27210999 C-118.8842398 83.41859825 -115.00810761 79.57615479 -111.12402344 75.74145508 C-105.6431392 70.33021204 -100.18257748 64.89880622 -94.72561908 59.46345127 C-90.48378371 55.23989538 -86.23631646 51.02200636 -81.98828125 46.8046875 C-81.08062389 45.90345594 -80.17296654 45.00222439 -79.23780441 44.07368279 C-76.68147691 41.53825442 -74.12150596 39.006573 -71.56005859 36.47631836 C-70.79742203 35.71951279 -70.03478546 34.96270721 -69.2490387 34.18296814 C-68.55369522 33.49767029 -67.85835175 32.81237244 -67.14193726 32.10630798 C-66.23438973 31.20906714 -66.23438973 31.20906714 -65.30850792 30.29370022 C-62.90345907 28.10825183 -61.73238058 27.89818049 -58.40234375 27.58984375 C-54.77734375 27.90234375 -54.77734375 27.90234375 -52.33984375 29.52734375 C-50.77734375 31.90234375 -50.77734375 31.90234375 -50.08984375 34.65234375 C-51.67965946 42.16783621 -59.99989401 48.26082565 -65.33325195 53.54003906 C-66.41261269 54.61479996 -66.41261269 54.61479996 -67.51377869 55.71127319 C-69.06169831 57.2520899 -70.61074513 58.79177489 -72.16082191 60.33042145 C-74.61366203 62.7657521 -77.06283893 65.20471277 -79.5110321 67.64471436 C-86.46703772 74.57635958 -93.42875655 81.50224627 -100.39477539 88.42382812 C-104.66697548 92.66927886 -108.93431873 96.91956121 -113.19869041 101.17287445 C-114.82233782 102.79031148 -116.44788055 104.40584821 -118.07534218 106.01944733 C-120.34425265 108.26918491 -122.606976 110.52497558 -124.8684082 112.78222656 C-125.54217499 113.44723175 -126.21594177 114.11223694 -126.91012573 114.7973938 C-127.83304665 115.72227097 -127.83304665 115.72227097 -128.77461243 116.66583252 C-129.30937856 117.19745625 -129.84414469 117.72907997 -130.39511585 118.27681351 C-132.89320276 121.21461835 -133.7332378 123.42599946 -134.08984375 127.27734375 C-133.67599311 132.07801118 -132.31004387 135.19934361 -129.08984375 138.77734375 C-125.71276867 140.42024514 -122.41617766 140.56277268 -118.77734375 139.90234375 C-114.47358769 138.00257544 -111.40392861 135.90497709 -108.08306885 132.58901978 C-107.19422501 131.70863541 -106.30538116 130.82825104 -105.38960266 129.92118835 C-104.42266948 128.94842334 -103.45589306 127.97550248 -102.48925781 127.00244141 C-101.45776756 125.97501973 -100.42564095 124.9482366 -99.39292908 123.92204285 C-96.59901017 121.14176756 -93.81462465 118.35212598 -91.03228855 115.56026506 C-88.11625176 112.63661844 -85.19288591 109.72031492 -82.27069092 106.80282593 C-77.36629437 101.9038822 -72.46824587 96.99865831 -67.57373047 92.08984375 C-61.91709462 86.41687323 -56.24972011 80.75480328 -50.57666421 75.09825671 C-45.70222737 70.23743733 -40.83366559 65.3707916 -35.96995902 60.49923551 C-33.06672577 57.59132837 -30.16151113 54.6854787 -27.25098419 51.78487015 C-24.51581821 49.0583756 -21.78810583 46.32463614 -19.06595039 43.58515358 C-18.06638958 42.58162929 -17.06427308 41.58064308 -16.05942345 40.58241463 C-14.68723516 39.21843635 -13.3251955 37.84427101 -11.96368408 36.46963501 C-11.19901447 35.70383432 -10.43434486 34.93803364 -9.64650345 34.14902687 C-6.23226456 30.04519728 -5.31932823 26.04507424 -5.45703125 20.83203125 C-6.1011488 16.95161574 -8.52826408 14.80684972 -11.58984375 12.58984375 C-15.84765692 11.2516739 -19.48073613 11.38262912 -23.61328125 13.0390625 C-27.37678675 15.25534907 -30.04629994 17.87402856 -33.02734375 21.02734375 C-39.46416717 27.73105985 -39.46416717 27.73105985 -43.65234375 28.27734375 C-46.77734375 27.90234375 -46.77734375 27.90234375 -49.15234375 25.77734375 C-51.07428729 22.37698211 -51.21103491 20.75737626 -50.77734375 16.90234375 C-49.08984375 14.41015625 -49.08984375 14.41015625 -46.77734375 12.02734375 C-45.95105469 11.17140625 -45.12476563 10.31546875 -44.2734375 9.43359375 C-43.44972656 8.59828125 -42.62601562 7.76296875 -41.77734375 6.90234375 C-41.10832031 6.14953125 -40.43929687 5.39671875 -39.75 4.62109375 C-28.91116953 -7.2595057 -13.51142676 -8.3444196 0 0 Z " fill="#010202" transform="translate(251.77734375,100.09765625)"/>
<path d="M0 0 C6.45234427 4.62722193 10.04003656 10.07323468 12.53515625 17.55859375 C13.21303904 27.81808899 13.03745428 35.60250023 6.34765625 43.62109375 C4.12846483 46.08866182 1.74225246 48.24015273 -0.78317261 50.3815918 C-6.99665897 55.80760708 -12.75381334 61.70799967 -18.57861328 67.54296875 C-19.89003206 68.85303052 -21.20166305 70.1628799 -22.51348877 71.47253418 C-26.05696197 75.01146912 -29.59728948 78.55353511 -33.13690424 82.09632874 C-36.85082532 85.81279156 -40.56719701 89.52680257 -44.28317261 93.24121094 C-50.52049643 99.47671858 -56.75571592 105.71432462 -62.98974609 111.953125 C-70.18720963 119.15603248 -77.38827165 126.35532733 -84.59120858 133.55276108 C-90.78773793 139.74474644 -96.98230889 145.93868595 -103.17525947 152.13425064 C-106.86871767 155.82926422 -110.56283954 159.52360748 -114.25873184 163.21618652 C-117.73300614 166.68756332 -121.20480812 170.16139425 -124.67475128 173.63710022 C-125.94528878 174.90895515 -127.21666906 176.17996883 -128.48897171 177.45005798 C-135.9972477 184.86935283 -135.9972477 184.86935283 -143.04171753 192.72167969 C-146.67367678 196.9738545 -150.91387225 199.50734782 -156.46484375 200.55859375 C-167.00463241 201.35925017 -174.0662809 200.29606034 -182.71484375 194.30859375 C-189.18354828 187.83988922 -191.93585742 181.27164616 -192.77734375 172.18359375 C-191.72734159 160.00356866 -185.56392288 152.34695222 -177.1539917 143.97358704 C-176.54747151 143.36183016 -175.94095131 142.75007329 -175.31605172 142.11977834 C-173.30360977 140.09245952 -171.28420618 138.07223037 -169.26464844 136.05200195 C-167.81163687 134.59136087 -166.35902597 133.13032111 -164.90678406 131.66891479 C-160.97560381 127.71586691 -157.03794178 123.76933957 -153.09836102 119.82466531 C-150.63451262 117.3571656 -148.17196556 114.8883746 -145.7098465 112.4191494 C-137.11256377 103.7974036 -128.50960326 95.18136559 -119.90185547 86.57006836 C-111.88976656 78.55434185 -103.89091444 70.52556976 -95.89795947 62.49076778 C-89.02339591 55.58148256 -82.13921445 48.68187861 -75.24761701 41.78958386 C-71.13674931 37.67792431 -67.02993235 33.56240923 -62.93294525 29.43691444 C-59.07961603 25.55737146 -55.2144347 21.69003729 -51.33997536 17.83160019 C-49.92396585 16.4174022 -48.51218206 14.99895782 -47.10508537 13.57589149 C-33.87683738 0.20676486 -18.93452413 -11.07264565 0 0 Z " fill="#010100" transform="translate(393.46484375,199.44140625)"/>
<path d="M0 0 C15.57024812 -2.25015199 15.57024812 -2.25015199 22.11035156 2.625 C26.10360514 6.11764903 29.6126567 10.03423647 33.125 14 C34.38756129 15.35304539 35.65446923 16.70204841 36.92578125 18.046875 C40.0025945 21.32015271 43.01553823 24.64240078 46 28 C47.10512482 27.06102237 48.20905706 26.12064104 49.3125 25.1796875 C50.23482422 24.39440674 50.23482422 24.39440674 51.17578125 23.59326172 C52.32428526 22.5901652 53.45080781 21.5607477 54.54296875 20.49658203 C57.10354 18.08617833 58.92563408 17.01652576 62.375 16.25 C72.22656981 18.28825582 81.05146447 30.94064744 88 37.9375 C89.2640885 39.20661373 90.52840956 40.47549589 91.79296875 41.74414062 C94.86466724 44.8267632 97.93320008 47.91250428 101 51 C105.11978307 48.27069082 105.11978307 48.27069082 109.16796875 45.4375 C120.99508142 37.01897492 134.57124417 34.43860921 148.875 36.6875 C167.85351804 40.93982961 180.18685226 54.94110713 193.5168457 68.11181641 C194.89060506 69.46377006 196.27060424 70.80940995 197.65649414 72.14892578 C199.6827836 74.10837789 201.68873443 76.08676261 203.69140625 78.0703125 C204.3110878 78.66216339 204.93076935 79.25401428 205.56922913 79.86380005 C208.55331176 82.86245208 209.88265689 84.56834601 211.01928711 88.74951172 C211 92 211 92 209 94.9375 C205.16658553 97.57297245 203.59171354 97.68702615 199 97 C196.08587954 95.0237435 193.78289908 92.55048753 191.37890625 89.9921875 C190.67531479 89.27394806 189.97172333 88.55570862 189.24681091 87.81570435 C187.00154546 85.5181127 184.7813381 83.1980982 182.5625 80.875 C180.34318144 78.57770473 178.11884267 76.28555013 175.88890076 73.99856567 C174.50485344 72.576346 173.12749628 71.14757271 171.75819397 69.71115112 C162.61356489 60.24025061 152.61026572 52.91580526 139 52.375 C117.93046689 53.32428666 103.81901195 72.94619022 89.90722656 86.79760742 C88.04610366 88.64713505 86.18050312 90.49216742 84.31054688 92.33276367 C81.57470581 95.02582735 78.85245996 97.73200119 76.1328125 100.44140625 C74.89049362 101.657463 74.89049362 101.657463 73.62307739 102.89808655 C65.74501737 110.80563207 60.1504074 118.70830887 59 130 C58.90589844 130.80179688 58.81179687 131.60359375 58.71484375 132.4296875 C57.99225205 144.02821065 64.12647847 152.99098529 71.49240112 161.36062622 C74.36371251 164.48291072 77.4004462 167.4347986 80.44140625 170.390625 C81.09934677 171.03068985 81.75728729 171.6707547 82.43516541 172.33021545 C85.17194687 174.98425899 87.91305172 177.63302039 90.67700195 180.25878906 C92.71854417 182.2036579 94.73735398 184.16990168 96.75390625 186.140625 C97.38188614 186.72620178 98.00986603 187.31177856 98.65687561 187.9151001 C101.74509789 190.96558714 102.90411208 192.30917417 103.51928711 196.74121094 C103 200 103 200 100.9375 203 C97.87144403 205.08752747 96.6000005 205.44556856 92.99856567 204.78756714 C88.58114159 203.04680971 85.47378449 199.27767758 82.21484375 195.94140625 C81.39552872 195.12308823 80.57621368 194.3047702 79.73207092 193.46165466 C78.00287757 191.72778595 76.2810535 189.9865408 74.56616211 188.23852539 C71.96041574 185.58582863 69.32931543 182.96053253 66.69335938 180.33789062 C65.01143487 178.6448032 63.33104595 176.95018865 61.65234375 175.25390625 C60.87406723 174.47745255 60.09579071 173.70099884 59.29393005 172.90101624 C47.772778 161.08214536 41.82362624 147.54873578 41.91796875 131.00341797 C42.40850507 119.02323637 46.94800236 108.28879356 54.11206055 98.81787109 C54.65275681 98.10166595 55.19345306 97.38546082 55.75053406 96.64755249 C56.16285782 96.10386017 56.57518158 95.56016785 57 95 C56.5887941 94.59101471 56.1775882 94.18202942 55.75392151 93.76065063 C51.48488161 89.51368848 47.21932953 85.2632466 42.95581055 81.01074219 C41.3629583 79.42292701 39.76921082 77.83600939 38.17456055 76.25 C35.88616257 73.97369489 33.60097521 71.6942097 31.31640625 69.4140625 C30.59973282 68.70255035 29.88305939 67.99103821 29.14466858 67.25796509 C28.15375465 66.26716446 28.15375465 66.26716446 27.14282227 65.25634766 C26.55880142 64.67454742 25.97478058 64.09274719 25.37306213 63.49331665 C23.32269192 61.26337243 22.98738292 59.92114327 22.5 56.875 C23.11789243 52.08633368 24.79907763 50.36932603 28.078125 46.9921875 C30.21599842 44.7760992 32.09007058 42.41345626 34 40 C33.57404541 39.58736908 33.14809082 39.17473816 32.70922852 38.74960327 C28.27927875 34.45238359 23.87058519 30.13419435 19.47363281 25.80322266 C17.82990534 24.1896702 16.18083338 22.5815435 14.52636719 20.97900391 C12.14914016 18.67454913 9.79181461 16.35126701 7.4375 14.0234375 C6.6937915 13.31069672 5.95008301 12.59795593 5.18383789 11.86361694 C0.10457773 6.78773835 0.10457773 6.78773835 -0.46484375 2.49853516 C-0.31144531 1.67401855 -0.15804687 0.84950195 0 0 Z " fill="#000101" transform="translate(0,0)"/>
<path d="M0 0 C2.29761946 2.71536845 2.69991075 3.95460049 3.0625 7.4375 C-0.28521186 23.01912947 -10.7495874 33.94786211 -21.9375 44.4375 C-20.63035106 47.32603605 -19.24251746 49.37583962 -16.98828125 51.59790039 C-16.39426514 52.18853775 -15.80024902 52.77917511 -15.18823242 53.38771057 C-14.22880737 54.32694618 -14.22880737 54.32694618 -13.25 55.28515625 C-12.59169189 55.93826279 -11.93338379 56.59136932 -11.25512695 57.26426697 C-9.15394807 59.34765482 -7.04620314 61.42423032 -4.9375 63.5 C-2.82967369 65.58019293 -0.72332654 67.66182992 1.38012695 69.7464447 C2.68841167 71.04249077 3.99936058 72.33585419 5.31323242 73.62623596 C5.90724854 74.21372116 6.50126465 74.80120636 7.11328125 75.40649414 C7.63575439 75.92071426 8.15822754 76.43493439 8.6965332 76.96473694 C10.93825482 79.38172453 12.0271719 81.28012936 12.75 84.5 C11.8083625 89.89301475 8.98281226 92.36340302 5.2265625 96.203125 C2.93199937 98.43779841 2.93199937 98.43779841 1.0625 101.4375 C1.57615112 101.93782745 2.08980225 102.43815491 2.61901855 102.9536438 C7.46092198 107.67524276 12.28822242 112.41123306 17.09970856 117.16383553 C19.57379171 119.60662768 22.05313223 122.04353638 24.54541016 124.46777344 C27.4115518 127.25615198 30.25300219 130.06856585 33.09375 132.8828125 C34.43898743 134.18159836 34.43898743 134.18159836 35.81140137 135.50662231 C36.6322522 136.32701996 37.45310303 137.1474176 38.29882812 137.99267578 C39.39136902 139.06523117 39.39136902 139.06523117 40.50598145 140.15945435 C42.4925968 143.06696898 42.36044994 144.98946777 42.0625 148.4375 C35.14452397 149.73404169 27.95012926 150.74686607 21.64587402 147.00195312 C15.63206112 142.27862181 10.56541933 136.58167462 5.4375 130.9375 C3.83764253 129.24721299 2.23350265 127.56096847 0.625 125.87890625 C-3.2798213 121.77713181 -7.12862181 117.62841144 -10.9375 113.4375 C-12.04262482 114.37647763 -13.14655706 115.31685896 -14.25 116.2578125 C-14.86488281 116.78133301 -15.47976563 117.30485352 -16.11328125 117.84423828 C-17.26178526 118.8473348 -18.38830781 119.8767523 -19.48046875 120.94091797 C-21.95774511 123.2729117 -23.89463307 124.4259589 -27.1875 125.3125 C-37.28909648 122.95546082 -46.81942749 109.67354691 -54.0625 102.375 C-55.22111712 101.21135247 -56.3799699 100.04793954 -57.5390625 98.88476562 C-60.34125764 96.07169935 -63.14027314 93.25550626 -65.9375 90.4375 C-69.9825421 92.28610743 -72.60270511 94.99904409 -75.625 98.1875 C-88.1289501 110.94906822 -103.16185147 117.23203964 -121.0625 117.8125 C-150.43966616 117.33819661 -168.44169346 98.27473314 -187.89819336 78.68261719 C-190.65219406 75.91012333 -193.41435117 73.14595187 -196.17773438 70.3828125 C-197.93537227 68.62026665 -199.69255101 66.85726277 -201.44921875 65.09375 C-202.27306564 64.26879028 -203.09691254 63.44383057 -203.94572449 62.59387207 C-204.70444351 61.82877319 -205.46316254 61.06367432 -206.24487305 60.27539062 C-206.91181686 59.60463501 -207.57876068 58.93387939 -208.26591492 58.24279785 C-210.84797767 55.45419176 -211.89504967 53.826628 -212.3125 50 C-211.9375 46.4375 -211.9375 46.4375 -210.375 44 C-206.84300465 41.73590042 -205.07608566 41.6787593 -200.9375 42.4375 C-194.58640452 46.95080112 -189.22200667 53.07565279 -183.79296875 58.625 C-182.04667737 60.39367695 -180.29991803 62.16189197 -178.55273438 63.9296875 C-175.83626102 66.68319141 -173.12297579 69.43956857 -170.41772461 72.20410156 C-167.78128854 74.89542843 -165.13197883 77.57353339 -162.48046875 80.25 C-161.68738815 81.06686279 -160.89430756 81.88372559 -160.07719421 82.7253418 C-148.66022205 94.19436895 -136.97393688 100.17057368 -120.75 100.75 C-113.87308967 100.68683664 -108.23413962 99.11824756 -101.9375 96.4375 C-101.18082031 96.12167969 -100.42414063 95.80585938 -99.64453125 95.48046875 C-94.76198437 93.10589677 -90.9180303 89.75151191 -86.98193359 86.06469727 C-86.41517599 85.53729981 -85.84841839 85.00990236 -85.26448631 84.46652317 C-78.95010718 78.56125421 -72.79495006 72.49701421 -66.6640625 66.40234375 C-66.066898 65.80925478 -65.46973351 65.21616581 -64.85447311 64.60510445 C-61.70527962 61.47651426 -58.55918762 58.34484288 -55.41552734 55.21069336 C-52.20001904 52.00631456 -48.97297087 48.81381588 -45.74334145 45.62367916 C-43.22797886 43.13459959 -40.72167497 40.6365422 -38.21763229 38.13607979 C-37.03225043 36.95551798 -35.84353987 35.77828733 -34.65123367 34.60471916 C-25.9015758 25.98431881 -18.77910431 17.3417966 -14 5.875 C-11.5610714 0.86019761 -11.5610714 0.86019761 -8.9609375 -0.90234375 C-5.36530572 -2.04028714 -3.2936659 -1.75194995 0 0 Z " fill="#010000" transform="translate(469.9375,351.5625)"/>
<path d="M0 0 C3.93049991 2.11642303 6.62051507 4.23645937 9 8 C9.50390625 10.296875 9.50390625 10.296875 9.5625 12.75 C9.62630859 13.94882813 9.62630859 13.94882813 9.69140625 15.171875 C7.32336988 24.85808027 -3.96542451 33.2462871 -10.82055664 40.0793457 C-12.23244419 41.49394629 -13.64390656 42.90897135 -15.05497742 44.3243866 C-18.87248926 48.15098493 -22.69626256 51.97126758 -26.5214951 55.79014611 C-30.52867849 59.79225311 -34.53096537 63.79925211 -38.53404236 67.8054657 C-45.25290748 74.52796442 -51.97596763 81.24624609 -58.70141602 87.9621582 C-66.47598498 95.72583052 -74.24330494 103.49669941 -82.00692469 111.27131969 C-88.67854671 117.95201599 -95.35405619 124.62880904 -102.03283399 131.30235165 C-106.01947393 135.28587439 -110.00475213 139.27073421 -113.9865284 143.25911903 C-117.72731704 147.00568298 -121.47296059 150.7473243 -125.22241402 154.48521614 C-126.5975731 155.85773022 -127.97103214 157.23195004 -129.34266281 158.60799026 C-131.21462413 160.48541425 -133.09263331 162.35657312 -134.9723053 164.22627258 C-135.51394493 164.77237366 -136.05558456 165.31847473 -136.61363751 165.88112432 C-140.95439032 170.17729989 -144.66383389 173.42071196 -150.9375 173.5 C-154.50353167 173.39370994 -156.69159858 172.98568074 -159.5 170.75 C-162.80640712 167.11295217 -163.83222901 165.50993888 -164.375 160.625 C-163.66299138 153.74225001 -158.59399723 149.30290423 -153.88928223 144.63531494 C-153.28023749 144.02315022 -152.67119275 143.4109855 -152.04369211 142.78027034 C-150.01106285 140.73969308 -147.97139513 138.70630457 -145.93164062 136.67285156 C-144.46916421 135.20766393 -143.00711336 133.74205141 -141.54545593 132.27604675 C-137.58121489 128.30269668 -133.61068396 124.33568854 -129.63871574 120.37006474 C-125.48291415 116.21932887 -121.33199694 112.06371306 -117.18029785 107.90887451 C-110.20989353 100.93483304 -103.23528577 93.96501618 -96.25830078 86.99755859 C-88.18837665 78.93852704 -80.12569431 70.87230422 -72.06671953 62.80232453 C-65.1480196 55.87455479 -58.22543742 48.95068252 -51.29958296 42.0300653 C-47.16259602 37.89619863 -43.02697761 33.76098721 -38.89485168 29.62226105 C-35.01209556 25.73373627 -31.12449609 21.85012017 -27.23307228 17.97027016 C-25.80427856 16.54412521 -24.37719196 15.11626765 -22.95192528 13.68659782 C-21.00943608 11.73866069 -19.06091939 9.79696171 -17.11071777 7.85675049 C-16.2626606 7.00200115 -16.2626606 7.00200115 -15.39747095 6.12998414 C-10.34142776 1.12421472 -7.22733714 -0.74765557 0 0 Z " fill="#F9C33C" transform="translate(381,211)"/>
<path d="M0 0 C0 0.66 0 1.32 0 2 C-1.37275696 3.35331059 -1.37275696 3.35331059 -3.3293457 4.96144104 C-8.74207075 9.56926006 -13.71669181 14.58415092 -18.73046875 19.61694336 C-19.78560747 20.67236472 -20.84096757 21.72756481 -21.89653015 22.78256226 C-24.73911743 25.62486458 -27.57862766 28.47022253 -30.41756439 31.31617045 C-33.39327049 34.29816054 -36.37184021 37.27728758 -39.35009766 40.25672913 C-44.97943978 45.88916976 -50.6062296 51.52415289 -56.23209 57.16007096 C-62.6412897 63.58047793 -69.05335532 69.99801946 -75.46565437 76.41533077 C-88.6469442 89.60705144 -101.8246596 102.80233743 -115 116 C-111.43178543 120.2394305 -107.79277777 124.33679111 -103.88769531 128.2734375 C-103.41520355 128.75089417 -102.94271179 129.22835083 -102.4559021 129.72027588 C-100.91602411 131.27457273 -99.37244701 132.82511931 -97.828125 134.375 C-97.29448082 134.91147156 -96.76083664 135.44794312 -96.21102142 136.00067139 C-93.38816844 138.83843231 -90.56251551 141.67336833 -87.734375 144.50585938 C-84.838614 147.40710054 -81.95225213 150.31750547 -79.06801224 153.23019409 C-76.82523913 155.4917292 -74.57565121 157.74639421 -72.32424164 159.99932861 C-71.25818966 161.06837581 -70.19460028 162.13988539 -69.13370514 163.21405029 C-56.04620899 176.45353632 -41.65172785 187.07114009 -22.3125 187.25 C-17.47738912 187.13460356 -12.7762502 186.74921572 -8 186 C-16.04619153 196.3015634 -26.99928768 203.53434766 -40 206 C-53.83651906 206.85680685 -66.48804019 204.93606594 -77.53320312 195.93579102 C-87.50380106 186.69182918 -97.05004464 177.02564671 -106.625 167.375 C-110.05183321 163.92162668 -113.4819444 160.47155754 -116.9140625 157.0234375 C-118.08891708 155.83613541 -118.08891708 155.83613541 -119.2875061 154.62484741 C-120.00941132 153.89963898 -120.73131653 153.17443054 -121.47509766 152.42724609 C-122.10952789 151.78757904 -122.74395813 151.14791199 -123.39761353 150.48886108 C-126.72212041 147.39988785 -129.60347955 147.92419792 -134 148 C-138 148 -138 148 -140.75 145.5 C-141.4925 144.675 -142.235 143.85 -143 143 C-141.38484282 138.9617877 -138.5273771 136.24806662 -135.49597168 133.24200439 C-134.92806018 132.67097292 -134.36014869 132.09994144 -133.77502775 131.51160598 C-131.86972883 129.59832601 -129.95735622 127.69227857 -128.04492188 125.78613281 C-126.67801557 124.41651676 -125.31153518 123.04647553 -123.94544983 121.67604065 C-120.23329086 117.95475524 -116.51482273 114.23983444 -112.79493141 110.5262804 C-108.90778184 106.64418742 -105.02550642 102.75722509 -101.14245605 98.87103271 C-94.62249221 92.34742911 -88.0983196 85.82805692 -81.57177734 79.31103516 C-74.01649575 71.76664723 -66.46845862 64.2150688 -58.9241271 56.6597321 C-52.45389848 50.18044178 -45.97979826 43.70503935 -39.50241709 37.23289943 C-35.63038667 33.3639937 -31.75973604 29.49373359 -27.89256287 25.61997223 C-24.25934861 21.98100106 -20.62131593 18.34691827 -16.97942924 14.71662712 C-15.64009723 13.37995019 -14.3024838 12.04154883 -12.96667671 10.70134926 C-11.15035853 8.87960779 -9.32806121 7.06407309 -7.50402832 5.25006104 C-6.97037643 4.7119477 -6.43672454 4.17383437 -5.88690138 3.61941457 C-2.22830049 0 -2.22830049 0 0 0 Z " fill="#D5A12D" transform="translate(396,247)"/>
<path d="M0 0 C0.03738281 1.0621875 0.07476562 2.124375 0.11328125 3.21875 C0.54885469 13.9386873 0.54885469 13.9386873 4 24 C4.30421875 24.67675781 4.6084375 25.35351562 4.921875 26.05078125 C12.17739174 40.85098387 27.67972482 52.80062873 39.1875 64.25 C40.92015635 65.97762946 42.65258001 67.70549232 44.38476562 69.43359375 C48.58716714 73.6250882 52.79242316 77.81370109 57 82 C55.1068216 86.12390399 52.32174632 88.93280604 49.1171875 92.078125 C48.54292023 92.64956238 47.96865295 93.22099976 47.37698364 93.80975342 C45.5476419 95.62792945 43.71145807 97.43901492 41.875 99.25 C40.63105226 100.48391329 39.3875573 101.71828322 38.14453125 102.953125 C35.10157633 105.97406743 32.05246746 108.98867092 29 112 C25.25979502 110.31847927 23.43865652 108.30960527 21 105 C21.33 104.34 21.66 103.68 22 103 C22.54353395 99.58050858 22.74988596 97.11180152 20.75628662 94.15603638 C18.91212986 92.1343891 16.98637084 90.25280783 14.9921875 88.37890625 C14.27394806 87.67531479 13.55570862 86.97172333 12.81570435 86.24681091 C10.5181127 84.00154546 8.1980982 81.7813381 5.875 79.5625 C3.57770473 77.34318144 1.28555013 75.11884267 -1.00143433 72.88890076 C-2.423654 71.50485344 -3.85242729 70.12749628 -5.28884888 68.75819397 C-13.87162752 60.47109106 -22.1424601 50.38469189 -22.4375 37.875 C-22.3360518 36.24662639 -22.19017661 34.62040897 -22 33 C-21.91621094 32.17757812 -21.83242188 31.35515625 -21.74609375 30.5078125 C-20.60956361 22.82726144 -9.63974423 0 0 0 Z " fill="#229797" transform="translate(80,97)"/>
<path d="M0 0 C9.52120226 2.1499489 17.73068406 13.54431016 24.60864258 20.42333984 C26.19790829 22.01039381 27.79505962 23.58922737 29.39257812 25.16796875 C44.77020928 40.46057529 44.77020928 40.46057529 45.25 52.6875 C45.1154528 59.91716952 43.18606435 65.0503658 38.625 70.625 C33.94965441 74.45028275 29.0843845 78.39735504 22.875 78.875 C21.8025 78.9575 20.73 79.04 19.625 79.125 C7.6059624 78.32373083 -0.18436796 71.11435304 -8.3984375 62.97265625 C-9.37316513 62.01147133 -9.37316513 62.01147133 -10.36758423 61.03086853 C-11.72640507 59.68644011 -13.08253122 58.33928303 -14.43603516 56.98950195 C-16.50364171 54.9338794 -18.58921362 52.89767899 -20.67578125 50.86132812 C-22.00114402 49.54542208 -23.32540228 48.22840244 -24.6484375 46.91015625 C-25.57962906 46.00826317 -25.57962906 46.00826317 -26.52963257 45.08815002 C-30.36720746 41.2099874 -32.25713315 38.3128947 -33.125 32.875 C-31.82368726 29.88198071 -31.06017013 28.34258506 -28.125 26.875 C-24.87052523 26.35428404 -22.33203727 26.0713862 -19.484375 27.96728516 C-12.48973414 34.30617843 -5.88595188 41.04031532 0.75 47.75 C3.18203186 50.20859071 5.61734477 52.66386303 8.0546875 55.1171875 C8.60986053 55.68065887 9.16503357 56.24413025 9.73703003 56.82467651 C13.76575821 60.91144355 13.76575821 60.91144355 19.1875 62.25 C22.95361282 62.16274245 22.95361282 62.16274245 25.8125 59.875 C27.89127646 56.85132514 28.86328168 54.79108574 28.60107422 51.0793457 C25.54720598 41.80786746 12.7831157 32.69952571 5.875 25.875 C3.62212491 23.64871124 1.3726031 21.41910956 -0.875 19.1875 C-1.38844971 18.68234863 -1.90189941 18.17719727 -2.4309082 17.65673828 C-6.98505513 13.13450385 -6.98505513 13.13450385 -7.4375 9.0625 C-6.92672555 3.85260058 -5.06440698 1.41803395 0 0 Z " fill="#010101" transform="translate(198.125,216.125)"/>
<path d="M0 0 C2.82270996 2.12673163 5.25517418 4.57736467 7.7265625 7.09765625 C8.43726898 7.80595078 9.14797546 8.5142453 9.88021851 9.2440033 C11.37706643 10.74182802 12.8677354 12.24585012 14.35253906 13.75561523 C16.60908108 16.04633994 18.88848831 18.31224027 21.171875 20.57617188 C22.62903966 22.04023934 24.08481509 23.50569107 25.5390625 24.97265625 C26.21313141 25.64176529 26.88720032 26.31087433 27.58169556 27.0002594 C34.26101393 33.84544528 38.5070427 40.59155508 39.25 50.25 C38.74974485 57.75382729 36.19027604 65.32073323 30.3984375 70.40625 C23.11071029 75.92822833 16.00483266 76.87595648 7 76 C-1.77915617 74.0927538 -7.84978216 67.08627149 -14 61 C-14.90878906 60.10490723 -15.81757813 59.20981445 -16.75390625 58.28759766 C-19.88575667 55.19991102 -23.00757424 52.10224486 -26.125 49 C-26.64612366 48.48182709 -27.16724731 47.96365417 -27.7041626 47.42977905 C-29.20429929 45.93540098 -30.70048513 44.43718708 -32.1953125 42.9375 C-33.07203613 42.05964844 -33.94875977 41.18179688 -34.85205078 40.27734375 C-37.64538728 37.31573397 -38.91708044 35.65151083 -39.4375 31.5625 C-39 28 -39 28 -36.875 25.5625 C-33.34235438 23.6425839 -31.95656546 23.14662314 -28 24 C-20.11631288 29.59323803 -13.46590768 37.45534993 -6.6875 44.3125 C-4.36096822 46.66565331 -2.03111381 49.01544408 0.30078125 51.36328125 C0.82891922 51.89971756 1.35705719 52.43615387 1.90119934 52.98884583 C6.5787848 57.72971409 6.5787848 57.72971409 12.875 59.4375 C16.25646168 59.33767825 17.04403368 58.96972685 20 56.9375 C22.18778002 54.10976197 22.18778002 54.10976197 22.75 50.6875 C20.74192427 40.81446098 8.14104177 32.06394241 1.125 25.125 C-1.33359071 22.69296814 -3.78886303 20.25765523 -6.2421875 17.8203125 C-6.80565887 17.26513947 -7.36913025 16.70996643 -7.94967651 16.13796997 C-12.91045701 11.20883043 -12.91045701 11.20883043 -13.25 6.625 C-12.99015512 2.85724926 -12.67186361 1.5729057 -10 -1 C-6.1359955 -2.2880015 -3.58278035 -1.70058942 0 0 Z " fill="#010101" transform="translate(262,161)"/>
<path d="M0 0 C9.54025059 6.99918998 17.76853899 16.54802415 26.12304688 24.8828125 C28.61921307 27.36923565 31.12586656 29.84476471 33.6328125 32.3203125 C62.53798316 61.03154312 62.53798316 61.03154312 63.0625 79.16015625 C62.85782124 82.68446866 62.39129249 84.60870751 59.875 87.125 C55.90851055 88.33219244 53.7749963 87.60786879 50 86 C47.56154439 83.29903123 46.56905285 81.01022648 45.75 77.5 C42.35367733 65.60138259 34.75292155 57.04228514 26.0703125 48.6171875 C25.02778593 47.58656548 23.9864567 46.55473105 22.94625854 45.52175903 C20.23842254 42.83838347 17.51631755 40.16999571 14.79022217 37.50518799 C10.92722231 33.72346078 7.08463228 29.92097175 3.23947144 26.12112427 C1.19792006 24.10375376 -0.84895085 22.09202959 -2.90036011 20.08468628 C-4.27781906 18.73154831 -4.27781906 18.73154831 -5.68310547 17.35107422 C-6.49472137 16.55675995 -7.30633728 15.76244568 -8.14254761 14.94406128 C-10.67055745 12.29817594 -10.96816181 11.34385249 -11.3125 7.625 C-11 4 -11 4 -9.4375 1.5625 C-5.79798729 -0.77052097 -4.28254141 -0.89795223 0 0 Z " fill="#010100" transform="translate(411,252)"/>
<path d="M0 0 C2.50689107 1.84697492 4.87426076 3.71795641 7 6 C7.21875 8.4921875 7.21875 8.4921875 6.5 10.875 C5.79452541 14.46676792 5.79452541 14.46676792 7.0144043 17.7824707 C7.54976807 18.34538818 8.08513184 18.90830566 8.63671875 19.48828125 C9.28108887 20.17341797 9.92545898 20.85855469 10.58935547 21.56445312 C11.38486816 22.36818359 12.18038086 23.17191406 13 24 C13.47383118 24.48130371 13.94766235 24.96260742 14.43585205 25.45849609 C18.3635328 29.44142654 22.33437173 33.38005358 26.3125 37.3125 C28.66565331 39.63903178 31.01544408 41.96888619 33.36328125 44.30078125 C33.89971756 44.82891922 34.43615387 45.35705719 34.98884583 45.90119934 C40.85661667 51.73003334 40.85661667 51.73003334 41.4375 56.875 C41.37119908 60.47514001 41.03517128 60.95761409 38.5625 63.9375 C37.716875 64.618125 36.87125 65.29875 36 66 C35.67 66.33 35.34 66.66 35 67 C31.75428575 67.52991253 29.19772885 67.79446092 26.35327148 65.90771484 C19.3638382 59.56550604 12.75986575 52.83358648 6.125 46.125 C3.69296814 43.66640929 1.25765523 41.21113697 -1.1796875 38.7578125 C-1.73486053 38.19434113 -2.29003357 37.63086975 -2.86203003 37.05032349 C-6.90460348 32.86415304 -6.90460348 32.86415304 -12.4375 31.875 C-15.9630948 31.8306057 -15.9630948 31.8306057 -19 33 C-20.98 31.02 -22.96 29.04 -25 27 C-23.41568547 23.09148801 -20.73364905 20.47632644 -17.7734375 17.578125 C-17.26575836 17.07327576 -16.75807922 16.56842651 -16.23501587 16.04827881 C-14.61966158 14.44407904 -12.99747791 12.84699144 -11.375 11.25 C-10.27558302 10.16061893 -9.17661941 9.0707801 -8.078125 7.98046875 C-5.3906398 5.31498115 -2.69700979 2.65584857 0 0 Z " fill="#D5D5D5" transform="translate(186,212)"/>
<path d="M0 0 C4.0084034 2.0042017 5.41409657 3.49055963 8 7 C7.67 7.66 7.34 8.32 7 9 C6.47928404 12.25447477 6.1963862 14.79296273 8.09228516 17.640625 C14.43117843 24.63526586 21.16531532 31.23904812 27.875 37.875 C30.33359071 40.30703186 32.78886303 42.74234477 35.2421875 45.1796875 C35.80565887 45.73486053 36.36913025 46.29003357 36.94967651 46.86203003 C41.85715564 51.73820817 41.85715564 51.73820817 42.375 56.3125 C41.90786625 60.90598187 40.47959782 62.11447985 37 65 C36.67 65.33 36.34 65.66 36 66 C32.79396523 66.58291541 31.09887508 66.77205817 28 66 C25.82397461 64.42724609 25.82397461 64.42724609 23.52734375 62.2734375 C22.65456787 61.45665527 21.78179199 60.63987305 20.88256836 59.79833984 C15.5082443 54.61258244 10.24837327 49.3126578 5 44 C2.77371124 41.74712491 0.54410956 39.4976031 -1.6875 37.25 C-2.19265137 36.73655029 -2.69780273 36.22310059 -3.21826172 35.6940918 C-6.8852197 31.89638757 -6.8852197 31.89638757 -11.875 30.875 C-15.18094857 30.90104375 -15.18094857 30.90104375 -19 32 C-20.98 29.69 -22.96 27.38 -25 25 C-16.75 16.75 -8.5 8.5 0 0 Z " fill="#D6D6D6" transform="translate(243,155)"/>
<path d="M0 0 C3.34103414 1.36511101 5.59146572 4.05249655 8.06671143 6.59767151 C8.92386749 7.46119484 8.92386749 7.46119484 9.79833984 8.34216309 C11.61892445 10.17951845 13.4287921 12.02703658 15.23858643 13.87501526 C16.47226895 15.12374664 17.70663621 16.37180195 18.94171143 17.61915588 C21.96533298 20.67582546 24.97938563 23.74165052 27.98858643 26.81251526 C23.75042105 31.87875294 19.3144968 36.61289594 14.61358643 41.25001526 C13.65259033 42.20424377 13.65259033 42.20424377 12.67218018 43.17774963 C11.11327763 44.72501858 9.55207226 46.26988018 7.98858643 47.81251526 C1.43481546 42.42610602 -4.48387993 36.45366399 -10.44891357 30.43751526 C-11.47667341 29.40472931 -12.50466643 28.37217535 -13.53289795 27.33985901 C-16.02842955 24.83341239 -18.52079439 22.32384446 -21.01141357 19.81251526 C-16.95890325 14.98836005 -12.78473748 10.3238802 -8.38641357 5.81251526 C-7.82696045 5.21567932 -7.26750732 4.61884338 -6.69110107 4.00392151 C-2.53868817 -0.23663224 -2.53868817 -0.23663224 0 0 Z " fill="#B9B9B9" transform="translate(435.01141357421875,409.18748474121094)"/>
<path d="M0 0 C6.36590304 5.24458586 12.13570612 11.02097322 17.9375 16.875 C18.91708237 17.85960919 19.89689837 18.843986 20.87695312 19.828125 C23.25360252 22.21648203 25.62787356 24.60715212 28 27 C26.54254576 30.36335594 24.68882146 32.54534005 22.0859375 35.109375 C21.32539062 35.86347656 20.56484375 36.61757812 19.78125 37.39453125 C18.9871875 38.17183594 18.193125 38.94914062 17.375 39.75 C16.57320312 40.54277344 15.77140625 41.33554688 14.9453125 42.15234375 C12.96797154 44.10614493 10.98611091 46.05512103 9 48 C4.89891114 46.37843976 2.16851833 43.4232297 -0.859375 40.3359375 C-1.40861633 39.78386627 -1.95785767 39.23179504 -2.52374268 38.66299438 C-4.27059293 36.90498185 -6.01034601 35.1401311 -7.75 33.375 C-8.93573591 32.1792292 -10.1219288 30.98391135 -11.30859375 29.7890625 C-14.21105085 26.86459747 -17.1071641 23.93398126 -20 21 C-15.76183463 15.93376232 -11.32591037 11.19961931 -6.625 6.5625 C-5.98433594 5.92634766 -5.34367187 5.29019531 -4.68359375 4.63476562 C-3.12469121 3.08749668 -1.56348584 1.54263508 0 0 Z " fill="#D6D6D6" transform="translate(62,36)"/>
<path d="M0 0 C0.43892578 0.88171875 0.43892578 0.88171875 0.88671875 1.78125 C5.44651481 10.86884356 9.29614358 14.71055714 19 18 C14.54013009 23.33230143 9.84968379 28.33322967 4.9375 33.25 C4.24333984 33.95640625 3.54917969 34.6628125 2.83398438 35.390625 C-6.16415177 44.41439686 -6.16415177 44.41439686 -12.9375 44.5 C-16.50353167 44.39370994 -18.69159858 43.98568074 -21.5 41.75 C-24.80640712 38.11295217 -25.83222901 36.50993888 -26.375 31.625 C-25.70116433 25.1112552 -21.30433382 21.05660901 -16.796875 16.6015625 C-16.3142218 16.1217392 -15.8315686 15.64191589 -15.33428955 15.14755249 C-13.81087521 13.63521944 -12.28061545 12.13004085 -10.75 10.625 C-9.70787007 9.59291548 -8.66619895 8.56036746 -7.625 7.52734375 C-5.08861021 5.01285404 -2.54603674 2.50472561 0 0 Z " fill="#D4A02D" transform="translate(243,340)"/>
<path d="M0 0 C1.56826607 2.3523991 2.66542568 4.39441183 3.8125 6.9375 C7.19460011 13.70170021 12.13117957 15.67158629 19 18 C15.33451645 22.45802053 11.47175368 26.68589512 7.4375 30.8125 C6.52871094 31.74707031 5.61992187 32.68164062 4.68359375 33.64453125 C0.45330005 37.3575838 -3.33183554 38.53292401 -9.00390625 38.3828125 C-12.73281491 37.66767933 -14.42850652 35.75517159 -17 33 C-19.28466838 29.05375462 -19.47409741 25.50392543 -19 21 C-15.93082368 15.55493846 -11.69949411 11.46514927 -7.25 7.125 C-6.20392578 6.09246094 -6.20392578 6.09246094 -5.13671875 5.0390625 C-3.42896657 3.35470418 -1.71670557 1.67522383 0 0 Z " fill="#229797" transform="translate(136,203)"/>
<path d="M0 0 C5.76077793 4.77026087 10.99320781 9.92323638 16.22265625 15.265625 C17.994997 17.06033609 19.76779717 18.85459359 21.54101562 20.6484375 C24.31274233 23.45735702 27.08127284 26.26917352 29.84204102 29.08886719 C32.52233288 31.82357761 35.21509708 34.54547715 37.91015625 37.265625 C38.73218033 38.11143127 39.55420441 38.95723755 40.40113831 39.82867432 C45.82256194 45.35597219 45.82256194 45.35597219 53 48 C52 51 52 51 49 53 C45.70263062 53.63633444 44.15029798 53.85831168 41 53 C38.83618164 51.42114258 38.83618164 51.42114258 36.53515625 49.26953125 C35.66125244 48.45331299 34.78734863 47.63709473 33.88696289 46.79614258 C28.50561994 41.61688308 23.24871397 36.31300268 18 31 C15.77371124 28.74712491 13.54410956 26.4976031 11.3125 24.25 C10.80734863 23.73655029 10.30219727 23.22310059 9.78173828 22.6940918 C6.1147803 18.89638757 6.1147803 18.89638757 1.125 17.875 C-2.18094857 17.90104375 -2.18094857 17.90104375 -6 19 C-7.98 16.69 -9.96 14.38 -12 12 C-8.04 8.04 -4.08 4.08 0 0 Z " fill="#BABABA" transform="translate(230,168)"/>
<path d="M0 0 C5.49650477 4.57265018 10.55081403 9.44744045 15.56640625 14.5390625 C17.20233899 16.18763395 18.83841086 17.83606733 20.47460938 19.484375 C23.02628873 22.06090438 25.57633197 24.6390126 28.1237793 27.21972656 C30.60023325 29.72643055 33.08290868 32.22683949 35.56640625 34.7265625 C36.32280899 35.49642487 37.07921173 36.26628723 37.85853577 37.05947876 C42.47256412 41.69522819 46.68035113 45.89345038 53 48 C52 51 52 51 49 53 C45.70436973 53.58158181 43.24692856 53.83792855 40.36547852 51.90161133 C33.3621645 45.5717497 26.76108386 38.83481813 20.125 32.125 C17.69296814 29.66640929 15.25765523 27.21113697 12.8203125 24.7578125 C12.26513947 24.19434113 11.70996643 23.63086975 11.13796997 23.05032349 C7.09539652 18.86415304 7.09539652 18.86415304 1.5625 17.875 C-1.9630948 17.8306057 -1.9630948 17.8306057 -5 19 C-6.98 17.02 -8.96 15.04 -11 13 C-9.46356148 9.31930113 -7.21849055 7.01224796 -4.375 4.25 C-3.55773437 3.45078125 -2.74046875 2.6515625 -1.8984375 1.828125 C-0.95871094 0.92320312 -0.95871094 0.92320312 0 0 Z " fill="#BABABA" transform="translate(172,226)"/>
<path d="M0 0 C3.27196882 1.55495515 5.54688377 4.03729876 8.03808594 6.60180664 C8.58732727 7.15529282 9.1365686 7.70877899 9.70245361 8.27903748 C11.45171558 10.04506598 13.19024738 11.82124731 14.92871094 13.59790039 C16.11421594 14.7984548 17.30040617 15.99833299 18.48730469 17.19750977 C21.39244387 20.13569134 24.28800431 23.08302113 27.17871094 26.03540039 C26.2428059 27.14091929 25.30491236 28.24475492 24.36621094 29.34790039 C23.84414063 29.9627832 23.32207031 30.57766602 22.78417969 31.21118164 C22.254375 31.81317383 21.72457031 32.41516602 21.17871094 33.03540039 C20.70046875 33.62708008 20.22222656 34.21875977 19.72949219 34.82836914 C18.17871094 36.03540039 18.17871094 36.03540039 16.35742188 36.07080078 C13.08545305 34.51584563 10.81053811 32.03350202 8.31933594 29.46899414 C7.7700946 28.91550797 7.22085327 28.36202179 6.65496826 27.79176331 C4.9057063 26.0257348 3.1671745 24.24955347 1.42871094 22.47290039 C0.24320593 21.27234598 -0.9429843 20.07246779 -2.12988281 18.87329102 C-5.03502199 15.93510944 -7.93058243 12.98777965 -10.82128906 10.03540039 C-9.88538402 8.92988149 -8.94749048 7.82604586 -8.00878906 6.72290039 C-7.48671875 6.10801758 -6.96464844 5.49313477 -6.42675781 4.85961914 C-5.89695312 4.25762695 -5.36714844 3.65563477 -4.82128906 3.03540039 C-4.10392578 2.14788086 -4.10392578 2.14788086 -3.37207031 1.24243164 C-1.82128906 0.03540039 -1.82128906 0.03540039 0 0 Z " fill="#D6D6D6" transform="translate(435.8212890625,409.964599609375)"/>
<path d="M0 0 C9.33333333 9.33333333 18.66666667 18.66666667 28 28 C27.06409496 29.1055189 26.12620142 30.20935453 25.1875 31.3125 C24.66542969 31.92738281 24.14335938 32.54226562 23.60546875 33.17578125 C22.12827531 34.85424679 20.59960869 36.43882034 19 38 C14.89891114 36.37843976 12.16851833 33.4232297 9.140625 30.3359375 C8.59138367 29.78386627 8.04214233 29.23179504 7.47625732 28.66299438 C5.72940707 26.90498185 3.98965399 25.1401311 2.25 23.375 C1.06426409 22.1792292 -0.1219288 20.98391135 -1.30859375 19.7890625 C-4.21105085 16.86459747 -7.1071641 13.93398126 -10 11 C-9.05052441 9.88322508 -8.09975103 8.76755346 -7.1484375 7.65234375 C-6.35445557 6.72023071 -6.35445557 6.72023071 -5.54443359 5.76928711 C-3.78334607 3.7518035 -1.93011408 1.85587892 0 0 Z " fill="#BBBBBB" transform="translate(52,46)"/>
</svg>
