<?xml version="1.0" encoding="UTF-8"?>
<svg version="1.1" xmlns="http://www.w3.org/2000/svg" width="512" height="512">
<path d="M0 0 C0.76256104 -0.02618408 1.52512207 -0.05236816 2.31079102 -0.0793457 C7.4215041 -0.09470686 9.72363549 0.95932899 13.4375 4.375 C16.86083251 4.21577523 18.0006237 3.8118763 20.4375 1.375 C23.5625 1.25 23.5625 1.25 26.4375 1.375 C26.4375 2.035 26.4375 2.695 26.4375 3.375 C27.654375 3.354375 28.87125 3.33375 30.125 3.3125 C33.35727322 3.30675884 36.28684741 3.58733685 39.4375 4.375 C39.4375 3.715 39.4375 3.055 39.4375 2.375 C44.7175 2.375 49.9975 2.375 55.4375 2.375 C55.4375 3.035 55.4375 3.695 55.4375 4.375 C58.7375 4.705 62.0375 5.035 65.4375 5.375 C65.4375 4.385 65.4375 3.395 65.4375 2.375 C66.4275 2.375 67.4175 2.375 68.4375 2.375 C68.4375 3.365 68.4375 4.355 68.4375 5.375 C70.4175 5.375 72.3975 5.375 74.4375 5.375 C74.4375 4.385 74.4375 3.395 74.4375 2.375 C77.7375 2.375 81.0375 2.375 84.4375 2.375 C84.4375 3.365 84.4375 4.355 84.4375 5.375 C85.0975 5.375 85.7575 5.375 86.4375 5.375 C86.4375 4.385 86.4375 3.395 86.4375 2.375 C88.7475 2.375 91.0575 2.375 93.4375 2.375 C93.4375 3.365 93.4375 4.355 93.4375 5.375 C95.4175 5.375 97.3975 5.375 99.4375 5.375 C99.4375 4.715 99.4375 4.055 99.4375 3.375 C101.08257218 3.18093522 102.72859594 2.99492065 104.375 2.8125 C105.29152344 2.70808594 106.20804688 2.60367188 107.15234375 2.49609375 C108.28349609 2.43615234 108.28349609 2.43615234 109.4375 2.375 C109.7675 2.705 110.0975 3.035 110.4375 3.375 C113.0909302 3.27505305 115.72635696 3.11664645 118.375 2.9375 C126.15023737 2.47179383 133.90095102 2.33910161 141.6875 2.375 C142.59995987 2.37878159 143.51241974 2.38256317 144.45252991 2.38645935 C149.07987313 2.4090975 153.70665458 2.44690583 158.33374023 2.50024414 C167.22430054 2.5741761 175.65523746 2.30179585 184.44116211 0.84448242 C188.63924383 0.18670428 192.75721263 0.00761038 197 0 C197.75345703 -0.02449219 198.50691406 -0.04898438 199.28320312 -0.07421875 C204.54478089 -0.10198433 206.47868112 1.16078655 210.4375 4.375 C213.20086655 4.99594092 215.92502918 5.06945991 218.75 5.125 C219.49056641 5.15464844 220.23113281 5.18429688 220.99414062 5.21484375 C222.80802046 5.28505845 224.62276278 5.33235048 226.4375 5.375 C226.1075 6.365 225.7775 7.355 225.4375 8.375 C221.8075 8.705 218.1775 9.035 214.4375 9.375 C214.4375 10.695 214.4375 12.015 214.4375 13.375 C213.1175 13.705 211.7975 14.035 210.4375 14.375 C212.16638555 14.54455795 213.89562443 14.71051514 215.625 14.875 C216.58792969 14.9678125 217.55085938 15.060625 218.54296875 15.15625 C221.41089288 15.41847751 221.41089288 15.41847751 224.1875 15.32421875 C226.4375 15.375 226.4375 15.375 228.25 16.6875 C229.4375 18.375 229.4375 18.375 229.4375 21.375 C225.61173079 22.6502564 221.93953731 22.79583122 217.93359375 23.09375 C215.44161573 23.2295027 215.44161573 23.2295027 213.4375 24.375 C212.03070201 24.43445033 210.6209428 24.43044276 209.21337891 24.39331055 C208.33710846 24.37386887 207.46083801 24.35442719 206.55801392 24.33439636 C205.60300995 24.31041275 204.64800598 24.28642914 203.6640625 24.26171875 C201.6198164 24.22950949 199.57554346 24.19896972 197.53125 24.16992188 C194.32575167 24.12116997 191.12169929 24.06410358 187.91699219 23.97729492 C169.08861868 23.48841889 146.92652988 25.4645835 131.99609375 38.5078125 C130.47306388 40.02826534 128.97838673 41.57773014 127.515625 43.15625 C125.58661939 45.21578982 123.60130248 47.00649163 121.4375 48.8125 C109.41203856 59.24250418 101.37509246 71.9195142 94.5625 86.125 C94.00852539 87.27633423 94.00852539 87.27633423 93.44335938 88.45092773 C88.68951143 98.68636508 85.12200238 109.44795573 88.05859375 120.76953125 C90.3294493 126.04800881 94.35590662 129.76186746 99.4375 132.375 C105.92559188 134.27959762 110.07079342 131.64302328 115.69921875 128.59765625 C133.06452351 118.57348786 145.90209878 104.07892084 151.37109375 84.61328125 C153.11657956 77.94487031 154.32551026 71.17350636 155.4375 64.375 C156.4275 64.375 157.4175 64.375 158.4375 64.375 C158.4375 62.725 158.4375 61.075 158.4375 59.375 C159.4275 59.705 160.4175 60.035 161.4375 60.375 C161.4375 67.635 161.4375 74.895 161.4375 82.375 C164.048374 74.45234786 166.07989785 66.78970779 167.4855957 58.58203125 C168.35167696 53.54664609 168.35167696 53.54664609 169.4375 51.375 C170.0975 51.375 170.7575 51.375 171.4375 51.375 C172.07144697 47.33358806 172.56154452 43.4684693 172.4375 39.375 C173.4275 39.375 174.4175 39.375 175.4375 39.375 C182.54967869 54.7847205 176.60720498 72.40877885 171.24609375 87.6015625 C161.49185807 114.03559633 147.96298949 137.92891795 121.4375 150.375 C109.97359589 155.19351798 95.0396579 160.72707459 82.62890625 156.39453125 C73.5917735 152.03038839 67.17057332 146.29737877 63.42578125 136.8125 C56.82267219 115.68255101 61.0584311 93.06477824 71.125 73.75 C82.6449829 52.63686408 100.5859131 37.41506868 120.4375 24.375 C119.35202881 24.38285522 119.35202881 24.38285522 118.24462891 24.39086914 C103.9368666 24.48044857 89.71123039 24.41987438 75.4375 23.375 C75.14794434 23.96224854 74.85838867 24.54949707 74.56005859 25.15454102 C73.57603224 27.10097852 72.54548095 29.00178496 71.4765625 30.90234375 C66.35702815 40.18615461 61.97061991 49.60774438 58 59.4375 C52.96541267 71.87938272 47.60233022 84.14963991 42.0625 96.375 C41.45368988 97.71878723 41.45368988 97.71878723 40.83258057 99.08972168 C34.01192399 114.11573299 26.95590942 129.01652089 19.64819336 143.81176758 C16.82116286 149.7508672 16.82116286 149.7508672 16.8125 156.1875 C16.92335938 156.97769531 17.03421875 157.76789063 17.1484375 158.58203125 C17.29152344 159.46955078 17.29152344 159.46955078 17.4375 160.375 C16.7775 160.375 16.1175 160.375 15.4375 160.375 C14.04811923 158.41352126 12.7114589 156.41333424 11.4375 154.375 C11.4375 155.035 11.4375 155.695 11.4375 156.375 C11.4375 158.04166667 11.4375 159.70833333 11.4375 161.375 C8.43922496 160.94354853 6.1685262 160.58427665 3.4375 159.375 C1.63729817 156.79624934 0.53649863 154.84157069 -0.625 152 C-1.21462156 150.65645784 -1.80986757 149.31537265 -2.41015625 147.9765625 C-2.89850952 146.87828125 -2.89850952 146.87828125 -3.39672852 145.7578125 C-4.70840469 143.07677387 -6.2235968 140.58499988 -7.78125 138.0390625 C-12.67935797 129.77950788 -16.26368896 120.95380866 -20 112.125 C-20.73821217 110.39682763 -21.47713968 108.66896064 -22.21679688 106.94140625 C-24.00694925 102.75607268 -25.78742295 98.5667482 -27.5625 94.375 C-29.78012898 96.59262898 -30.62719936 98.43582831 -31.91796875 101.28515625 C-32.37623047 102.27580078 -32.83449219 103.26644531 -33.30664062 104.28710938 C-34.25514126 106.35738208 -35.19802751 108.43023797 -36.13476562 110.50585938 C-39.24339872 117.19308536 -42.8053992 122.75083055 -47.5625 128.375 C-48.21476562 129.2103125 -48.86703125 130.045625 -49.5390625 130.90625 C-62.21320124 146.04313607 -82.79375136 155.45231329 -102.25390625 157.68359375 C-111.49724442 158.09860077 -118.53694384 155.51694189 -125.6953125 149.6171875 C-135.65585307 139.31169314 -136.9725837 125.78728784 -136.7734375 112.17578125 C-135.87913252 84.60137755 -120.98278122 61.77037303 -101.59765625 43.03125 C-94.48844034 36.41604934 -86.55129966 30.8652937 -78.5625 25.375 C-77.52971924 24.65521973 -77.52971924 24.65521973 -76.47607422 23.92089844 C-54.23822066 8.57650528 -26.91936877 0.55534574 0 0 Z M-11.5625 11.375 C-8.17858422 12.42627928 -5.23046575 12.41587598 -1.703125 12.25390625 C-0.58808594 12.20556641 0.52695312 12.15722656 1.67578125 12.10742188 C2.83464844 12.05134766 3.99351562 11.99527344 5.1875 11.9375 C6.36183594 11.88529297 7.53617188 11.83308594 8.74609375 11.77929688 C11.64350664 11.64973776 14.54056493 11.51477553 17.4375 11.375 C17.1075 10.385 16.7775 9.395 16.4375 8.375 C7.23320232 4.86957705 -2.7981207 8.253822 -11.5625 11.375 Z M-2.0546875 14.25 C-3.25351562 14.43046875 -4.45234375 14.6109375 -5.6875 14.796875 C-6.925 14.98765625 -8.1625 15.1784375 -9.4375 15.375 C-10.69820313 15.56578125 -11.95890625 15.7565625 -13.2578125 15.953125 C-16.35999503 16.42315266 -19.46150068 16.89723899 -22.5625 17.375 C-21.5725 17.705 -20.5825 18.035 -19.5625 18.375 C-20.5625 20.375 -20.5625 20.375 -22.96411133 21.25708008 C-24.0136499 21.54993896 -25.06318848 21.84279785 -26.14453125 22.14453125 C-27.88573242 22.64243164 -27.88573242 22.64243164 -29.66210938 23.15039062 C-30.88736328 23.49263672 -32.11261719 23.83488281 -33.375 24.1875 C-52.73804908 29.00928712 -52.73804908 29.00928712 -68.12890625 40.71484375 C-69.72866913 42.56743019 -71.4509464 44.09872851 -73.3125 45.6875 C-92.16949522 61.89107187 -107.82199621 84.64620651 -111.5625 109.75 C-111.93838171 116.84476727 -109.74728257 122.27643953 -105.3125 127.75 C-101.97356563 131.27912683 -99.24838592 133.07336502 -94.5625 134.375 C-84.5007719 133.30784702 -75.06677923 125.71939995 -67.5625 119.375 C-66.59441406 118.611875 -65.62632812 117.84875 -64.62890625 117.0625 C-61.41265184 114.37798751 -58.93807543 111.34461824 -56.4375 108 C-56.02113281 107.46117187 -55.60476562 106.92234375 -55.17578125 106.3671875 C-49.72082342 99.18511136 -46.82504223 92.77832516 -44.875 84 C-44.66294922 83.10539062 -44.45089844 82.21078125 -44.23242188 81.2890625 C-42.93534807 75.65886199 -42.09557804 70.12755643 -41.5625 64.375 C-40.9025 64.375 -40.2425 64.375 -39.5625 64.375 C-39.5625 67.015 -39.5625 69.655 -39.5625 72.375 C-39.2325 72.375 -38.9025 72.375 -38.5625 72.375 C-38.5625 68.085 -38.5625 63.795 -38.5625 59.375 C-37.9025 59.375 -37.2425 59.375 -36.5625 59.375 C-36.5625 61.355 -36.5625 63.335 -36.5625 65.375 C-35.9025 65.375 -35.2425 65.375 -34.5625 65.375 C-35.0575 61.415 -35.0575 61.415 -35.5625 57.375 C-33.89583333 59.04166667 -32.22916667 60.70833333 -30.5625 62.375 C-30.27375 61.281875 -29.985 60.18875 -29.6875 59.0625 C-28.5625 55.375 -28.5625 55.375 -26.5625 52.375 C-25.9025 52.375 -25.2425 52.375 -24.5625 52.375 C-23.38962428 45.68968008 -23.38962428 45.68968008 -25.5625 39.375 C-24.2425 39.375 -22.9225 39.375 -21.5625 39.375 C-18.79695226 48.48503961 -19.22516905 58.36847355 -21.28881836 67.63720703 C-21.62207842 72.18868926 -20.34556914 75.10058596 -18.328125 79.046875 C-17.97877396 79.76342255 -17.62942291 80.47997009 -17.26948547 81.2182312 C-16.13540083 83.53004016 -14.97529744 85.8275173 -13.8125 88.125 C-13.02781974 89.70454563 -12.24388585 91.28446225 -11.46069336 92.86474609 C-3.80796542 111.85289468 -3.80796542 111.85289468 8.4375 126.375 C8.74751953 125.64949951 9.05753906 124.92399902 9.37695312 124.17651367 C21.92055862 94.88299538 35.07083735 65.90893426 49.11816406 37.30395508 C49.46740433 36.59173294 49.81664459 35.8795108 50.1764679 35.14570618 C50.82938162 33.81543515 51.48404943 32.48602306 52.14079285 31.15763855 C53.40551409 28.58273259 54.52871005 26.10136986 55.4375 23.375 C54.7762915 23.31965088 54.11508301 23.26430176 53.43383789 23.20727539 C50.4554762 22.95534285 47.47775375 22.69651498 44.5 22.4375 C43.45908203 22.35048828 42.41816406 22.26347656 41.34570312 22.17382812 C40.35634766 22.08681641 39.36699219 21.99980469 38.34765625 21.91015625 C37.43121338 21.831604 36.51477051 21.75305176 35.57055664 21.67211914 C33.4375 21.375 33.4375 21.375 32.4375 20.375 C30.80683234 20.14785996 29.16773997 19.98044914 27.52734375 19.83984375 C26.04331055 19.70932617 26.04331055 19.70932617 24.52929688 19.57617188 C23.48837891 19.48916016 22.44746094 19.40214844 21.375 19.3125 C20.33021484 19.22162109 19.28542969 19.13074219 18.20898438 19.03710938 C15.6188085 18.81239092 13.02834233 18.5918769 10.4375 18.375 C10.4375 16.725 10.4375 15.075 10.4375 13.375 C6.16902382 13.28501895 2.16395341 13.60715948 -2.0546875 14.25 Z M-96.5625 44.375 C-96.5625 45.365 -96.5625 46.355 -96.5625 47.375 C-95.9025 46.385 -95.2425 45.395 -94.5625 44.375 C-95.2225 44.375 -95.8825 44.375 -96.5625 44.375 Z M-90.4375 55.9375 C-94.2843535 59.86785972 -97.39271655 63.31217195 -99.5625 68.375 C-99.2325 69.365 -98.9025 70.355 -98.5625 71.375 C-97.98242188 70.6015625 -97.40234375 69.828125 -96.8046875 69.03125 C-92.390625 63.14583333 -87.9765625 57.26041667 -83.5625 51.375 C-86.82937253 51.375 -88.18865151 53.69866122 -90.4375 55.9375 Z M107.37890625 55.3515625 C106.59386719 56.22554687 105.80882812 57.09953125 105 58 C104.21753906 58.85851562 103.43507813 59.71703125 102.62890625 60.6015625 C100.39830242 63.42460835 98.8104904 66.0518978 97.4375 69.375 C97.7675 70.035 98.0975 70.695 98.4375 71.375 C100.23357786 69.12840093 102.02443483 66.87796211 103.8125 64.625 C104.32039062 63.99078125 104.82828125 63.3565625 105.3515625 62.703125 C105.84140625 62.084375 106.33125 61.465625 106.8359375 60.828125 C107.28630371 60.26254883 107.73666992 59.69697266 108.20068359 59.11425781 C109.50603064 57.27862964 110.48173303 55.4113688 111.4375 53.375 C109.20229822 53.14413706 109.20229822 53.14413706 107.37890625 55.3515625 Z M-26.5625 54.375 C-25.5625 57.375 -25.5625 57.375 -25.5625 57.375 Z M87.4375 65.375 C87.4375 68.375 87.4375 68.375 87.4375 68.375 Z M-110.5625 66.375 C-113.0375 69.84 -113.0375 69.84 -115.5625 73.375 C-115.2325 74.035 -114.9025 74.695 -114.5625 75.375 C-112.9125 73.065 -111.2625 70.755 -109.5625 68.375 C-109.8925 67.715 -110.2225 67.055 -110.5625 66.375 Z M158.4375 66.375 C157.08131501 67.50034105 157.08131501 67.50034105 157.375 70.4375 C157.395625 71.406875 157.41625 72.37625 157.4375 73.375 C157.7675 73.375 158.0975 73.375 158.4375 73.375 C158.7675 71.065 159.0975 68.755 159.4375 66.375 C159.1075 66.375 158.7775 66.375 158.4375 66.375 Z M85.4375 68.375 C83.9525 70.355 83.9525 70.355 82.4375 72.375 C82.7675 73.035 83.0975 73.695 83.4375 74.375 C84.4275 73.055 85.4175 71.735 86.4375 70.375 C86.1075 69.715 85.7775 69.055 85.4375 68.375 Z M170.4375 68.375 C171.4375 70.375 171.4375 70.375 171.4375 70.375 Z M96.4375 71.375 C96.4375 74.375 96.4375 74.375 96.4375 74.375 Z M169.4375 71.375 C170.4375 74.375 170.4375 74.375 170.4375 74.375 Z M-101.5625 72.375 C-102.2225 74.025 -102.8825 75.675 -103.5625 77.375 C-102.5725 76.385 -101.5825 75.395 -100.5625 74.375 C-100.8925 73.715 -101.2225 73.055 -101.5625 72.375 Z M-35.5625 73.375 C-35.8925 77.005 -36.2225 80.635 -36.5625 84.375 C-33.95558158 81.76808158 -33.85833037 79.99892206 -33.5625 76.375 C-34.2225 75.385 -34.8825 74.395 -35.5625 73.375 Z M81.4375 74.375 C81.4375 77.375 81.4375 77.375 81.4375 77.375 Z M94.4375 74.375 C95.4375 76.375 95.4375 76.375 95.4375 76.375 Z M168.4375 74.375 C169.4375 77.375 169.4375 77.375 169.4375 77.375 Z M-116.5625 75.375 C-115.5625 77.375 -115.5625 77.375 -115.5625 77.375 Z M93.4375 76.375 C94.4375 78.375 94.4375 78.375 94.4375 78.375 Z M-104.5625 77.375 C-103.5625 79.375 -103.5625 79.375 -103.5625 79.375 Z M92.4375 78.375 C93.4375 80.375 93.4375 80.375 93.4375 80.375 Z M167.4375 78.375 C168.4375 80.375 168.4375 80.375 168.4375 80.375 Z M-105.5625 79.375 C-104.5625 81.375 -104.5625 81.375 -104.5625 81.375 Z M91.4375 80.375 C92.4375 82.375 92.4375 82.375 92.4375 82.375 Z M90.4375 82.375 C91.4375 84.375 91.4375 84.375 91.4375 84.375 Z M-107.5625 84.375 C-106.5625 86.375 -106.5625 86.375 -106.5625 86.375 Z M-37.5625 84.375 C-36.5625 87.375 -36.5625 87.375 -36.5625 87.375 Z M71.4375 85.375 C72.4375 87.375 72.4375 87.375 72.4375 87.375 Z M159.4375 85.375 C160.4375 87.375 160.4375 87.375 160.4375 87.375 Z M-126.5625 87.375 C-125.5625 89.375 -125.5625 89.375 -125.5625 89.375 Z M70.4375 88.375 C71.4375 90.375 71.4375 90.375 71.4375 90.375 Z M-127.5625 90.375 C-126.5625 93.375 -126.5625 93.375 -126.5625 93.375 Z M69.4375 91.375 C70.4375 94.375 70.4375 94.375 70.4375 94.375 Z M-128.5625 93.375 C-131.58781975 104.01764269 -131.94491441 112.48848651 -130.5625 123.375 C-130.2325 123.375 -129.9025 123.375 -129.5625 123.375 C-127.38416195 113.59993683 -127.3792893 103.34980459 -127.5625 93.375 C-127.8925 93.375 -128.2225 93.375 -128.5625 93.375 Z M68.4375 94.375 C64.44825496 105.93523161 65.84017818 116.48195234 67.4375 128.375 C67.7675 128.375 68.0975 128.375 68.4375 128.375 C68.46255615 127.79121582 68.4876123 127.20743164 68.51342773 126.60595703 C68.63106199 123.90383687 68.75301273 121.20192701 68.875 118.5 C68.91431641 117.5821875 68.95363281 116.664375 68.99414062 115.71875 C69.24430014 110.25372686 69.67553567 104.88426138 70.43383789 99.46435547 C70.63171455 97.06381763 70.63171455 97.06381763 68.4375 94.375 Z M-122.5625 109.375 C-121.5625 113.375 -121.5625 113.375 -121.5625 113.375 Z M74.4375 110.375 C72.39379386 116.50611842 73.39842014 123.14052084 74.4375 129.375 C74.7675 129.375 75.0975 129.375 75.4375 129.375 C75.4375 123.105 75.4375 116.835 75.4375 110.375 C75.1075 110.375 74.7775 110.375 74.4375 110.375 Z M-123.5625 113.375 C-123.5625 117.005 -123.5625 120.635 -123.5625 124.375 C-122.9025 123.715 -122.2425 123.055 -121.5625 122.375 C-121.53941403 120.15371445 -121.53941403 120.15371445 -121.9375 117.75 C-122.04835937 116.93273437 -122.15921875 116.11546875 -122.2734375 115.2734375 C-122.36882812 114.64695312 -122.46421875 114.02046875 -122.5625 113.375 C-122.8925 113.375 -123.2225 113.375 -123.5625 113.375 Z M-129.5625 125.375 C-128.5625 129.375 -128.5625 129.375 -128.5625 129.375 Z M-122.5625 127.375 C-121.5625 130.375 -121.5625 130.375 -121.5625 130.375 Z M75.4375 131.375 C76.4375 133.375 76.4375 133.375 76.4375 133.375 Z M82.4375 136.375 C83.4275 137.695 84.4175 139.015 85.4375 140.375 C86.0975 140.045 86.7575 139.715 87.4375 139.375 C86.06264468 137.83333358 86.06264468 137.83333358 84.4375 136.375 C83.7775 136.375 83.1175 136.375 82.4375 136.375 Z M-113.5625 137.375 C-113.2325 138.365 -112.9025 139.355 -112.5625 140.375 C-110.9125 140.705 -109.2625 141.035 -107.5625 141.375 C-108.85215176 139.99937146 -110.18939293 138.66733607 -111.5625 137.375 C-112.2225 137.375 -112.8825 137.375 -113.5625 137.375 Z " fill="#E13734" transform="translate(282.5625,168.625)"/>
<path d="M0 0 C0.99 0 1.98 0 3 0 C2.67 1.32 2.34 2.64 2 4 C3.31371987 3.52418802 4.62594546 3.04424851 5.9375 2.5625 C7.03384766 2.16224609 7.03384766 2.16224609 8.15234375 1.75390625 C9.98305678 1.14613052 9.98305678 1.14613052 11 0 C16.05285354 -0.29498628 21.10879646 -0.31443901 26.16943359 -0.35009766 C27.86846775 -0.36649326 29.56743782 -0.39356011 31.26611328 -0.43212891 C45.37875313 -0.75066739 56.59134886 1.39868204 68.5 9.5 C69.0671875 9.86480469 69.634375 10.22960937 70.21875 10.60546875 C77.07767481 15.13045387 81.91926849 19.98697015 84 28 C85.4296384 40.12545164 83.78612902 53.99932954 76.375 64.125 C75.25929739 65.42470592 74.13243695 66.71484852 73 68 C71.06086851 70.41993777 69.15836751 72.86827629 67.25 75.3125 C66.7657959 75.92432129 66.2815918 76.53614258 65.78271484 77.16650391 C63.75563142 79.72826525 61.8131648 82.28025279 60 85 C59.01 85 58.02 85 57 85 C57 84.34 57 83.68 57 83 C56.06800781 83.70125 55.13601562 84.4025 54.17578125 85.125 C8.29028498 119.39053713 8.29028498 119.39053713 -16.3125 119.0625 C-17.63701172 119.04896484 -17.63701172 119.04896484 -18.98828125 119.03515625 C-19.65214844 119.02355469 -20.31601562 119.01195312 -21 119 C-5.90579521 137.34295748 14.74627497 150.89279114 34.71630859 163.39575195 C38.96313941 166.05940317 43.16839953 168.76052003 47.30541992 171.59155273 C68.6809701 186.20428657 91.76330149 198.7105383 114.52734375 210.98828125 C115.37224365 211.44734863 116.21714355 211.90641602 117.08764648 212.37939453 C118.64901663 213.22605188 120.21470325 214.0648169 121.78540039 214.89404297 C126.88829898 217.66489693 126.88829898 217.66489693 128 221 C121.51037344 220.23651452 121.51037344 220.23651452 118.4375 218.8125 C115.04623834 217.68207945 113.18711563 218.55131108 110 220 C109.67 220.66 109.34 221.32 109 222 C110.32 222.66 111.64 223.32 113 224 C112.67 224.99 112.34 225.98 112 227 C109.9375 227.6875 109.9375 227.6875 108 228 C108 228.99 108 229.98 108 231 C103.45440011 230.41568848 99.96062888 228.52094641 96.0625 226.25 C95.37865234 225.85876953 94.69480469 225.46753906 93.99023438 225.06445312 C86.9946536 221.04307853 80.05905071 216.91674197 73.12597656 212.78881836 C68.50359285 210.04223652 63.86712762 207.35498643 59.13598633 204.80078125 C43.77574486 196.47593757 29.4329116 186.17923952 15.10546875 176.21484375 C10.79417137 173.22158177 6.45740929 170.33166552 2 167.5625 C-8.17538312 161.12299943 -17.45846995 153.56128846 -26.66015625 145.8125 C-28.72506232 144.21297343 -30.62196365 143.05446416 -33 142 C-36.52343069 149.4469579 -39.28118175 156.76267284 -41.46899414 164.70727539 C-44.31502083 174.97356502 -46.69112794 181.97665155 -55 189 C-55.92452342 190.03469979 -56.84276037 191.07511263 -57.75 192.125 C-60 194 -60 194 -62.8125 194.3125 C-63.8953125 194.1578125 -63.8953125 194.1578125 -65 194 C-65.33 191.69 -65.66 189.38 -66 187 C-67.1446875 187.7425 -67.1446875 187.7425 -68.3125 188.5 C-71 190 -71 190 -74 190 C-73.43787334 184.02036181 -72.15462449 178.80075442 -70.18359375 173.140625 C-69.75213043 171.87305611 -69.75213043 171.87305611 -69.31195068 170.57987976 C-68.36250091 167.80017962 -67.40085004 165.02491103 -66.4375 162.25 C-65.75881663 160.28200098 -65.08018805 158.31398306 -64.40161133 156.34594727 C-62.28496008 150.22456995 -60.14471371 144.11159145 -58 138 C-57.66814697 137.05171326 -57.33629395 136.10342651 -56.99438477 135.12640381 C-48.78277805 111.67569449 -40.00391685 88.55639646 -30.2019043 65.72045898 C-25.02478204 53.6416742 -20.15775525 41.47326575 -16 29 C-17.89880796 30.07811106 -19.79391978 31.16273319 -21.6875 32.25 C-22.74324219 32.85328125 -23.79898438 33.4565625 -24.88671875 34.078125 C-28.03328987 35.92711999 -28.03328987 35.92711999 -30.765625 38.25390625 C-31.50296875 38.83011719 -32.2403125 39.40632813 -33 40 C-35.0625 39.6875 -35.0625 39.6875 -37 39 C-40.08281241 39.4811642 -41.83083126 40.42892397 -44.12890625 42.50390625 C-44.68900391 42.99697266 -45.24910156 43.49003906 -45.82617188 43.99804688 C-46.98782252 45.04470848 -48.14927954 46.09158501 -49.31054688 47.13867188 C-53.69818971 51 -53.69818971 51 -57 51 C-55.48446596 47.52224821 -53.4226544 45.0442016 -50.875 42.25 C-50.15054688 41.45078125 -49.42609375 40.6515625 -48.6796875 39.828125 C-48.12539063 39.22484375 -47.57109375 38.6215625 -47 38 C-49.90315818 39.84286044 -49.90315818 39.84286044 -51.9375 41.6875 C-54 43 -54 43 -56.12890625 42.58203125 C-56.74636719 42.38996094 -57.36382812 42.19789063 -58 42 C-48.29731924 26.97517367 -30.49537023 16.13561696 -14 10 C-12.30600466 9.30734413 -10.61783424 8.6001684 -8.9375 7.875 C-7.89916016 7.43800781 -7.89916016 7.43800781 -6.83984375 6.9921875 C-3.61467111 5.25292242 -2.02388303 3.03582455 0 0 Z M11.5625 26.5 C8.24308159 31.39439771 6.41375781 37.20935914 4.4921875 42.76953125 C1.69329461 50.83647734 -1.68341514 58.6230645 -5.25 66.375 C-8.51938788 73.56120647 -11.62297666 80.79751186 -14.5625 88.125 C-14.90893555 88.98399902 -15.25537109 89.84299805 -15.61230469 90.72802734 C-15.9271582 91.52160645 -16.24201172 92.31518555 -16.56640625 93.1328125 C-16.84427979 93.83293457 -17.12215332 94.53305664 -17.40844727 95.25439453 C-18.10698423 97.00851257 -18.10698423 97.00851257 -18 99 C-16.39536551 98.68991116 -14.79130769 98.37683713 -13.1875 98.0625 C-11.84751953 97.80146484 -11.84751953 97.80146484 -10.48046875 97.53515625 C-7.88602829 97.02258847 -7.88602829 97.02258847 -5 96 C-4.84619873 95.35393799 -4.69239746 94.70787598 -4.53393555 94.04223633 C-4.35773682 93.36829834 -4.18153809 92.69436035 -4 92 C-1.25660426 90.70240709 1.33273452 89.66925023 4.1875 88.6875 C5.8428675 88.07625715 7.49650471 87.46030925 9.1484375 86.83984375 C9.97182617 86.53159668 10.79521484 86.22334961 11.64355469 85.90576172 C27.01869773 79.9959212 38.6392428 70.67705941 49 58 C49.66 58.99 50.32 59.98 51 61 C57.11456411 54.32781841 59.309076 50.11774189 59 41 C58.34 41 57.68 41 57 41 C57 40.01 57 39.02 57 38 C57.99 37.67 58.98 37.34 60 37 C60.33 36.01 60.66 35.02 61 34 C49.63822376 25.29736288 31.94858101 23.30487048 17.98828125 23.5625 C14.91865919 24.01190872 13.70989338 24.32427689 11.5625 26.5 Z M-9.1875 100.9375 C-9.84169922 101.13279297 -10.49589844 101.32808594 -11.16992188 101.52929688 C-12.78227407 102.01182563 -14.39146289 102.50490205 -16 103 C-12.1280483 104.29065057 -9.55767399 103.22324098 -5.8125 102.0625 C-5.15830078 101.86720703 -4.50410156 101.67191406 -3.83007812 101.47070312 C-2.21772593 100.98817437 -0.60853711 100.49509795 1 100 C-2.8719517 98.70934943 -5.44232601 99.77675902 -9.1875 100.9375 Z M-14 108 C-10 109 -10 109 -10 109 Z M-18 109 C-14 110 -14 110 -14 110 Z M17 168 C17.33 168.66 17.66 169.32 18 170 C18.66 169.67 19.32 169.34 20 169 C19.01 168.67 18.02 168.34 17 168 Z " fill="#E13734" transform="translate(74,140)"/>
<path d="M0 0 C1.65 0 3.3 0 5 0 C4.67 1.65 4.34 3.3 4 5 C3.01 5 2.02 5 1 5 C0.67 3.35 0.34 1.7 0 0 Z " fill="#E23532" transform="translate(202,361)"/>
</svg>
