<?xml version="1.0" encoding="UTF-8"?>
<svg version="1.1" xmlns="http://www.w3.org/2000/svg" width="960" height="960">
<path d="M0 0 C1.46865791 0.70506054 2.9378286 1.4090538 4.4074707 2.11206055 C8.33548653 3.99602953 12.25476497 5.89746212 16.17132568 7.80511475 C18.65829064 9.01621181 21.1465963 10.22451424 23.63525391 11.43212891 C32.00386067 15.49431216 40.36572092 19.57011542 48.72265625 23.65625 C56.59441342 27.50425583 64.48736 31.30564908 72.39770508 35.07373047 C79.9442425 38.66930677 87.47366519 42.29988185 95 45.9375 C104.03571676 50.30411816 113.07581741 54.66133091 122.125 59 C132.4025812 63.92763002 142.66831188 68.87952809 152.92919922 73.84179688 C158.67389348 76.61869562 164.42323749 79.38499281 170.1875 82.12109375 C171.21407715 82.60892334 172.2406543 83.09675293 173.29833984 83.59936523 C175.18277035 84.49357349 177.0683958 85.38527079 178.95556641 86.27368164 C197.25357652 94.95927083 210.92149366 104.39755381 218.65234375 124.015625 C221.15679232 131.69995715 221.91400653 138.28991898 221.88226891 146.34644508 C221.88577498 147.47593836 221.88928105 148.60543164 221.89289337 149.76915199 C221.90221574 153.56340489 221.89728179 157.35750459 221.89242554 161.15176392 C221.8950578 163.89581181 221.90068285 166.63985178 221.90615618 169.38389528 C221.91645587 175.35502254 221.91930003 181.32611739 221.91724396 187.29725266 C221.91419388 196.17683859 221.92251815 205.05638866 221.93299321 213.93596762 C221.95233799 230.71850735 221.95796162 247.50103487 221.95910732 264.28358443 C221.96002637 277.2447568 221.96414282 290.20592437 221.97050858 303.16709518 C221.97230367 306.89782059 221.97408329 310.628546 221.97585833 314.35927141 C221.97652148 315.75047758 221.97652148 315.75047758 221.97719802 317.16978893 C221.98950711 343.25936946 221.99739908 369.34894832 221.99651146 395.43853188 C221.9964803 396.42223562 221.99644914 397.40593937 221.99641704 398.41945232 C221.99625083 403.40527605 221.99605275 408.39109978 221.99584763 413.37692352 C221.99578779 414.86222702 221.99578779 414.86222702 221.99572675 416.37753666 C221.99564587 418.37996785 221.99556228 420.38239904 221.99547596 422.38483023 C221.9942506 453.53570627 222.00926068 484.68653877 222.03662109 515.83740234 C222.06734808 550.83566486 222.0845532 585.83389876 222.08269465 620.83217561 C222.08254539 624.56478715 222.08244798 628.29739868 222.08238602 632.03001022 C222.08235105 633.40860367 222.08235105 633.40860367 222.08231538 634.81504748 C222.08225386 649.59992537 222.09502122 664.38476543 222.11225055 679.16963207 C222.12921163 694.03182745 222.13117716 708.89396754 222.1180319 723.75616725 C222.11064577 732.58269986 222.11429059 741.40906442 222.13391658 750.2355792 C222.14592781 756.13668467 222.14331284 762.03766859 222.12897559 767.93876851 C222.12122196 771.29775328 222.12185691 774.65614883 222.13589029 778.01515229 C222.21982504 799.533001 220.5054683 817.45208812 204.87915039 833.84008789 C197.80249648 840.62089123 189.17561594 845.00260699 180.4375 849.25 C178.73074097 850.09123413 178.73074097 850.09123413 176.98950195 850.94946289 C167.91281212 855.40990307 158.79466627 859.78441067 149.66015625 864.125 C142.84255571 867.36639623 136.04626504 870.65169645 129.25 873.9375 C120.21443108 878.30442282 111.17416976 882.66130723 102.125 887 C93.11792828 891.3187458 84.11923791 895.6546125 75.125 900 C64.00161283 905.37374644 52.87029926 910.73072041 41.73046875 916.0703125 C37.62591948 918.03813003 33.52467263 920.01261294 29.42578125 921.9921875 C24.24033221 924.49521382 19.04793217 926.98324879 13.85009766 929.46044922 C11.63440019 930.51814704 9.42063227 931.57989351 7.20849609 932.64501953 C3.7701069 934.2973579 0.32362562 935.93165229 -3.125 937.5625 C-4.15939209 938.06330078 -5.19378418 938.56410156 -6.25952148 939.08007812 C-23.87355823 947.33705604 -41.03875455 948.15697644 -59.375 942 C-68.21302581 938.39723789 -74.55202598 932.52951277 -81.375 926 C-82.6586699 924.86588388 -83.94966151 923.73996529 -85.25 922.625 C-90.51010719 918.05192722 -95.59118752 913.28283403 -100.70361328 908.54638672 C-106.86811365 902.84291822 -113.06007875 897.16951003 -119.3125 891.5625 C-123.7670991 887.56551622 -128.16418479 883.50925591 -132.55615234 879.44384766 C-136.62381588 875.68272573 -140.7306163 871.96790461 -144.85546875 868.26953125 C-150.24537666 863.41443591 -155.57451805 858.49220458 -160.91601562 853.58398438 C-166.02810374 848.8876188 -171.14385156 844.1967486 -176.3125 839.5625 C-180.7670991 835.56551622 -185.16418479 831.50925591 -189.55615234 827.44384766 C-193.62381588 823.68272573 -197.7306163 819.96790461 -201.85546875 816.26953125 C-207.24537666 811.41443591 -212.57451805 806.49220458 -217.91601562 801.58398438 C-223.02810374 796.8876188 -228.14385156 792.1967486 -233.3125 787.5625 C-237.7670991 783.56551622 -242.16418479 779.50925591 -246.55615234 775.44384766 C-250.62381588 771.68272573 -254.7306163 767.96790461 -258.85546875 764.26953125 C-264.24537666 759.41443591 -269.57451805 754.49220458 -274.91601562 749.58398438 C-280.02810374 744.8876188 -285.14385156 740.1967486 -290.3125 735.5625 C-294.7670991 731.56551622 -299.16418479 727.50925591 -303.55615234 723.44384766 C-307.62381588 719.68272573 -311.7306163 715.96790461 -315.85546875 712.26953125 C-321.24537666 707.41443591 -326.57451805 702.49220458 -331.91601562 697.58398438 C-337.02810374 692.8876188 -342.14385156 688.1967486 -347.3125 683.5625 C-351.7670991 679.56551622 -356.16418479 675.50925591 -360.55615234 671.44384766 C-364.62381588 667.68272573 -368.7306163 663.96790461 -372.85546875 660.26953125 C-378.24537666 655.41443591 -383.57451805 650.49220458 -388.91601562 645.58398438 C-394.02810374 640.8876188 -399.14385156 636.1967486 -404.3125 631.5625 C-408.7670991 627.56551622 -413.16418479 623.50925591 -417.55615234 619.44384766 C-421.622467 615.68397296 -425.72773313 611.97020363 -429.8515625 608.2734375 C-433.19280029 605.26322018 -436.50538049 602.22217732 -439.81762695 599.18017578 C-444.98625606 594.43451827 -450.17880337 589.71544615 -455.375 585 C-458.99142461 586.30048376 -461.76170534 587.84488901 -464.7890625 590.203125 C-466.03949341 591.16822998 -466.03949341 591.16822998 -467.31518555 592.15283203 C-468.20117432 592.84489746 -469.08716309 593.53696289 -470 594.25 C-471.89350919 595.71226194 -473.78806165 597.17317382 -475.68359375 598.6328125 C-477.11421143 599.73544434 -477.11421143 599.73544434 -478.57373047 600.86035156 C-482.69396612 604.00744458 -486.87472597 607.06870257 -491.0625 610.125 C-498.01190088 615.20922489 -504.83196941 620.43576657 -511.60620117 625.75048828 C-517.73679643 630.54392479 -523.98696616 635.15850055 -530.26953125 639.75 C-535.71297943 643.74126806 -541.06467632 647.83358142 -546.375 652 C-552.46423002 656.77753949 -558.62623202 661.43312672 -564.875 666 C-572.05061933 671.24493961 -579.10198633 676.6271685 -586.10205078 682.10375977 C-591.03878277 685.96551428 -596.00742214 689.77516956 -601.04296875 693.5078125 C-603.79877876 695.55518581 -606.51891424 697.64669055 -609.23828125 699.7421875 C-610.5523999 700.7468103 -610.5523999 700.7468103 -611.89306641 701.77172852 C-613.62859596 703.09853403 -615.35905053 704.43201359 -617.08349609 705.77319336 C-628.86381839 714.73648206 -639.7325328 717.25555735 -654.375 716 C-667.16391659 713.33564238 -675.6320101 704.0492663 -684.81152344 695.45458984 C-686.97475711 693.44201235 -689.17244585 691.46938474 -691.375 689.5 C-695.24162619 686.0351012 -699.06511713 682.52693248 -702.875 679 C-706.72826856 675.4335697 -710.59418283 671.88403574 -714.5 668.375 C-715.29019531 667.66214844 -716.08039062 666.94929687 -716.89453125 666.21484375 C-718.67016207 664.62935923 -720.46105782 663.06090535 -722.26171875 661.50390625 C-727.63681719 656.78903352 -732.29298444 652.51514681 -735.375 646 C-735.84873047 645.07767578 -735.84873047 645.07767578 -736.33203125 644.13671875 C-740.20618354 635.02626931 -739.85448464 622.23390995 -736.8125 612.9375 C-731.48275734 600.91374608 -720.91406748 592.65880521 -711.375 584 C-710.43785156 583.14921875 -709.50070312 582.2984375 -708.53515625 581.421875 C-706.95628005 579.99909515 -705.37435404 578.57969073 -703.7890625 577.1640625 C-701.00778293 574.67081188 -698.25158871 572.15088966 -695.5 569.625 C-694.99839355 569.16464355 -694.49678711 568.70428711 -693.97998047 568.22998047 C-692.44465475 566.82034819 -690.90975041 565.41025862 -689.375 564 C-682.92132094 558.06981329 -676.45167264 552.15988822 -669.9296875 546.3046875 C-665.04905968 541.90167464 -660.21507959 537.44747491 -655.375 533 C-644.09839154 522.63809743 -644.09839154 522.63809743 -638.4375 517.5625 C-634.55129402 514.07551903 -630.70657193 510.54668015 -626.875 507 C-622.24877683 502.71775392 -617.58821377 498.47792188 -612.89453125 494.26953125 C-610.08241667 491.73644819 -607.28896145 489.18349476 -604.5 486.625 C-604.00371094 486.17068604 -603.50742187 485.71637207 -602.99609375 485.24829102 C-600.33465489 482.80935324 -597.6855998 480.35831241 -595.05078125 477.890625 C-594.50856934 477.3857959 -593.96635742 476.8809668 -593.40771484 476.36083984 C-592.36661725 475.39112452 -591.32900576 474.417649 -590.29541016 473.43994141 C-587.97665387 471.28652668 -586.42106474 470.01535491 -583.375 469 C-583.375 468.34 -583.375 467.68 -583.375 467 C-583.96796875 466.73574219 -584.5609375 466.47148437 -585.171875 466.19921875 C-587.45529054 464.95629575 -588.84926723 463.69598354 -590.625 461.8125 C-592.96314559 459.40558542 -595.32657717 457.12027956 -597.875 454.9375 C-601.9801024 451.40165985 -605.9249991 447.70669323 -609.875 444 C-614.28842592 439.8611371 -618.7200927 435.76981191 -623.3046875 431.8203125 C-627.85310412 427.82113865 -632.26094391 423.66233292 -636.70361328 419.54638672 C-642.86811365 413.84291822 -649.06007875 408.16951003 -655.3125 402.5625 C-659.7670991 398.56551622 -664.16418479 394.50925591 -668.55615234 390.44384766 C-672.62381588 386.68272573 -676.7306163 382.96790461 -680.85546875 379.26953125 C-686.24537666 374.41443591 -691.57451805 369.49220458 -696.91601562 364.58398438 C-702.02810374 359.8876188 -707.14385156 355.1967486 -712.3125 350.5625 C-713.50939453 349.4796875 -713.50939453 349.4796875 -714.73046875 348.375 C-716.69886643 346.60722188 -718.68053974 344.86188552 -720.67578125 343.125 C-729.55787218 335.29718558 -737.27260252 327.34886314 -738.59545898 314.93041992 C-739.26974275 302.29009409 -738.1298123 291.57680373 -729.7578125 281.51953125 C-722.47076651 273.81437606 -714.48581655 266.74322468 -706.453125 259.828125 C-703.58985767 257.30931088 -700.79712503 254.71683145 -698 252.125 C-693.31298059 247.78198202 -688.60462643 243.4675793 -683.828125 239.22265625 C-682.10107793 237.6578636 -680.40561197 236.05785808 -678.734375 234.43359375 C-667.13696799 223.31665075 -656.62930415 219.46616775 -640.87109375 219.72265625 C-627.80185666 220.26619373 -617.48390179 229.78347024 -607.5625 237.4375 C-605.71275623 238.85614265 -603.86248222 240.27409416 -602.01171875 241.69140625 C-601.07763184 242.40699707 -600.14354492 243.12258789 -599.18115234 243.85986328 C-594.76685957 247.22646242 -590.32163433 250.55130473 -585.875 253.875 C-579.51412865 258.63435372 -573.18540341 263.42851549 -566.8984375 268.28515625 C-556.03721004 276.66796119 -545.11252941 284.97100287 -534.125 293.1875 C-526.61045129 298.806895 -519.15831415 304.50571201 -511.70996094 310.21240234 C-493.72456331 323.98164967 -475.67113736 337.64592273 -457.375 351 C-454.37289561 349.64563311 -452.21084825 348.11315928 -449.8359375 345.83984375 C-448.84932129 344.90350098 -448.84932129 344.90350098 -447.84277344 343.94824219 C-447.1521582 343.28469727 -446.46154297 342.62115234 -445.75 341.9375 C-444.30538662 340.56566966 -442.86007631 339.19457284 -441.4140625 337.82421875 C-440.71700195 337.16212402 -440.01994141 336.5000293 -439.30175781 335.81787109 C-436.18522836 332.87746583 -432.99310855 330.02488884 -429.796875 327.171875 C-426.96947372 324.63633449 -424.17089088 322.07013846 -421.375 319.5 C-417.74763506 316.1666371 -414.10606833 312.85053612 -410.4375 309.5625 C-406.55129402 306.07551903 -402.70657193 302.54668015 -398.875 299 C-394.24877683 294.71775392 -389.58821377 290.47792188 -384.89453125 286.26953125 C-380.02289755 281.88128446 -375.20287676 277.43626191 -370.375 273 C-363.92132094 267.06981329 -357.45167264 261.15988822 -350.9296875 255.3046875 C-346.04905968 250.90167464 -341.21507959 246.44747491 -336.375 242 C-329.92132094 236.06981329 -323.45167264 230.15988822 -316.9296875 224.3046875 C-312.04905968 219.90167464 -307.21507959 215.44747491 -302.375 211 C-291.09839154 200.63809743 -291.09839154 200.63809743 -285.4375 195.5625 C-281.55129402 192.07551903 -277.70657193 188.54668015 -273.875 185 C-269.24877683 180.71775392 -264.58821377 176.47792188 -259.89453125 172.26953125 C-255.02289755 167.88128446 -250.20287676 163.43626191 -245.375 159 C-234.09839154 148.63809743 -234.09839154 148.63809743 -228.4375 143.5625 C-224.55129402 140.07551903 -220.70657193 136.54668015 -216.875 133 C-212.24877683 128.71775392 -207.58821377 124.47792188 -202.89453125 120.26953125 C-198.02289755 115.88128446 -193.20287676 111.43626191 -188.375 107 C-177.09839154 96.63809743 -177.09839154 96.63809743 -171.4375 91.5625 C-167.55129402 88.07551903 -163.70657193 84.54668015 -159.875 81 C-155.24877683 76.71775392 -150.58821377 72.47792188 -145.89453125 68.26953125 C-141.02289755 63.88128446 -136.20287676 59.43626191 -131.375 55 C-120.09839154 44.63809743 -120.09839154 44.63809743 -114.4375 39.5625 C-110.55129402 36.07551903 -106.70657193 32.54668015 -102.875 29 C-98.25201079 24.72074743 -93.60063526 20.47756882 -88.8984375 16.28515625 C-87.06957161 14.62898512 -85.26524556 12.94558372 -83.4765625 11.24609375 C-58.21525597 -12.72866281 -30.77611137 -15.0256855 0 0 Z M-22.98828125 253.74609375 C-24.10843628 254.62370361 -24.10843628 254.62370361 -25.2512207 255.51904297 C-26.05519287 256.15213379 -26.85916504 256.78522461 -27.6875 257.4375 C-33.74183408 262.17670245 -39.82169131 266.86824708 -45.98828125 271.4609375 C-50.64400938 274.93849924 -55.25542133 278.47467015 -59.875 282 C-65.36110868 286.18549577 -70.84702884 290.3699066 -76.375 294.5 C-81.81950569 298.56782354 -87.22218889 302.68950372 -92.625 306.8125 C-98.8561796 311.56718006 -105.09681525 316.30754233 -111.375 321 C-117.48629779 325.56785142 -123.56076383 330.18237374 -129.625 334.8125 C-136.68280642 340.20123058 -143.76474295 345.55566981 -150.875 350.875 C-157.23565081 355.63465407 -163.56459107 360.42851122 -169.8515625 365.28515625 C-180.63029566 373.60429125 -191.47063141 381.84628295 -202.375 390 C-212.98696148 397.93526555 -223.50704074 405.9915566 -234.03808594 414.03369141 C-243.51647154 421.2712535 -253.00878908 428.48706345 -262.5625 435.625 C-271.23286772 442.10608711 -279.78712907 448.72705973 -288.31494141 455.39404297 C-293.3133369 459.29063524 -298.34561613 463.14354665 -303.375 467 C-301.8777539 470.78075551 -299.83842576 472.40670546 -296.5625 474.75 C-295.47684414 475.5389623 -294.39229898 476.32945423 -293.30859375 477.12109375 C-292.6935498 477.5682373 -292.07850586 478.01538086 -291.44482422 478.47607422 C-287.2953036 481.53119426 -283.21723904 484.68134221 -279.125 487.8125 C-272.89448678 492.56804581 -266.65307841 497.30741749 -260.375 502 C-249.76287689 509.93504469 -239.24295585 517.9915592 -228.71191406 526.03369141 C-218.28524832 533.99534689 -207.83312137 541.91976665 -197.32958984 549.77978516 C-191.8193488 553.9067204 -186.3465771 558.07650343 -180.8984375 562.28515625 C-170.03721004 570.66796119 -159.11252941 578.97100287 -148.125 587.1875 C-140.61045129 592.806895 -133.15831415 598.50571201 -125.70996094 604.21240234 C-114.57153527 612.73974997 -103.41431076 621.24092403 -92.18017578 629.6418457 C-85.32286198 634.77574221 -78.52723234 639.98941413 -71.72753906 645.19921875 C-60.99864843 653.41178593 -50.26343314 661.616158 -39.43359375 669.6953125 C-36.91473986 671.59329947 -34.4096323 673.50637071 -31.91015625 675.4296875 C-31.12995117 676.02950439 -30.34974609 676.62932129 -29.54589844 677.24731445 C-27.99414031 678.44165417 -26.44396351 679.63805173 -24.89550781 680.83666992 C-24.19393555 681.37654541 -23.49236328 681.9164209 -22.76953125 682.47265625 C-22.13893799 682.96000244 -21.50834473 683.44734863 -20.85864258 683.94946289 C-19.54196587 685.09631324 -19.54196587 685.09631324 -18.375 685 C-18.375 541.78 -18.375 398.56 -18.375 251 C-20.22539898 251 -21.59236053 252.64751903 -22.98828125 253.74609375 Z " fill="#0085CF" transform="translate(738.375,12)"/>
<path d="M0 0 C1.46865791 0.70506054 2.9378286 1.4090538 4.4074707 2.11206055 C8.33548653 3.99602953 12.25476497 5.89746212 16.17132568 7.80511475 C18.65829064 9.01621181 21.1465963 10.22451424 23.63525391 11.43212891 C32.00386067 15.49431216 40.36572092 19.57011542 48.72265625 23.65625 C56.59441342 27.50425583 64.48736 31.30564908 72.39770508 35.07373047 C79.9442425 38.66930677 87.47366519 42.29988185 95 45.9375 C104.03571676 50.30411816 113.07581741 54.66133091 122.125 59 C132.4025812 63.92763002 142.66831188 68.87952809 152.92919922 73.84179688 C158.67389348 76.61869562 164.42323749 79.38499281 170.1875 82.12109375 C171.21407715 82.60892334 172.2406543 83.09675293 173.29833984 83.59936523 C175.18277035 84.49357349 177.0683958 85.38527079 178.95556641 86.27368164 C197.25357652 94.95927083 210.92149366 104.39755381 218.65234375 124.015625 C221.15679232 131.69995715 221.91400653 138.28991898 221.88226891 146.34644508 C221.88577498 147.47593836 221.88928105 148.60543164 221.89289337 149.76915199 C221.90221574 153.56340489 221.89728179 157.35750459 221.89242554 161.15176392 C221.8950578 163.89581181 221.90068285 166.63985178 221.90615618 169.38389528 C221.91645587 175.35502254 221.91930003 181.32611739 221.91724396 187.29725266 C221.91419388 196.17683859 221.92251815 205.05638866 221.93299321 213.93596762 C221.95233799 230.71850735 221.95796162 247.50103487 221.95910732 264.28358443 C221.96002637 277.2447568 221.96414282 290.20592437 221.97050858 303.16709518 C221.97230367 306.89782059 221.97408329 310.628546 221.97585833 314.35927141 C221.97652148 315.75047758 221.97652148 315.75047758 221.97719802 317.16978893 C221.98950711 343.25936946 221.99739908 369.34894832 221.99651146 395.43853188 C221.99646472 396.9140875 221.99646472 396.9140875 221.99641704 398.41945232 C221.99625083 403.40527605 221.99605275 408.39109978 221.99584763 413.37692352 C221.99580774 414.36712585 221.99576785 415.35732819 221.99572675 416.37753666 C221.99564587 418.37996785 221.99556228 420.38239904 221.99547596 422.38483023 C221.9942506 453.53570627 222.00926068 484.68653877 222.03662109 515.83740234 C222.06734808 550.83566486 222.0845532 585.83389876 222.08269465 620.83217561 C222.08254539 624.56478715 222.08244798 628.29739868 222.08238602 632.03001022 C222.08236271 632.94907252 222.0823394 633.86813481 222.08231538 634.81504748 C222.08225386 649.59992537 222.09502122 664.38476543 222.11225055 679.16963207 C222.12921163 694.03182745 222.13117716 708.89396754 222.1180319 723.75616725 C222.11064577 732.58269986 222.11429059 741.40906442 222.13391658 750.2355792 C222.14592781 756.13668467 222.14331284 762.03766859 222.12897559 767.93876851 C222.12122196 771.29775328 222.12185691 774.65614883 222.13589029 778.01515229 C222.21982504 799.533001 220.5054683 817.45208812 204.87915039 833.84008789 C197.80249648 840.62089123 189.17561594 845.00260699 180.4375 849.25 C178.73074097 850.09123413 178.73074097 850.09123413 176.98950195 850.94946289 C167.91281212 855.40990307 158.79466627 859.78441067 149.66015625 864.125 C142.84255571 867.36639623 136.04626504 870.65169645 129.25 873.9375 C120.21443108 878.30442282 111.17416976 882.66130723 102.125 887 C93.11792828 891.3187458 84.11923791 895.6546125 75.125 900 C64.00161283 905.37374644 52.87029926 910.73072041 41.73046875 916.0703125 C37.62591948 918.03813003 33.52467263 920.01261294 29.42578125 921.9921875 C24.24033221 924.49521382 19.04793217 926.98324879 13.85009766 929.46044922 C11.63440019 930.51814704 9.42063227 931.57989351 7.20849609 932.64501953 C3.7701069 934.2973579 0.32362562 935.93165229 -3.125 937.5625 C-4.15939209 938.06330078 -5.19378418 938.56410156 -6.25952148 939.08007812 C-24.04602348 947.41790303 -40.84510267 947.89685467 -59.375 942 C-60.7287578 941.37585094 -62.0754684 940.73036966 -63.375 940 C-63.375 939.34 -63.375 938.68 -63.375 938 C-62.14265625 937.99742187 -60.9103125 937.99484375 -59.640625 937.9921875 C-47.40187417 937.78168693 -37.87890047 936.24524733 -28.4375 927.75 C-22.65406632 921.41508976 -19.25191172 913.48080032 -19.24619883 904.96426529 C-19.24292664 903.69151144 -19.23965445 902.41875758 -19.23628309 901.10743544 C-19.23769331 899.68409575 -19.23919533 898.26075615 -19.24077892 896.83741665 C-19.23882693 895.32764202 -19.23643844 893.81786791 -19.23365095 892.30809459 C-19.22722876 888.13006358 -19.22709109 883.95205173 -19.22792836 879.77401672 C-19.2277593 875.23959886 -19.22185808 870.70518797 -19.2166875 866.17077357 C-19.2073448 857.16411519 -19.20343665 848.15746174 -19.20116853 839.15079913 C-19.1982108 828.36800664 -19.18951594 817.58522071 -19.18075425 806.80243165 C-19.15989138 780.73676719 -19.14943723 754.67110158 -19.14062465 728.60543072 C-19.13642084 716.27961458 -19.1311985 703.95379894 -19.12594012 691.62798321 C-19.1080485 649.45289446 -19.09305144 607.27780557 -19.08561993 565.10271358 C-19.08514517 562.45401159 -19.08466928 559.8053096 -19.08419226 557.1566076 C-19.08395589 555.84306132 -19.08371951 554.52951504 -19.08347597 553.17616433 C-19.0823951 547.18765564 -19.08130583 541.19914694 -19.08020179 535.21063825 C-19.07995656 533.87686278 -19.0797127 532.5430873 -19.07947022 531.20931183 C-19.0715595 487.70798751 -19.04828219 444.20669173 -19.01527804 400.70537964 C-18.98099903 355.44126518 -18.96127058 310.17716692 -18.95797569 264.91303927 C-18.95755813 259.94637048 -18.95707857 254.97970169 -18.95655251 250.01303291 C-18.95642931 248.79005847 -18.95630612 247.56708402 -18.9561792 246.30704975 C-18.95384477 226.60508118 -18.93817128 206.90314468 -18.91771066 187.20118755 C-18.89747919 167.40618462 -18.89196266 147.61122031 -18.90148129 127.81620895 C-18.90670668 116.04945239 -18.90076984 104.28282419 -18.87894662 92.51608604 C-18.8654749 84.66004256 -18.86648335 76.80408781 -18.87934858 68.94804352 C-18.8862694 64.46921164 -18.88683248 59.99062581 -18.86978849 55.51181554 C-18.8544045 51.43607267 -18.8574844 47.36077402 -18.87519877 43.28504441 C-18.87834484 41.8209126 -18.87480836 40.35674698 -18.86370702 38.89265388 C-18.7805588 27.16111752 -20.62349887 17.39812378 -28.76171875 8.48046875 C-35.64750371 1.89479064 -44.10582218 -1.27532731 -53.5625 -1.5 C-58.61703952 -1.32107825 -62.93169161 -0.58652889 -67.60546875 1.34375 C-69.375 2 -69.375 2 -72.375 2 C-49.17384785 -14.81242909 -24.64270922 -12.03120154 0 0 Z " fill="#22A8F1" transform="translate(738.375,12)"/>
<path d="M0 0 C8.28334314 5.88522841 13.82520617 12.97359936 16 23 C16.11567023 25.99450984 16.17824388 28.96713015 16.1942749 31.96232605 C16.20289055 32.87819294 16.2115062 33.79405983 16.22038293 34.73768026 C16.24783644 37.81362587 16.26805634 40.88957386 16.28808594 43.96557617 C16.30580796 46.16828631 16.32380994 48.37099422 16.34207153 50.57369995 C16.50100339 70.67250331 16.58560967 90.77198813 16.65206528 110.87128735 C16.66111329 113.56010684 16.67032301 116.24892573 16.6796875 118.93774414 C16.68200741 119.60600966 16.68432733 120.27427519 16.68671754 120.96279118 C16.72548001 131.78501889 16.80601602 142.60653639 16.90281627 153.42838367 C17.0014419 164.54669857 17.05739851 175.6647203 17.07564378 186.78346997 C17.08711534 193.02346104 17.11748992 199.26204238 17.19359589 205.50160789 C17.26444824 211.37327836 17.28327158 217.24284059 17.26247787 223.11487961 C17.26390541 225.26719127 17.28412054 227.41958682 17.32471848 229.57151604 C17.61539467 245.8160142 17.61539467 245.8160142 13.62783051 251.20713234 C10.85183533 253.51584488 8.15677107 255.26395242 5 257 C3.45158258 258.1282821 1.91574539 259.27438579 0.40234375 260.44921875 C-1.08426116 261.53095336 -2.57257598 262.61034155 -4.0625 263.6875 C-10.51968995 268.39920765 -16.89436135 273.1962848 -23.1875 278.125 C-29.32322151 282.92972355 -35.5041618 287.66124779 -41.75073242 292.32080078 C-47.36219673 296.51027137 -52.9340162 300.7503401 -58.5 305 C-64.6476468 309.69248133 -70.80526477 314.36984066 -77 319 C-83.11129396 323.56785654 -89.18576379 328.1823737 -95.25 332.8125 C-102.30780642 338.20123058 -109.38974295 343.55566981 -116.5 348.875 C-122.86065081 353.63465407 -129.18959107 358.42851122 -135.4765625 363.28515625 C-146.25529566 371.60429125 -157.09563141 379.84628295 -168 388 C-178.61196148 395.93526555 -189.13204074 403.9915566 -199.66308594 412.03369141 C-209.14146976 419.27125214 -218.6336775 426.48721452 -228.1875 433.625 C-235.43697547 439.04235472 -242.6113483 444.54710355 -249.73681641 450.12646484 C-255.05971377 454.28996675 -260.45148563 458.34456839 -265.91015625 462.328125 C-268.09153256 463.83384998 -268.09153256 463.83384998 -269 466 C-271.86679674 464.64913667 -274.36480222 463.11382476 -276.9140625 461.234375 C-278.04171021 460.40462158 -278.04171021 460.40462158 -279.19213867 459.55810547 C-279.99498291 458.96143066 -280.79782715 458.36475586 -281.625 457.75 C-282.88437378 456.81824951 -282.88437378 456.81824951 -284.16918945 455.86767578 C-290.66698063 451.03949396 -297.0707532 446.09804093 -303.44458008 441.10791016 C-308.19432173 437.39216469 -312.97936222 433.731546 -317.8125 430.125 C-323.96406974 425.53443731 -330.08435208 420.90477219 -336.1875 416.25 C-337.06921875 415.57759277 -337.9509375 414.90518555 -338.859375 414.21240234 C-342.48266258 411.44833278 -346.10508072 408.68312492 -349.72753906 405.91796875 C-359.09590811 398.76798102 -368.46929896 391.6268505 -377.91015625 384.57275391 C-383.40603422 380.46050184 -388.85958251 376.29397305 -394.3125 372.125 C-404.1208374 364.62997526 -414.03432347 357.28413526 -424 350 C-422.72220114 347.44440228 -421.52260775 347.25331552 -419 346 C-417.19626546 344.54160787 -417.19626546 344.54160787 -415.4609375 342.83984375 C-414.80319336 342.21561523 -414.14544922 341.59138672 -413.46777344 340.94824219 C-412.7771582 340.28469727 -412.08654297 339.62115234 -411.375 338.9375 C-409.93038662 337.56566966 -408.48507631 336.19457284 -407.0390625 334.82421875 C-405.99347168 333.83107666 -405.99347168 333.83107666 -404.92675781 332.81787109 C-401.81022836 329.87746583 -398.61810855 327.02488884 -395.421875 324.171875 C-392.59447372 321.63633449 -389.79589088 319.07013846 -387 316.5 C-383.37263506 313.1666371 -379.73106833 309.85053612 -376.0625 306.5625 C-372.17629402 303.07551903 -368.33157193 299.54668015 -364.5 296 C-359.87377683 291.71775392 -355.21321377 287.47792188 -350.51953125 283.26953125 C-345.64789755 278.88128446 -340.82787676 274.43626191 -336 270 C-329.54632094 264.06981329 -323.07667264 258.15988822 -316.5546875 252.3046875 C-311.67405968 247.90167464 -306.84007959 243.44747491 -302 239 C-295.54632094 233.06981329 -289.07667264 227.15988822 -282.5546875 221.3046875 C-277.67405968 216.90167464 -272.84007959 212.44747491 -268 208 C-256.72339154 197.63809743 -256.72339154 197.63809743 -251.0625 192.5625 C-247.17629402 189.07551903 -243.33157193 185.54668015 -239.5 182 C-234.87377683 177.71775392 -230.21321377 173.47792188 -225.51953125 169.26953125 C-220.64789755 164.88128446 -215.82787676 160.43626191 -211 156 C-199.72339154 145.63809743 -199.72339154 145.63809743 -194.0625 140.5625 C-190.17629402 137.07551903 -186.33157193 133.54668015 -182.5 130 C-177.87377683 125.71775392 -173.21321377 121.47792188 -168.51953125 117.26953125 C-163.64789755 112.88128446 -158.82787676 108.43626191 -154 104 C-142.72339154 93.63809743 -142.72339154 93.63809743 -137.0625 88.5625 C-133.17629402 85.07551903 -129.33157193 81.54668015 -125.5 78 C-120.87377683 73.71775392 -116.21321377 69.47792188 -111.51953125 65.26953125 C-106.64789755 60.88128446 -101.82787676 56.43626191 -97 52 C-85.72339154 41.63809743 -85.72339154 41.63809743 -80.0625 36.5625 C-76.17629402 33.07551903 -72.33157193 29.54668015 -68.5 26 C-63.87613594 21.71993762 -59.23253329 17.46644248 -54.51171875 13.29296875 C-52.69724331 11.63651916 -50.9345999 9.92267934 -49.20703125 8.17578125 C-35.74703834 -5.31342854 -17.1770605 -10.16843969 0 0 Z " fill="#0075B6" transform="translate(704,15)"/>
<path d="M0 0 C5.14742452 3.61414913 9.63446554 7.50790851 14.01953125 12.01171875 C16.46347428 14.46530258 19.05210417 16.70323502 21.67578125 18.9609375 C24.62410362 21.54753292 27.49916154 24.20835124 30.375 26.875 C34.2259865 30.44434143 38.08877553 33.99646017 42 37.5 C45.86662567 40.96489833 49.69013786 44.47304568 53.5 48 C58.12619807 52.28227279 62.78678675 56.52207859 67.48046875 60.73046875 C70.29258021 63.263549 73.08635581 65.816162 75.875 68.375 C76.37491455 68.83366455 76.8748291 69.2923291 77.38989258 69.76489258 C79.97795411 72.14070238 82.56379955 74.51890411 85.1484375 76.8984375 C91.4190464 82.67390227 91.4190464 82.67390227 97.8125 88.3125 C102.49091701 92.36320488 106.97231675 96.62609453 111.48242188 100.86181641 C115.43379255 104.56498039 119.42738402 108.19200561 123.58203125 111.66796875 C125 113 125 113 127 116 C116.72732789 123.87453292 106.43918253 131.72194704 96 139.375 C89.79273966 143.92728581 83.64451327 148.53631966 77.55859375 153.25 C66.15478897 162.08134193 54.65116078 170.78610116 43.09838867 179.42138672 C37.54038506 183.58133059 32.01852184 187.78787142 26.5 192 C20.35227555 196.69238078 14.19473629 201.36983987 8 206 C2.78650284 209.89680275 -2.40325401 213.82320248 -7.57714844 217.77246094 C-10.24739933 219.81051506 -12.92040987 221.84490667 -15.59375 223.87890625 C-19.22847562 226.64511682 -22.85136316 229.42600952 -26.46875 232.21484375 C-28.22890751 233.56023495 -29.989315 234.90529919 -31.75 236.25 C-32.54696289 236.86979736 -33.34392578 237.48959473 -34.16503906 238.12817383 C-45.71913771 246.90807258 -56.6765482 249.22820253 -71 248 C-83.78891659 245.33564238 -92.2570101 236.0492663 -101.43652344 227.45458984 C-103.59975711 225.44201235 -105.79744585 223.46938474 -108 221.5 C-111.86662619 218.0351012 -115.69011713 214.52693248 -119.5 211 C-123.35326856 207.4335697 -127.21918283 203.88403574 -131.125 200.375 C-131.91519531 199.66214844 -132.70539063 198.94929687 -133.51953125 198.21484375 C-135.29516207 196.62935923 -137.08605782 195.06090535 -138.88671875 193.50390625 C-144.26181719 188.78903352 -148.91798444 184.51514681 -152 178 C-152.31582031 177.38511719 -152.63164062 176.77023437 -152.95703125 176.13671875 C-156.83118354 167.02626931 -156.47948464 154.23390995 -153.4375 144.9375 C-148.10775734 132.91374608 -137.53906748 124.65880521 -128 116 C-126.59427734 114.72382812 -126.59427734 114.72382812 -125.16015625 113.421875 C-123.58128005 111.99909515 -121.99935404 110.57969073 -120.4140625 109.1640625 C-117.63278293 106.67081188 -114.87658871 104.15088966 -112.125 101.625 C-111.62339355 101.16464355 -111.12178711 100.70428711 -110.60498047 100.22998047 C-109.06965475 98.82034819 -107.53475041 97.41025862 -106 96 C-99.54632094 90.06981329 -93.07667264 84.15988822 -86.5546875 78.3046875 C-81.67405968 73.90167464 -76.84007959 69.44747491 -72 65 C-60.72339154 54.63809743 -60.72339154 54.63809743 -55.0625 49.5625 C-51.17629402 46.07551903 -47.33157193 42.54668015 -43.5 39 C-38.87377683 34.71775392 -34.21321377 30.47792188 -29.51953125 26.26953125 C-26.70741888 23.73645019 -23.91373677 21.18373786 -21.125 18.625 C-20.62871094 18.16996094 -20.13242188 17.71492188 -19.62109375 17.24609375 C-16.9675871 14.81143301 -14.31920193 12.37138968 -11.67578125 9.92578125 C-10.86246338 9.17530518 -10.86246338 9.17530518 -10.03271484 8.40966797 C-8.99368385 7.45078261 -7.95616896 6.49025098 -6.92041016 5.52783203 C-4.6871424 3.46912205 -2.53605959 1.6907064 0 0 Z " fill="#006CAD" transform="translate(155,480)"/>
</svg>
